SplineFontDB: 3.0
FontName: Renner-it-ThinItalic
FullName: Renner* Thin Italic
FamilyName: Renner* Thin
Weight: Thin
Copyright: This typeface is licensed under the SIL open font license.
UComments: "2018-6-8: Created with FontForge (http://fontforge.org)"
Version: 003.000
ItalicAngle: -10
UnderlinePosition: -100
UnderlineWidth: 50
Ascent: 800
Descent: 200
InvalidEm: 0
LayerCount: 2
Layer: 0 0 "Back" 1
Layer: 1 0 "Fore" 0
XUID: [1021 69 1495626776 15919582]
FSType: 0
OS2Version: 0
OS2_WeightWidthSlopeOnly: 0
OS2_UseTypoMetrics: 0
CreationTime: 1528481165
ModificationTime: 1528572456
PfmFamily: 17
TTFWeight: 200
TTFWidth: 5
LineGap: 100
VLineGap: 0
OS2TypoAscent: 825
OS2TypoAOffset: 0
OS2TypoDescent: -225
OS2TypoDOffset: 0
OS2TypoLinegap: 100
OS2WinAscent: 900
OS2WinAOffset: 0
OS2WinDescent: 300
OS2WinDOffset: 0
HheadAscent: 1030
HheadAOffset: 0
HheadDescent: -350
HheadDOffset: 0
OS2CapHeight: 700
OS2XHeight: 460
OS2Vendor: 'PfEd'
Lookup: 1 0 0 "alt a" { "alt a"  } ['ss01' ('DFLT' <'dflt' > 'latn' <'dflt' > ) ]
Lookup: 1 0 0 "Tabular Numbers lookup" { "Tabular Numbers lookup"  } ['tnum' ('DFLT' <'dflt' > 'grek' <'dflt' > 'latn' <'dflt' > ) ]
Lookup: 258 0 0 "Lets get our kern on" { "kernin like nobodys business" [150,0,4] } ['kern' ('DFLT' <'dflt' > 'latn' <'dflt' > ) ]
MarkAttachClasses: 1
DEI: 91125
KernClass2: 16 14 "kernin like nobodys business"
 15 slash seven V W
 175 quotedbl quotesingle asterisk grave dieresis ordfeminine macron degree acute ordmasculine circumflex breve dotaccent ring tilde quoteleft quoteright quotedblleft quotedblright
 17 nine question F P
 107 A L backslash Agrave Aacute Acircumflex Atilde Adieresis Aring Amacron Abreve Aogonek Lacute uni013B Lslash
 26 three eight B C germandbls
 5 K X Z
 125 at D G O Ograve Oacute Ocircumflex Otilde Odieresis Oslash Dcaron Dcroat Gcircumflex Gbreve Gdotaccent uni0122 Omacron Obreve

StartChar: H
Encoding: 72 72 0
Width: 671
VWidth: 0
Flags: HW
LayerCount: 2
Fore
SplineSet
169 364 m 1
 175 399 l 1
 642 399 l 1
 636 364 l 1
 169 364 l 1
670 700 m 1
 708 700 l 1
 585 0 l 1
 547 0 l 1
 670 700 l 1
209 700 m 1
 247 700 l 1
 124 0 l 1
 86 0 l 1
 209 700 l 1
EndSplineSet
EndChar

StartChar: O
Encoding: 79 79 1
Width: 779
VWidth: 0
Flags: HW
LayerCount: 2
Fore
SplineSet
148 350 m 0
 115 165 218 29 395 29 c 0
 572 29 723 165 756 350 c 0
 789 535 685 671 508 671 c 0
 331 671 181 535 148 350 c 0
108 350 m 0
 144 557 317 709 515 709 c 0
 713 709 832 557 796 350 c 0
 760 143 586 -9 388 -9 c 0
 190 -9 72 143 108 350 c 0
EndSplineSet
EndChar

StartChar: I
Encoding: 73 73 2
Width: 203
VWidth: 0
Flags: HW
LayerCount: 2
Fore
SplineSet
206 700 m 1
 243 700 l 1
 120 0 l 1
 83 0 l 1
 206 700 l 1
EndSplineSet
EndChar

StartChar: C
Encoding: 67 67 3
Width: 685
VWidth: 0
Flags: HW
LayerCount: 2
Fore
SplineSet
149 350 m 0
 116 163 219 30 389 30 c 0
 488 30 565 62 630 121 c 1
 621 70 l 1
 553 18 484 -9 382 -9 c 0
 188 -9 71 141 108 350 c 0
 145 559 315 709 509 709 c 0
 611 709 670 682 720 630 c 1
 711 580 l 1
 667 638 598 670 502 670 c 0
 333 670 182 539 149 350 c 0
EndSplineSet
EndChar

StartChar: E
Encoding: 69 69 4
Width: 524
VWidth: 0
Flags: HW
LayerCount: 2
Fore
SplineSet
105 0 m 1
 111 35 l 1
 454 35 l 1
 448 0 l 1
 105 0 l 1
222 665 m 1
 228 700 l 1
 571 700 l 1
 565 665 l 1
 222 665 l 1
170 368 m 1
 176 404 l 1
 499 404 l 1
 493 368 l 1
 170 368 l 1
209 700 m 1
 247 700 l 1
 124 0 l 1
 86 0 l 1
 209 700 l 1
EndSplineSet
EndChar

StartChar: F
Encoding: 70 70 6
Width: 468
VWidth: 0
Flags: HW
LayerCount: 2
Fore
SplineSet
222 664 m 1
 228 700 l 1
 531 700 l 1
 525 664 l 1
 222 664 l 1
169 361 m 1
 175 396 l 1
 468 396 l 1
 462 361 l 1
 169 361 l 1
209 700 m 1
 247 700 l 1
 124 0 l 1
 86 0 l 1
 209 700 l 1
EndSplineSet
EndChar

StartChar: G
Encoding: 71 71 7
Width: 768
VWidth: 0
Flags: HW
LayerCount: 2
Fore
SplineSet
470 310 m 1
 476 345 l 1
 778 345 l 1
 746 310 l 1
 470 310 l 1
778 345 m 1
 745 157 591 -9 390 -9 c 0
 192 -9 71 141 108 350 c 0
 145 559 319 709 517 709 c 0
 646 709 729 649 773 558 c 1
 741 534 l 1
 707 614 627 671 510 671 c 0
 335 671 181 539 148 350 c 0
 115 163 221 29 397 29 c 0
 578 29 711 178 740 342 c 1
 778 345 l 1
EndSplineSet
EndChar

StartChar: T
Encoding: 84 84 8
Width: 443
VWidth: 0
Flags: HW
LayerCount: 2
Fore
SplineSet
133 664 m 1
 139 700 l 1
 550 700 l 1
 544 664 l 1
 357 664 l 1
 240 0 l 1
 203 0 l 1
 320 664 l 1
 133 664 l 1
EndSplineSet
EndChar

StartChar: L
Encoding: 76 76 9
Width: 437
VWidth: 0
Flags: HW
LayerCount: 2
Fore
SplineSet
108 0 m 1
 114 35 l 1
 427 35 l 1
 421 0 l 1
 108 0 l 1
209 700 m 1
 246 700 l 1
 123 0 l 1
 86 0 l 1
 209 700 l 1
EndSplineSet
EndChar

StartChar: D
Encoding: 68 68 10
Width: 651
VWidth: 0
Flags: HW
LayerCount: 2
Fore
SplineSet
223 663 m 1
 229 700 l 1
 387 700 l 2
 591 700 704 559 667 350 c 1
 629 350 l 1
 662 539 566 663 381 663 c 2
 223 663 l 1
264 0 m 2
 106 0 l 1
 113 37 l 1
 271 37 l 2
 456 37 596 161 629 350 c 1
 667 350 l 1
 630 141 468 0 264 0 c 2
209 700 m 1
 247 700 l 1
 124 0 l 1
 86 0 l 1
 209 700 l 1
EndSplineSet
EndChar

StartChar: Q
Encoding: 81 81 11
Width: 777
VWidth: 0
Flags: HW
LayerCount: 2
Fore
SplineSet
148 350 m 0
 115 165 218 29 395 29 c 0
 572 29 723 165 756 350 c 0
 789 535 685 671 508 671 c 0
 331 671 181 535 148 350 c 0
108 350 m 0
 144 557 317 709 515 709 c 0
 713 709 832 557 796 350 c 0
 760 143 586 -9 388 -9 c 0
 190 -9 72 143 108 350 c 0
445 300 m 1
 495 300 l 1
 755 0 l 1
 705 0 l 1
 445 300 l 1
EndSplineSet
EndChar

StartChar: A
Encoding: 65 65 12
Width: 621
VWidth: 0
Flags: HW
LayerCount: 2
Fore
SplineSet
178 250 m 1
 195 285 l 1
 527 285 l 1
 532 250 l 1
 178 250 l 1
423 635 m 1
 212 272 l 1
 206 263 l 1
 53 0 l 1
 11 0 l 1
 438 722 l 1
 610 0 l 1
 568 0 l 1
 509 261 l 1
 508 270 l 1
 423 635 l 1
EndSplineSet
EndChar

StartChar: R
Encoding: 82 82 13
Width: 501
VWidth: 0
Flags: HW
LayerCount: 2
Fore
SplineSet
259 327 m 1
 301 327 l 1
 475 0 l 1
 429 0 l 1
 259 327 l 1
209 700 m 1
 247 700 l 1
 124 0 l 1
 86 0 l 1
 209 700 l 1
222 666 m 1
 228 700 l 1
 351 700 l 2
 486 700 576 630 553 501 c 0
 530 372 416 302 281 302 c 2
 158 302 l 1
 164 335 l 1
 287 335 l 2
 404 335 497 391 516 501 c 0
 535 611 461 666 345 666 c 2
 222 666 l 1
EndSplineSet
EndChar

StartChar: V
Encoding: 86 86 14
Width: 621
VWidth: 0
Flags: HW
LayerCount: 2
Fore
SplineSet
323 67 m 1
 691 700 l 1
 733 700 l 1
 307 -22 l 1
 134 700 l 1
 177 700 l 1
 323 67 l 1
EndSplineSet
EndChar

StartChar: M
Encoding: 77 77 15
Width: 822
VWidth: 0
Flags: HW
LayerCount: 2
Fore
SplineSet
775 614 m 1
 818 722 l 1
 770 0 l 1
 733 0 l 1
 775 614 l 1
258 722 m 1
 264 614 l 1
 90 0 l 1
 53 0 l 1
 258 722 l 1
818 722 m 1
 799 635 l 1
 427 91 l 1
 248 635 l 1
 258 722 l 1
 440 166 l 1
 818 722 l 1
EndSplineSet
EndChar

StartChar: W
Encoding: 87 87 16
Width: 964
VWidth: 0
Flags: HW
LayerCount: 2
Fore
SplineSet
289 39 m 1
 262 -22 l 1
 139 700 l 1
 180 700 l 1
 289 39 l 1
695 -22 m 1
 690 39 l 1
 1030 700 l 1
 1071 700 l 1
 695 -22 l 1
262 -22 m 1
 259 42 l 1
 609 722 l 1
 720 42 l 1
 695 -22 l 1
 591 616 l 1
 262 -22 l 1
EndSplineSet
EndChar

StartChar: N
Encoding: 78 78 17
Width: 704
VWidth: 0
Flags: HW
LayerCount: 2
Fore
SplineSet
184 652 m 1
 188 722 l 1
 630 45 l 1
 627 -22 l 1
 184 652 l 1
717 700 m 1
 754 700 l 1
 627 -22 l 1
 601 38 l 1
 717 700 l 1
188 722 m 1
 214 659 l 1
 98 0 l 1
 61 0 l 1
 188 722 l 1
EndSplineSet
EndChar

StartChar: a
Encoding: 97 97 18
Width: 551
VWidth: 0
Flags: HW
LayerCount: 2
Fore
SplineSet
522 460 m 1
 556 460 l 1
 475 0 l 1
 441 0 l 1
 522 460 l 1
82 230 m 0
 108 378 221 470 343 470 c 0
 463 470 520 360 497 230 c 0
 474 100 378 -10 258 -10 c 0
 136 -10 56 82 82 230 c 0
118 230 m 0
 95 102 164 23 269 23 c 0
 364 23 461 118 481 230 c 0
 501 342 437 437 342 437 c 0
 237 437 141 358 118 230 c 0
EndSplineSet
Substitution2: "alt a" a.alt
EndChar

StartChar: X
Encoding: 88 88 19
Width: 519
VWidth: 0
Flags: HW
LayerCount: 2
Fore
SplineSet
566 700 m 1
 611 700 l 1
 347 367 l 1
 503 0 l 1
 458 0 l 1
 321 333 l 1
 62 0 l 1
 16 0 l 1
 308 367 l 1
 164 700 l 1
 210 700 l 1
 334 400 l 1
 566 700 l 1
EndSplineSet
EndChar

StartChar: K
Encoding: 75 75 20
Width: 493
VWidth: 0
Flags: HW
LayerCount: 2
Fore
SplineSet
206 700 m 1
 244 700 l 1
 121 0 l 1
 83 0 l 1
 206 700 l 1
542 700 m 1
 591 700 l 1
 223 372 l 1
 483 0 l 1
 434 0 l 1
 175 371 l 1
 542 700 l 1
EndSplineSet
EndChar

StartChar: Y
Encoding: 89 89 21
Width: 526
VWidth: 0
Flags: HW
LayerCount: 2
Fore
SplineSet
295 306 m 1
 333 306 l 1
 279 0 l 1
 241 0 l 1
 295 306 l 1
595 700 m 1
 638 700 l 1
 303 246 l 1
 134 700 l 1
 177 700 l 1
 316 315 l 1
 595 700 l 1
EndSplineSet
EndChar

StartChar: B
Encoding: 66 66 22
Width: 517
VWidth: 0
Flags: HW
LayerCount: 2
Fore
SplineSet
177 391 m 1
 307 391 l 2
 410 391 520 331 497 202 c 0
 472 63 367 0 232 0 c 2
 108 0 l 1
 114 34 l 1
 238 34 l 2
 354 34 439 89 459 204 c 0
 478 309 393 369 297 369 c 2
 173 369 l 1
 177 391 l 1
175 380 m 1
 179 402 l 1
 293 402 l 2
 382 402 464 441 480 533 c 0
 495 617 441 666 339 666 c 2
 225 666 l 1
 231 700 l 1
 345 700 l 2
 470 700 536 641 517 535 c 0
 498 430 407 380 295 380 c 2
 175 380 l 1
209 700 m 1
 246 700 l 1
 123 0 l 1
 86 0 l 1
 209 700 l 1
EndSplineSet
EndChar

StartChar: Z
Encoding: 90 90 23
Width: 538
VWidth: 0
Flags: HW
LayerCount: 2
Fore
SplineSet
155 664 m 1
 161 700 l 1
 645 700 l 1
 88 36 l 1
 514 36 l 1
 508 0 l 1
 18 0 l 1
 575 664 l 1
 155 664 l 1
EndSplineSet
EndChar

StartChar: o
Encoding: 111 111 24
Width: 552
VWidth: 0
Flags: HW
LayerCount: 2
Fore
SplineSet
82 230 m 0
 107 369 226 470 359 470 c 0
 492 470 577 369 552 230 c 0
 527 91 407 -10 274 -10 c 0
 141 -10 57 91 82 230 c 0
118 230 m 0
 97 110 168 23 280 23 c 0
 392 23 495 110 516 230 c 0
 537 350 465 437 353 437 c 0
 241 437 139 350 118 230 c 0
EndSplineSet
EndChar

StartChar: J
Encoding: 74 74 25
Width: 212
VWidth: 0
Flags: HW
LayerCount: 2
Fore
SplineSet
-130 -139 m 1
 -114 -162 -81 -184 -39 -184 c 0
 29 -184 64 -148 81 -50 c 2
 213 700 l 1
 249 700 l 1
 115 -60 l 2
 96 -169 47 -220 -47 -220 c 0
 -100 -220 -144 -187 -155 -167 c 1
 -130 -139 l 1
EndSplineSet
EndChar

StartChar: t
Encoding: 116 116 26
Width: 208
VWidth: 0
Flags: HW
LayerCount: 2
Fore
SplineSet
92 460 m 1
 278 460 l 1
 272 427 l 1
 86 427 l 1
 92 460 l 1
195 620 m 1
 231 620 l 1
 122 0 l 1
 86 0 l 1
 195 620 l 1
EndSplineSet
EndChar

StartChar: d
Encoding: 100 100 27
Width: 551
VWidth: 0
Flags: HW
LayerCount: 2
Fore
SplineSet
578 780 m 1
 613 780 l 1
 475 0 l 1
 440 0 l 1
 578 780 l 1
82 230 m 0
 108 378 221 470 343 470 c 0
 463 470 520 360 497 230 c 0
 474 100 378 -10 258 -10 c 0
 136 -10 56 82 82 230 c 0
118 230 m 0
 95 102 164 23 269 23 c 0
 364 23 461 118 481 230 c 0
 501 342 437 437 342 437 c 0
 237 437 141 358 118 230 c 0
EndSplineSet
EndChar

StartChar: l
Encoding: 108 108 28
Width: 198
VWidth: 0
Flags: HW
LayerCount: 2
Fore
SplineSet
219 780 m 1
 255 780 l 1
 117 0 l 1
 81 0 l 1
 219 780 l 1
EndSplineSet
EndChar

StartChar: i
Encoding: 105 105 29
Width: 215
VWidth: 0
Flags: HW
LayerCount: 2
Fore
SplineSet
201 679 m 0
 203 693 217 705 232 705 c 0
 247 705 256 693 254 679 c 0
 252 665 238 653 223 653 c 0
 208 653 199 665 201 679 c 0
171 460 m 1
 206 460 l 1
 125 0 l 1
 90 0 l 1
 171 460 l 1
EndSplineSet
EndChar

StartChar: r
Encoding: 114 114 30
Width: 308
VWidth: 0
Flags: HW
LayerCount: 2
Fore
SplineSet
198 460 m 1
 117 0 l 1
 81 0 l 1
 162 460 l 1
 198 460 l 1
351 415 m 1
 334 428 318 437 296 437 c 0
 223 437 181 365 166 280 c 1
 149 280 l 1
 168 389 231 470 309 470 c 0
 336 470 360 461 376 444 c 1
 351 415 l 1
EndSplineSet
EndChar

StartChar: c
Encoding: 99 99 31
Width: 484
VWidth: 0
Flags: HW
LayerCount: 2
Fore
SplineSet
113 230 m 0
 92 110 163 23 275 23 c 0
 349 23 417 61 444 93 c 1
 437 49 l 1
 406 19 338 -10 269 -10 c 0
 136 -10 52 91 77 230 c 0
 102 369 221 470 354 470 c 0
 423 470 479 440 500 411 c 1
 493 367 l 1
 478 399 422 437 348 437 c 0
 236 437 134 350 113 230 c 0
EndSplineSet
EndChar

StartChar: b
Encoding: 98 98 32
Width: 551
VWidth: 0
Flags: HW
LayerCount: 2
Fore
SplineSet
250 780 m 1
 112 0 l 1
 76 0 l 1
 214 780 l 1
 250 780 l 1
551 230 m 0
 525 82 411 -10 289 -10 c 0
 169 -10 113 100 136 230 c 0
 159 360 254 470 374 470 c 0
 496 470 577 378 551 230 c 0
516 230 m 0
 539 358 468 437 363 437 c 0
 268 437 173 342 153 230 c 0
 133 118 195 23 290 23 c 0
 395 23 493 102 516 230 c 0
EndSplineSet
EndChar

StartChar: p
Encoding: 112 112 33
Width: 551
VWidth: 0
Flags: HW
LayerCount: 2
Fore
SplineSet
73 -220 m 1
 37 -220 l 1
 157 460 l 1
 193 460 l 1
 73 -220 l 1
551 230 m 0
 525 82 411 -10 289 -10 c 0
 169 -10 113 100 136 230 c 0
 159 360 254 470 374 470 c 0
 496 470 577 378 551 230 c 0
516 230 m 0
 539 358 468 437 363 437 c 0
 268 437 173 342 153 230 c 0
 133 118 195 23 290 23 c 0
 395 23 493 102 516 230 c 0
EndSplineSet
EndChar

StartChar: q
Encoding: 113 113 34
Width: 551
VWidth: 0
Flags: HW
LayerCount: 2
Fore
SplineSet
401 -220 m 1
 521 460 l 1
 556 460 l 1
 436 -220 l 1
 401 -220 l 1
82 230 m 0
 108 378 221 470 343 470 c 0
 463 470 520 360 497 230 c 0
 474 100 378 -10 258 -10 c 0
 136 -10 56 82 82 230 c 0
118 230 m 0
 95 102 164 23 269 23 c 0
 364 23 461 118 481 230 c 0
 501 342 437 437 342 437 c 0
 237 437 141 358 118 230 c 0
EndSplineSet
EndChar

StartChar: h
Encoding: 104 104 35
Width: 493
VWidth: 0
Flags: HW
LayerCount: 2
Fore
SplineSet
255 780 m 1
 117 0 l 1
 81 0 l 1
 219 780 l 1
 255 780 l 1
430 306 m 2
 444 385 420 437 339 437 c 0
 256 437 181 365 166 280 c 1
 153 280 l 1
 172 389 258 470 353 470 c 0
 448 470 484 409 466 309 c 2
 412 0 l 1
 376 0 l 1
 430 306 l 2
EndSplineSet
EndChar

StartChar: n
Encoding: 110 110 36
Width: 493
VWidth: 0
Flags: HW
LayerCount: 2
Fore
SplineSet
198 460 m 1
 117 0 l 1
 81 0 l 1
 162 460 l 1
 198 460 l 1
430 306 m 2
 444 385 420 437 339 437 c 0
 256 437 181 365 166 280 c 1
 153 280 l 1
 172 389 258 470 353 470 c 0
 448 470 484 409 466 309 c 2
 412 0 l 1
 376 0 l 1
 430 306 l 2
EndSplineSet
EndChar

StartChar: m
Encoding: 109 109 37
Width: 722
VWidth: 0
Flags: HW
LayerCount: 2
Fore
SplineSet
398 306 m 2
 412 385 391 437 323 437 c 0
 253 437 181 365 166 280 c 1
 153 280 l 1
 172 389 254 470 336 470 c 0
 418 470 451 409 433 309 c 2
 379 0 l 1
 344 0 l 1
 398 306 l 2
198 460 m 1
 117 0 l 1
 81 0 l 1
 162 460 l 1
 198 460 l 1
695 309 m 2
 641 0 l 1
 606 0 l 1
 660 306 l 2
 674 385 653 437 585 437 c 0
 515 437 443 365 428 280 c 1
 409 280 l 1
 428 389 516 470 598 470 c 0
 680 470 713 409 695 309 c 2
EndSplineSet
EndChar

StartChar: k
Encoding: 107 107 38
Width: 396
VWidth: 0
Flags: HW
LayerCount: 2
Fore
SplineSet
214 780 m 1
 250 780 l 1
 112 0 l 1
 76 0 l 1
 214 780 l 1
406 460 m 1
 453 460 l 1
 193 270 l 1
 390 0 l 1
 345 0 l 1
 147 270 l 1
 406 460 l 1
EndSplineSet
EndChar

StartChar: u
Encoding: 117 117 39
Width: 493
VWidth: 0
Flags: HW
LayerCount: 2
Fore
SplineSet
376 0 m 1
 457 460 l 1
 493 460 l 1
 412 0 l 1
 376 0 l 1
145 161 m 2
 130 75 154 23 235 23 c 0
 318 23 393 95 408 180 c 1
 421 180 l 1
 402 71 316 -10 221 -10 c 0
 126 -10 90 51 109 157 c 2
 162 460 l 1
 198 460 l 1
 145 161 l 2
EndSplineSet
EndChar

StartChar: e
Encoding: 101 101 40
Width: 506
VWidth: 0
Flags: HW
LayerCount: 2
Fore
SplineSet
107 221 m 1
 113 255 l 5
 499 255 l 5
 502 221 l 1
 107 221 l 1
474 252 m 2
 493 359 430 438 334 438 c 0
 239 438 143 365 121 242 c 1
 118 231 l 1
 96 109 157 23 259 23 c 0
 358 23 411 76 451 126 c 1
 476 107 l 1
 430 51 372 -10 249 -10 c 0
 130 -10 57 92 82 231 c 0
 86 254 92 277 102 298 c 0
 144 400 235 470 341 470 c 0
 455 470 532 379 509 247 c 0
 508 239 504 229 502 221 c 1
 471 230 l 1
 474 252 l 2
EndSplineSet
EndChar

StartChar: g
Encoding: 103 103 41
Width: 551
VWidth: 0
Flags: HW
LayerCount: 2
Fore
SplineSet
49 -30 m 1
 85 -30 l 1
 68 -128 123 -197 224 -197 c 0
 318 -197 417 -131 442 10 c 2
 521 460 l 1
 556 460 l 1
 477 10 l 2
 449 -149 333 -230 218 -230 c 0
 96 -230 28 -149 49 -30 c 1
82 230 m 0
 108 378 221 470 343 470 c 0
 463 470 520 360 497 230 c 0
 474 100 378 -10 258 -10 c 0
 136 -10 56 82 82 230 c 0
118 230 m 0
 95 102 164 23 269 23 c 0
 365 23 461 117 481 233 c 0
 500 339 438 437 342 437 c 0
 237 437 141 358 118 230 c 0
EndSplineSet
EndChar

StartChar: f
Encoding: 102 102 42
Width: 280
VWidth: 0
Flags: HW
LayerCount: 2
Fore
SplineSet
127 460 m 1
 335 460 l 1
 329 427 l 1
 121 427 l 1
 127 460 l 1
400 716 m 1
 389 737 369 753 340 753 c 0
 278 753 251 699 240 639 c 2
 127 0 l 1
 91 0 l 1
 204 643 l 2
 219 726 263 789 347 789 c 0
 390 789 415 764 426 744 c 1
 400 716 l 1
EndSplineSet
EndChar

StartChar: s
Encoding: 115 115 43
Width: 403
VWidth: 0
Flags: HW
LayerCount: 2
Fore
SplineSet
94 152 m 1
 95 86 123 23 206 23 c 0
 270 23 321 56 331 114 c 0
 342 179 292 204 233 225 c 0
 168 248 110 275 125 358 c 0
 137 428 203 469 276 469 c 0
 360 469 395 410 404 359 c 1
 372 349 l 5
 360 391 335 435 270 435 c 0
 214 435 169 409 160 357 c 0
 149 293 204 271 263 250 c 0
 325 228 381 192 368 117 c 0
 353 34 284 -10 198 -10 c 0
 100 -10 60 64 60 142 c 1
 94 152 l 1
EndSplineSet
EndChar

StartChar: y
Encoding: 121 121 44
Width: 430
VWidth: 0
Flags: HW
LayerCount: 2
Fore
SplineSet
505 460 m 1
 85 -220 l 1
 46 -220 l 1
 204 36 l 1
 87 460 l 1
 129 460 l 1
 237 49 l 1
 218 50 l 1
 466 460 l 1
 505 460 l 1
EndSplineSet
EndChar

StartChar: w
Encoding: 119 119 45
Width: 641
VWidth: 0
Flags: HW
LayerCount: 2
Fore
SplineSet
672 460 m 1
 711 460 l 1
 460 -22 l 1
 461 46 l 1
 672 460 l 1
379 417 m 1
 401 482 l 1
 479 46 l 1
 460 -22 l 1
 379 417 l 1
401 482 m 1
 401 417 l 1
 174 -22 l 1
 178 46 l 1
 401 482 l 1
92 460 m 1
 131 460 l 1
 196 46 l 1
 174 -22 l 1
 92 460 l 1
EndSplineSet
EndChar

StartChar: v
Encoding: 118 118 46
Width: 427
VWidth: 0
Flags: HW
LayerCount: 2
Fore
SplineSet
87 460 m 1
 128 460 l 1
 224 55 l 1
 462 460 l 1
 502 460 l 1
 210 -22 l 1
 87 460 l 1
EndSplineSet
EndChar

StartChar: x
Encoding: 120 120 47
Width: 394
VWidth: 0
Flags: HW
LayerCount: 2
Fore
SplineSet
417 460 m 1
 459 460 l 1
 259 237 l 1
 388 0 l 1
 346 0 l 1
 234 209 l 1
 48 0 l 1
 6 0 l 1
 219 237 l 1
 97 460 l 1
 139 460 l 1
 244 265 l 1
 417 460 l 1
EndSplineSet
EndChar

StartChar: z
Encoding: 122 122 48
Width: 440
VWidth: 0
Flags: HW
LayerCount: 2
Fore
SplineSet
426 427 m 1
 117 427 l 1
 123 460 l 1
 497 460 l 1
 90 33 l 1
 421 33 l 1
 415 0 l 1
 18 0 l 1
 426 427 l 1
EndSplineSet
EndChar

StartChar: j
Encoding: 106 106 49
Width: 205
VWidth: 0
Flags: HW
LayerCount: 2
Fore
SplineSet
191 679 m 0
 193 693 207 705 222 705 c 0
 237 705 246 693 244 679 c 0
 242 665 228 653 213 653 c 0
 198 653 189 665 191 679 c 0
-94 -146 m 1
 -83 -167 -62 -185 -33 -185 c 0
 29 -185 56 -131 67 -71 c 2
 161 460 l 1
 196 460 l 1
 102 -74 l 2
 87 -157 43 -220 -41 -220 c 0
 -84 -220 -108 -195 -119 -175 c 1
 -94 -146 l 1
EndSplineSet
EndChar

StartChar: P
Encoding: 80 80 50
Width: 504
VWidth: 0
Flags: HW
LayerCount: 2
Fore
SplineSet
209 700 m 1
 247 700 l 1
 124 0 l 1
 86 0 l 1
 209 700 l 1
225 665 m 1
 231 700 l 1
 358 700 l 2
 487 700 568 624 545 495 c 0
 522 366 415 289 286 289 c 2
 159 289 l 1
 165 324 l 1
 292 324 l 2
 401 324 488 385 507 495 c 0
 526 605 461 665 352 665 c 2
 225 665 l 1
EndSplineSet
EndChar

StartChar: U
Encoding: 85 85 51
Width: 594
VWidth: 0
Flags: HW
LayerCount: 2
Fore
SplineSet
204 700 m 1
 242 700 l 1
 158 224 l 2
 136 102 189 26 302 26 c 0
 415 26 492 102 514 224 c 2
 598 700 l 1
 636 700 l 1
 552 224 l 2
 527 85 434 -10 295 -10 c 0
 156 -10 95 85 120 224 c 2
 204 700 l 1
EndSplineSet
EndChar

StartChar: S
Encoding: 83 83 52
Width: 509
VWidth: 0
Flags: HW
LayerCount: 2
Fore
SplineSet
108 207 m 1
 124 116 165 27 274 27 c 0
 386 27 441 90 457 178 c 0
 474 276 396 323 323 352 c 0
 252 380 154 434 174 545 c 0
 192 645 286 709 387 709 c 0
 500 709 548 625 557 554 c 1
 523 536 l 1
 511 600 477 672 381 672 c 0
 298 672 227 619 213 542 c 0
 197 454 280 410 359 378 c 0
 434 349 517 295 497 180 c 0
 478 74 405 -9 266 -9 c 0
 145 -9 89 85 73 189 c 1
 108 207 l 1
EndSplineSet
EndChar

StartChar: at
Encoding: 64 64 53
Width: 770
VWidth: 0
Flags: HW
LayerCount: 2
Fore
SplineSet
290 320 m 0
 277 245 311 194 376 194 c 0
 448 194 527 264 546 370 c 0
 558 439 529 497 466 497 c 0
 395 497 310 435 290 320 c 0
256 319 m 0
 281 458 386 529 471 529 c 0
 550 529 584 453 569 368 c 0
 548 248 454 162 365 162 c 0
 291 162 239 220 256 319 c 0
91 320 m 0
 130 539 316 709 540 709 c 0
 748 709 832 549 804 390 c 0
 775 224 658 151 583 151 c 0
 522 151 499 204 526 283 c 1
 522 283 l 9
 603 520 l 1
 638 520 l 1
 556 289 l 2
 554 282 549 265 548 257 c 0
 543 227 543 182 592 182 c 0
 649 182 747 251 772 390 c 0
 798 536 722 678 535 678 c 0
 327 678 159 524 123 320 c 0
 91 138 191 22 373 22 c 4
 474 22 535 47 600 81 c 1
 611 53 l 1
 546 22 487 -9 367 -9 c 4
 159 -9 56 121 91 320 c 0
EndSplineSet
EndChar

StartChar: period
Encoding: 46 46 54
Width: 274
VWidth: 0
Flags: HW
LayerCount: 2
Fore
SplineSet
114 15 m 0
 117 30 130 42 144 42 c 0
 158 42 170 30 167 15 c 0
 164 0 149 -12 135 -12 c 0
 121 -12 111 0 114 15 c 0
EndSplineSet
EndChar

StartChar: comma
Encoding: 44 44 55
Width: 287
VWidth: 0
Flags: HW
LayerCount: 2
Fore
SplineSet
183 100 m 1
 216 86 l 1
 62 -164 l 1
 39 -155 l 1
 183 100 l 1
EndSplineSet
EndChar

StartChar: colon
Encoding: 58 58 56
Width: 300
VWidth: 0
Flags: HW
LayerCount: 2
Fore
SplineSet
114 15 m 0
 117 30 130 42 144 42 c 0
 158 42 170 30 167 15 c 0
 164 0 149 -12 135 -12 c 0
 121 -12 111 0 114 15 c 0
177 375 m 0
 180 390 194 401 208 401 c 0
 222 401 233 390 230 375 c 0
 227 360 212 348 198 348 c 0
 184 348 174 360 177 375 c 0
EndSplineSet
EndChar

StartChar: semicolon
Encoding: 59 59 57
Width: 295
VWidth: 0
Flags: HW
LayerCount: 2
Fore
SplineSet
207 375 m 0
 210 390 224 401 238 401 c 0
 252 401 263 390 260 375 c 0
 257 360 242 348 228 348 c 0
 214 348 204 360 207 375 c 0
183 100 m 1
 216 86 l 1
 62 -164 l 1
 39 -155 l 1
 183 100 l 1
EndSplineSet
EndChar

StartChar: quotedbl
Encoding: 34 34 58
Width: 425
VWidth: 0
Flags: HW
LayerCount: 2
Fore
SplineSet
259 700 m 1
 302 700 l 1
 184 413 l 1
 159 413 l 1
 259 700 l 1
439 700 m 1
 482 700 l 1
 364 413 l 1
 339 413 l 1
 439 700 l 1
EndSplineSet
EndChar

StartChar: exclam
Encoding: 33 33 59
Width: 275
VWidth: 0
Flags: HW
LayerCount: 2
Fore
SplineSet
239 700 m 1
 283 700 l 1
 186 200 l 1
 160 200 l 1
 239 700 l 1
114 15 m 0
 117 30 131 42 145 42 c 0
 159 42 171 30 168 15 c 0
 165 0 150 -12 136 -12 c 0
 122 -12 111 0 114 15 c 0
EndSplineSet
EndChar

StartChar: quotesingle
Encoding: 39 39 60
Width: 245
VWidth: 0
Flags: HW
LayerCount: 2
Fore
SplineSet
259 700 m 1
 302 700 l 1
 184 413 l 1
 159 413 l 1
 259 700 l 1
EndSplineSet
EndChar

StartChar: numbersign
Encoding: 35 35 61
Width: 583
VWidth: 0
Flags: HW
LayerCount: 2
Fore
SplineSet
154 449 m 1
 159 479 l 1
 632 479 l 1
 627 449 l 1
 503 449 l 0
 495 449 l 0
 293 449 l 0
 286 449 l 0
 154 449 l 1
75 226 m 1
 80 256 l 1
 204 256 l 0
 213 256 l 0
 415 256 l 0
 426 256 l 0
 553 256 l 1
 548 226 l 1
 75 226 l 1
588 700 m 1
 621 700 l 1
 328 0 l 1
 295 0 l 1
 394 238 l 0
 398 246 l 0
 487 459 l 0
 491 468 l 0
 588 700 l 1
378 700 m 1
 411 700 l 1
 315 469 l 0
 312 461 l 0
 220 244 l 0
 218 237 l 0
 118 0 l 1
 85 0 l 1
 378 700 l 1
EndSplineSet
EndChar

StartChar: hyphen
Encoding: 45 45 62
Width: 210
VWidth: 0
Flags: HW
LayerCount: 2
Fore
SplineSet
48 242 m 1
 53 275 l 1
 253 275 l 1
 248 242 l 1
 48 242 l 1
EndSplineSet
EndChar

StartChar: dollar
Encoding: 36 36 63
Width: 580
VWidth: 0
Flags: HW
LayerCount: 2
Fore
SplineSet
396 818 m 1
 429 818 l 1
 406 689 l 1
 373 689 l 1
 396 818 l 1
256 16 m 1
 289 16 l 1
 266 -112 l 1
 233 -112 l 1
 256 16 l 1
528 536 m 1
 516 600 482 672 386 672 c 0
 300 672 233 621 219 544 c 0
 203 452 285 409 365 378 c 0
 440 349 522 295 502 180 c 0
 483 74 410 -9 271 -9 c 0
 150 -9 94 85 78 189 c 1
 114 207 l 1
 130 112 171 27 280 27 c 0
 392 27 446 90 462 178 c 0
 479 276 401 322 328 351 c 0
 257 379 160 431 180 546 c 0
 197 642 291 709 392 709 c 0
 505 709 553 625 562 554 c 1
 528 536 l 1
EndSplineSet
EndChar

StartChar: bar
Encoding: 124 124 64
Width: 232
VWidth: 0
Flags: HW
LayerCount: 2
Fore
SplineSet
238 785 m 1
 271 785 l 1
 95 -215 l 1
 62 -215 l 1
 238 785 l 1
EndSplineSet
EndChar

StartChar: zero
Encoding: 48 48 65
Width: 568
VWidth: 0
Flags: HW
LayerCount: 2
Fore
SplineSet
149 350 m 0
 117 171 164 25 288 25 c 0
 412 25 511 171 543 350 c 0
 575 529 527 675 403 675 c 0
 279 675 181 529 149 350 c 0
112 350 m 0
 148 553 265 710 409 710 c 0
 553 710 616 553 580 350 c 0
 544 147 426 -10 282 -10 c 0
 138 -10 76 147 112 350 c 0
EndSplineSet
Substitution2: "Tabular Numbers lookup" uniFF10
EndChar

StartChar: one
Encoding: 49 49 66
Width: 424
VWidth: 0
Flags: HW
LayerCount: 2
Fore
SplineSet
199 621 m 1
 206 660 l 1
 416 707 l 1
 291 0 l 1
 254 0 l 1
 371 661 l 1
 199 621 l 1
EndSplineSet
Substitution2: "Tabular Numbers lookup" uniFF11
EndChar

StartChar: two
Encoding: 50 50 67
Width: 533
VWidth: 0
Flags: HW
LayerCount: 2
Fore
SplineSet
23 0 m 1
 407 341 l 2
 464 391 512 440 525 514 c 0
 538 586 508 676 394 676 c 0
 285 676 198 588 175 460 c 1
 138 460 l 1
 164 609 268 711 400 711 c 0
 541 711 579 600 563 512 c 0
 549 434 495 374 433 320 c 2
 108 35 l 1
 498 35 l 1
 492 0 l 1
 23 0 l 1
EndSplineSet
Substitution2: "Tabular Numbers lookup" uniFF12
EndChar

StartChar: four
Encoding: 52 52 68
Width: 563
VWidth: 0
Flags: HW
LayerCount: 2
Fore
SplineSet
48 140 m 1
 86 173 l 1
 430 173 l 0
 438 173 l 0
 562 173 l 1
 556 140 l 1
 48 140 l 1
88 140 m 1
 48 140 l 1
 531 700 l 25
 544 700 l 1
 421 0 l 1
 384 0 l 1
 411 154 l 0
 412 161 l 0
 492 610 l 1
 88 140 l 1
EndSplineSet
Substitution2: "Tabular Numbers lookup" uniFF14
EndChar

StartChar: slash
Encoding: 47 47 69
Width: 489
VWidth: 0
Flags: HW
LayerCount: 2
Fore
SplineSet
561 700 m 1
 597 700 l 1
 26 -150 l 1
 -11 -150 l 1
 561 700 l 1
EndSplineSet
EndChar

StartChar: backslash
Encoding: 92 92 70
Width: 463
VWidth: 0
Flags: HW
LayerCount: 2
Fore
SplineSet
138 700 m 1
 177 700 l 1
 449 0 l 1
 410 0 l 1
 138 700 l 1
EndSplineSet
EndChar

StartChar: eight
Encoding: 56 56 71
Width: 526
VWidth: 0
Flags: HW
LayerCount: 2
Fore
SplineSet
178 537 m 0
 194 630 284 710 388 710 c 0
 492 710 555 630 539 537 c 0
 521 434 423 363 327 363 c 0
 231 363 160 434 178 537 c 0
213 534 m 0
 198 449 265 388 331 388 c 0
 397 388 487 449 502 534 c 0
 516 613 466 677 382 677 c 0
 298 677 227 613 213 534 c 0
94 187 m 0
 114 303 225 379 330 379 c 0
 435 379 518 303 498 187 c 0
 479 78 386 -10 261 -10 c 0
 136 -10 75 78 94 187 c 0
131 190 m 0
 114 91 168 23 267 23 c 0
 366 23 447 91 464 190 c 0
 481 285 408 354 325 354 c 0
 242 354 148 285 131 190 c 0
EndSplineSet
Substitution2: "Tabular Numbers lookup" uniFF18
EndChar

StartChar: nine
Encoding: 57 57 72
Width: 550
VWidth: 0
Flags: HW
LayerCount: 2
Fore
SplineSet
549 476 m 0
 569 591 506 676 394 676 c 0
 282 676 190 591 170 476 c 0
 151 367 218 284 318 284 c 0
 440 284 531 374 549 476 c 0
220 0 m 1
 174 0 l 1
 465 325 l 1
 467 323 l 1
 422 278 366 256 302 256 c 0
 188 256 112 353 134 476 c 0
 158 614 265 710 400 710 c 0
 535 710 608 614 584 476 c 0
 574 419 540 359 506 322 c 2
 220 0 l 1
EndSplineSet
Substitution2: "Tabular Numbers lookup" uniFF19
EndChar

StartChar: three
Encoding: 51 51 73
Width: 549
VWidth: 0
Flags: HW
LayerCount: 2
Fore
SplineSet
313 356 m 1
 317 381 l 1
 407 381 511 439 527 529 c 0
 541 606 500 676 403 676 c 0
 310 676 237 613 222 526 c 1
 186 526 l 1
 205 635 294 710 409 710 c 0
 529 710 580 623 564 530 c 0
 545 425 429 356 313 356 c 1
278 -10 m 0
 143 -10 77 76 96 185 c 1
 134 185 l 1
 118 93 172 25 284 25 c 0
 390 25 470 90 486 182 c 0
 506 293 401 347 311 347 c 1
 316 372 l 1
 432 372 546 312 523 179 c 0
 503 66 403 -10 278 -10 c 0
EndSplineSet
Substitution2: "Tabular Numbers lookup" uniFF13
EndChar

StartChar: five
Encoding: 53 53 74
Width: 559
VWidth: 0
Flags: HW
LayerCount: 2
Fore
SplineSet
543 230 m 0
 515 71 396 -10 267 -10 c 0
 151 -10 95 51 70 137 c 1
 106 158 l 1
 126 80 178 25 273 25 c 0
 386 25 481 99 504 230 c 0
 524 342 460 419 360 419 c 0
 280 419 217 390 148 327 c 1
 185 371 l 1
 229 418 301 453 379 453 c 0
 493 453 566 363 543 230 c 0
328 667 m 1
 207 380 l 1
 148 327 l 1
 305 700 l 1
 635 700 l 1
 630 667 l 1
 328 667 l 1
EndSplineSet
Substitution2: "Tabular Numbers lookup" uniFF15
EndChar

StartChar: six
Encoding: 54 54 75
Width: 550
VWidth: 0
Flags: HW
LayerCount: 2
Fore
SplineSet
125 224 m 0
 105 109 167 24 279 24 c 0
 391 24 484 109 504 224 c 0
 523 333 455 416 355 416 c 0
 233 416 143 326 125 224 c 0
453 700 m 1
 499 700 l 1
 209 375 l 1
 206 377 l 1
 251 422 307 444 371 444 c 0
 485 444 561 347 539 224 c 0
 515 86 408 -10 273 -10 c 0
 138 -10 65 86 89 224 c 0
 99 281 135 341 169 378 c 2
 453 700 l 1
EndSplineSet
Substitution2: "Tabular Numbers lookup" uniFF16
EndChar

StartChar: seven
Encoding: 55 55 76
Width: 518
VWidth: 0
Flags: HW
LayerCount: 2
Fore
SplineSet
150 665 m 1
 156 700 l 1
 633 700 l 1
 153 0 l 1
 114 0 l 1
 571 665 l 1
 150 665 l 1
EndSplineSet
Substitution2: "Tabular Numbers lookup" uniFF17
EndChar

StartChar: plus
Encoding: 43 43 77
Width: 573
VWidth: 0
Flags: HW
LayerCount: 2
Fore
SplineSet
107 237 m 1
 113 273 l 1
 550 273 l 1
 544 237 l 1
 107 237 l 1
351 487 m 1
 388 487 l 1
 306 23 l 1
 269 23 l 1
 351 487 l 1
EndSplineSet
EndChar

StartChar: equal
Encoding: 61 61 78
Width: 615
VWidth: 0
Flags: HW
LayerCount: 2
Fore
SplineSet
95 169 m 1
 101 202 l 1
 586 202 l 1
 580 169 l 1
 95 169 l 1
118 303 m 1
 124 336 l 1
 609 336 l 1
 603 303 l 1
 118 303 l 1
EndSplineSet
EndChar

StartChar: percent
Encoding: 37 37 79
Width: 719
VWidth: 0
Flags: HW
LayerCount: 2
Fore
SplineSet
133 556 m 0
 148 642 220 710 312 710 c 0
 404 710 451 642 436 556 c 0
 421 470 350 403 258 403 c 0
 166 403 118 470 133 556 c 0
165 556 m 0
 153 489 189 432 263 432 c 0
 337 432 392 489 404 556 c 0
 416 623 381 680 307 680 c 0
 233 680 177 623 165 556 c 0
406 144 m 0
 421 230 492 297 584 297 c 0
 676 297 724 230 709 144 c 0
 694 58 622 -10 530 -10 c 0
 438 -10 391 58 406 144 c 0
438 144 m 0
 426 77 461 19 535 19 c 0
 609 19 665 77 677 144 c 0
 689 211 653 267 579 267 c 0
 505 267 450 211 438 144 c 0
692 700 m 1
 727 700 l 1
 150 0 l 1
 115 0 l 1
 692 700 l 1
EndSplineSet
EndChar

StartChar: ampersand
Encoding: 38 38 80
Width: 675
VWidth: 0
Flags: HW
LayerCount: 2
Fore
SplineSet
71 177 m 1
 108 178 l 1
 90 78 159 23 258 23 c 0
 413 23 534 179 658 316 c 1
 683 299 l 1
 554 159 429 -10 250 -10 c 0
 135 -10 50 58 71 177 c 1
217 569 m 1
 231 650 300 711 400 711 c 0
 499 711 537 638 524 567 c 1
 488 567 l 1
 498 621 472 679 395 679 c 0
 314 679 264 630 253 569 c 1
 217 569 l 1
269 411 m 2
 243 449 204 495 217 569 c 1
 253 569 l 1
 242 507 273 469 300 431 c 2
 601 0 l 1
 559 0 l 1
 269 411 l 2
524 567 m 1
 512 500 450 445 347 389 c 0
 266 345 130 304 108 178 c 1
 71 177 l 1
 97 324 251 372 326 411 c 0
 419 460 478 511 488 567 c 1
 524 567 l 1
EndSplineSet
EndChar

StartChar: question
Encoding: 63 63 81
Width: 547
VWidth: 0
Flags: HW
LayerCount: 2
Fore
SplineSet
210 15 m 0
 213 30 227 42 241 42 c 0
 255 42 267 30 264 15 c 0
 261 0 246 -12 232 -12 c 0
 218 -12 207 0 210 15 c 0
275 345 m 1
 314 345 l 1
 281 170 l 1
 254 170 l 1
 275 345 l 1
529 513 m 0
 546 609 494 677 385 677 c 0
 302 677 244 636 194 574 c 1
 168 593 l 1
 226 663 288 710 394 710 c 0
 519 710 585 626 565 513 c 0
 546 407 427 320 302 320 c 1
 284 345 l 1
 410 345 513 424 529 513 c 0
EndSplineSet
EndChar

StartChar: parenleft
Encoding: 40 40 82
Width: 265
VWidth: 0
Flags: HW
LayerCount: 2
Fore
SplineSet
343 780 m 1
 373 780 l 1
 272 624 210 460 180 290 c 0
 150 120 155 -44 200 -200 c 1
 170 -200 l 1
 116 -50 111 120 141 290 c 0
 171 460 237 630 343 780 c 1
EndSplineSet
EndChar

StartChar: parenright
Encoding: 41 41 83
Width: 265
VWidth: 0
Flags: HW
LayerCount: 2
Fore
SplineSet
25 -200 m 1
 -5 -200 l 1
 96 -44 157 120 187 290 c 0
 217 460 213 624 168 780 c 1
 198 780 l 1
 252 630 256 460 226 290 c 0
 196 120 131 -50 25 -200 c 1
EndSplineSet
EndChar

StartChar: asterisk
Encoding: 42 42 84
Width: 592
VWidth: 0
Flags: HW
LayerCount: 2
Fore
SplineSet
569 590 m 1
 572 558 l 1
 388 507 l 1
 385 529 l 1
 569 590 l 1
484 380 m 1
 454 361 l 1
 377 511 l 1
 398 525 l 1
 484 380 l 1
266 361 m 1
 242 380 l 1
 380 525 l 1
 395 511 l 1
 266 361 l 1
216 558 m 1
 231 590 l 1
 393 529 l 1
 382 507 l 1
 216 558 l 1
403 700 m 1
 435 700 l 1
 398 518 l 1
 376 518 l 1
 403 700 l 1
EndSplineSet
EndChar

StartChar: less
Encoding: 60 60 85
Width: 640
VWidth: 0
Flags: HW
LayerCount: 2
Fore
SplineSet
169 259 m 1
 587 69 l 1
 581 34 l 1
 109 247 l 1
 112 267 l 1
 660 481 l 1
 654 446 l 1
 169 259 l 1
EndSplineSet
EndChar

StartChar: greater
Encoding: 62 62 86
Width: 640
VWidth: 0
Flags: HW
LayerCount: 2
Fore
SplineSet
562 256 m 1
 144 446 l 1
 150 481 l 1
 622 268 l 1
 619 248 l 1
 71 34 l 1
 77 69 l 1
 562 256 l 1
EndSplineSet
EndChar

StartChar: bracketleft
Encoding: 91 91 87
Width: 274
VWidth: 0
Flags: HW
LayerCount: 2
Fore
SplineSet
268 746 m 1
 103 -186 l 1
 221 -186 l 1
 215 -220 l 1
 61 -220 l 1
 238 780 l 1
 392 780 l 1
 386 746 l 1
 268 746 l 1
EndSplineSet
EndChar

StartChar: bracketright
Encoding: 93 93 88
Width: 274
Flags: HW
LayerCount: 2
Fore
SplineSet
106 -186 m 1
 271 746 l 1
 152 746 l 1
 158 780 l 1
 312 780 l 1
 135 -220 l 1
 -19 -220 l 1
 -13 -186 l 1
 106 -186 l 1
EndSplineSet
EndChar

StartChar: asciicircum
Encoding: 94 94 89
Width: 510
VWidth: 0
Flags: HW
LayerCount: 2
Fore
SplineSet
373 667 m 1
 184 460 l 1
 146 460 l 1
 373 710 l 1
 387 710 l 1
 526 460 l 1
 488 460 l 1
 373 667 l 1
EndSplineSet
EndChar

StartChar: underscore
Encoding: 95 95 90
Width: 500
Flags: HW
LayerCount: 2
Fore
SplineSet
-21 -117 m 1
 -16 -91 l 1
 484 -91 l 1
 479 -117 l 1
 -21 -117 l 1
EndSplineSet
EndChar

StartChar: grave
Encoding: 96 96 91
Width: 360
VWidth: 0
Flags: HW
LayerCount: 2
Fore
SplineSet
211 681 m 1
 246 700 l 1
 381 540 l 1
 359 526 l 1
 211 681 l 1
EndSplineSet
EndChar

StartChar: braceleft
Encoding: 123 123 92
Width: 291
VWidth: 0
Flags: HW
LayerCount: 2
Fore
SplineSet
273 647 m 2
 239 452 l 2
 223 363 183 285 125 285 c 1
 127 295 l 1
 185 295 198 217 182 128 c 2
 147 -67 l 2
 134 -138 147 -168 199 -168 c 2
 225 -168 l 1
 220 -200 l 1
 185 -200 l 2
 122 -200 96 -159 113 -60 c 2
 150 150 l 2
 163 226 146 266 118 276 c 1
 123 304 l 1
 155 314 187 354 200 430 c 2
 237 640 l 2
 254 739 295 780 358 780 c 2
 393 780 l 1
 387 748 l 1
 361 748 l 2
 309 748 286 718 273 647 c 2
EndSplineSet
EndChar

StartChar: braceright
Encoding: 125 125 93
Width: 291
VWidth: 0
Flags: HW
LayerCount: 2
Fore
SplineSet
124 -67 m 2
 159 128 l 2
 175 217 214 295 272 295 c 1
 270 285 l 1
 212 285 200 363 216 452 c 2
 250 647 l 2
 263 718 250 748 198 748 c 2
 172 748 l 1
 178 780 l 1
 213 780 l 2
 276 780 301 739 284 640 c 2
 247 430 l 2
 234 354 252 314 280 304 c 1
 275 276 l 1
 243 266 210 226 197 150 c 2
 160 -60 l 2
 143 -159 103 -200 40 -200 c 2
 5 -200 l 1
 10 -168 l 1
 36 -168 l 2
 88 -168 111 -138 124 -67 c 2
EndSplineSet
EndChar

StartChar: asciitilde
Encoding: 126 126 94
Width: 575
VWidth: 0
Flags: HW
LayerCount: 2
Fore
SplineSet
138 177 m 1
 106 181 l 1
 105 188 105 196 107 205 c 0
 112 234 125 262 147 285 c 0
 173 312 208 327 246 327 c 0
 298 327 327 292 353 260 c 0
 374 233 398 205 435 205 c 0
 483 205 512 241 521 292 c 0
 522 300 524 312 522 322 c 1
 556 318 l 1
 557 310 557 300 555 290 c 0
 550 262 540 233 519 211 c 0
 494 185 464 172 430 172 c 0
 383 172 357 203 330 235 c 0
 308 261 283 294 239 294 c 0
 186 294 148 255 138 199 c 0
 137 192 136 185 138 177 c 1
EndSplineSet
EndChar

StartChar: exclamdown
Encoding: 161 161 95
Width: 300
VWidth: 0
Flags: HW
LayerCount: 2
Fore
SplineSet
141 -245 m 1
 97 -245 l 1
 194 255 l 1
 220 255 l 1
 141 -245 l 1
267 440 m 0
 264 425 249 413 235 413 c 0
 221 413 210 425 213 440 c 0
 216 455 230 467 244 467 c 0
 258 467 270 455 267 440 c 0
EndSplineSet
EndChar

StartChar: cent
Encoding: 162 162 96
Width: 580
VWidth: 0
Flags: HW
LayerCount: 2
Fore
SplineSet
305 11 m 1
 330 11 l 1
 312 -112 l 1
 280 -112 l 1
 305 11 l 1
161 230 m 0
 140 112 209 23 323 23 c 0
 397 23 465 61 492 93 c 1
 485 49 l 1
 454 19 386 -10 317 -10 c 0
 184 -10 100 91 125 230 c 0
 150 369 269 470 402 470 c 0
 471 470 528 440 548 411 c 1
 541 367 l 1
 526 399 470 437 396 437 c 0
 282 437 182 348 161 230 c 0
402 578 m 1
 434 578 l 1
 407 450 l 1
 382 450 l 1
 402 578 l 1
EndSplineSet
EndChar

StartChar: sterling
Encoding: 163 163 97
Width: 580
VWidth: 0
Flags: HW
LayerCount: 2
Fore
SplineSet
138 328 m 1
 466 328 l 1
 460 295 l 1
 132 295 l 1
 138 328 l 1
557 491 m 1
 567 568 542 674 434 674 c 0
 347 674 274 610 260 531 c 0
 239 410 345 373 326 264 c 0
 307 158 176 55 127 18 c 1
 128 35 l 1
 510 35 l 1
 504 0 l 1
 83 0 l 1
 186 102 273 171 289 259 c 0
 306 358 200 401 223 531 c 0
 241 631 327 710 440 710 c 0
 573 710 600 582 591 502 c 1
 557 491 l 1
EndSplineSet
EndChar

StartChar: currency
Encoding: 164 164 98
Width: 567
VWidth: 0
Flags: HW
LayerCount: 2
Fore
SplineSet
141 516 m 1
 169 540 l 1
 230 465 l 1
 203 442 l 1
 141 516 l 1
85 60 m 1
 65 84 l 1
 153 158 l 1
 172 135 l 1
 85 60 l 1
527 442 m 1
 507 465 l 1
 594 540 l 1
 614 516 l 1
 527 442 l 1
449 135 m 1
 477 158 l 1
 538 84 l 1
 510 60 l 1
 449 135 l 1
105 300 m 0
 130 439 250 540 379 540 c 0
 508 540 593 439 568 300 c 0
 543 161 424 60 295 60 c 0
 166 60 80 161 105 300 c 0
141 300 m 0
 120 182 191 93 300 93 c 0
 409 93 511 182 532 300 c 0
 553 418 482 507 373 507 c 0
 264 507 162 418 141 300 c 0
EndSplineSet
EndChar

StartChar: yen
Encoding: 165 165 99
Width: 570
VWidth: 0
Flags: HW
LayerCount: 2
Fore
SplineSet
308 306 m 1
 346 306 l 1
 292 0 l 1
 254 0 l 1
 308 306 l 1
609 700 m 1
 651 700 l 1
 316 246 l 1
 148 700 l 1
 190 700 l 1
 329 315 l 1
 609 700 l 1
60 143 m 1
 66 177 l 1
 546 177 l 1
 540 143 l 1
 60 143 l 1
84 277 m 1
 90 311 l 1
 570 311 l 1
 564 277 l 1
 84 277 l 1
EndSplineSet
EndChar

StartChar: brokenbar
Encoding: 166 166 100
Width: 232
VWidth: 0
Flags: HW
LayerCount: 2
Fore
SplineSet
223 695 m 1
 256 695 l 1
 213 455 l 1
 180 455 l 1
 223 695 l 1
176 245 m 1
 134 5 l 1
 101 5 l 1
 143 245 l 1
 176 245 l 1
EndSplineSet
EndChar

StartChar: section
Encoding: 167 167 101
Width: 401
VWidth: 0
Flags: HW
LayerCount: 2
Fore
SplineSet
446 603 m 1
 434 648 378 676 324 676 c 0
 271 676 209 652 199 595 c 0
 189 538 273 512 320 491 c 0
 380 464 448 431 436 364 c 0
 421 278 348 240 249 240 c 1
 252 253 l 1
 330 263 389 302 399 361 c 0
 409 417 339 447 290 468 c 0
 231 493 150 518 164 595 c 0
 177 671 256 710 330 710 c 0
 403 710 468 671 477 620 c 1
 446 603 l 1
84 139 m 1
 85 77 143 23 219 23 c 0
 275 23 342 42 354 108 c 0
 366 177 297 201 242 226 c 0
 184 252 109 288 122 359 c 0
 133 422 196 480 310 480 c 1
 308 470 l 1
 220 456 166 410 158 363 c 0
 147 299 226 271 273 250 c 0
 333 223 406 191 392 111 c 0
 377 25 297 -10 211 -10 c 0
 126 -10 53 48 52 123 c 1
 84 139 l 1
EndSplineSet
EndChar

StartChar: dieresis
Encoding: 168 168 102
Width: 438
VWidth: 0
Flags: HW
LayerCount: 2
Fore
SplineSet
413 679 m 0
 416 694 429 705 443 705 c 0
 457 705 470 694 467 679 c 0
 464 664 448 652 434 652 c 0
 420 652 410 664 413 679 c 0
213 679 m 0
 216 694 229 705 243 705 c 0
 257 705 270 694 267 679 c 0
 264 664 248 652 234 652 c 0
 220 652 210 664 213 679 c 0
EndSplineSet
EndChar

StartChar: copyright
Encoding: 169 169 103
Width: 800
VWidth: 0
Flags: HW
LayerCount: 2
Fore
SplineSet
275 350 m 0
 255 238 315 158 419 158 c 0
 478 158 524 177 563 212 c 1
 558 182 l 1
 518 151 476 134 415 134 c 0
 299 134 229 225 251 350 c 0
 273 475 375 566 491 566 c 0
 552 566 587 549 617 518 c 1
 612 488 l 1
 586 523 544 542 487 542 c 0
 384 542 295 464 275 350 c 0
128 350 m 0
 94 156 216 14 402 14 c 0
 588 14 762 156 796 350 c 0
 830 544 707 686 521 686 c 0
 335 686 162 544 128 350 c 0
102 350 m 0
 139 559 321 710 525 710 c 0
 729 710 859 559 822 350 c 0
 785 141 602 -10 398 -10 c 0
 194 -10 65 141 102 350 c 0
EndSplineSet
EndChar

StartChar: registered
Encoding: 174 174 104
Width: 800
VWidth: 0
Flags: HW
LayerCount: 2
Fore
SplineSet
421 346 m 1
 446 346 l 1
 550 150 l 1
 522 150 l 1
 421 346 l 1
391 570 m 1
 414 570 l 1
 339 150 l 1
 316 150 l 1
 391 570 l 1
399 549 m 1
 403 570 l 1
 477 570 l 2
 558 570 611 527 597 450 c 0
 583 373 515 331 434 331 c 2
 360 331 l 1
 364 351 l 1
 438 351 l 2
 508 351 563 384 575 450 c 0
 587 516 543 549 473 549 c 2
 399 549 l 1
128 350 m 0
 94 156 216 14 402 14 c 0
 588 14 762 156 796 350 c 0
 830 544 707 686 521 686 c 0
 335 686 162 544 128 350 c 0
102 350 m 0
 139 559 321 710 525 710 c 0
 729 710 859 559 822 350 c 0
 785 141 602 -10 398 -10 c 0
 194 -10 65 141 102 350 c 0
EndSplineSet
EndChar

StartChar: ordfeminine
Encoding: 170 170 105
Width: 238
VWidth: 0
Flags: HW
LayerCount: 2
Fore
SplineSet
134 529 m 0
 127 490 152 471 188 471 c 0
 229 471 269 501 277 544 c 1
 280 535 l 1
 272 491 231 455 181 455 c 0
 142 455 108 478 117 529 c 0
 125 577 177 605 224 605 c 0
 265 605 282 588 290 580 c 1
 288 567 l 1
 274 580 253 591 221 591 c 0
 181 591 141 568 134 529 c 0
169 656 m 1
 161 670 l 1
 181 685 211 702 249 702 c 0
 296 702 318 673 310 629 c 2
 280 460 l 1
 262 460 l 1
 292 629 l 2
 298 665 282 686 246 686 c 0
 213 686 187 670 169 656 c 1
EndSplineSet
EndChar

StartChar: ordmasculine
Encoding: 186 186 106
Width: 278
VWidth: 0
Flags: HW
LayerCount: 2
Fore
SplineSet
122 580 m 0
 134 650 194 700 262 700 c 0
 330 700 372 650 360 580 c 0
 348 510 288 460 220 460 c 0
 152 460 110 510 122 580 c 0
143 580 m 0
 133 521 169 480 224 480 c 0
 279 480 329 521 339 580 c 0
 349 639 314 680 259 680 c 0
 204 680 153 639 143 580 c 0
EndSplineSet
EndChar

StartChar: guillemotleft
Encoding: 171 171 107
Width: 494
VWidth: 0
Flags: HW
LayerCount: 2
Fore
SplineSet
116 248 m 1
 85 255 l 1
 327 490 l 1
 347 469 l 1
 116 248 l 1
85 255 m 1
 119 266 l 1
 271 41 l 1
 245 20 l 1
 85 255 l 1
276 248 m 1
 245 255 l 1
 487 490 l 1
 507 469 l 1
 276 248 l 1
245 255 m 1
 279 266 l 1
 431 41 l 1
 405 20 l 1
 245 255 l 1
EndSplineSet
EndChar

StartChar: guillemotright
Encoding: 187 187 108
Width: 494
VWidth: 0
Flags: HW
LayerCount: 2
Fore
SplineSet
468 262 m 1
 499 255 l 1
 257 20 l 1
 237 41 l 1
 468 262 l 1
499 255 m 1
 465 244 l 1
 313 469 l 1
 339 490 l 1
 499 255 l 1
308 262 m 1
 339 255 l 1
 97 20 l 1
 77 41 l 1
 308 262 l 1
339 255 m 1
 305 244 l 1
 153 469 l 1
 179 490 l 1
 339 255 l 1
EndSplineSet
EndChar

StartChar: uni00AD
Encoding: 173 173 109
Width: 210
VWidth: 0
Flags: HW
LayerCount: 2
Fore
SplineSet
48 242 m 1
 53 275 l 1
 253 275 l 1
 248 242 l 1
 48 242 l 1
EndSplineSet
EndChar

StartChar: logicalnot
Encoding: 172 172 110
Width: 620
VWidth: 0
Flags: HW
LayerCount: 2
Fore
SplineSet
125 342 m 1
 131 375 l 1
 621 375 l 1
 615 342 l 1
 125 342 l 1
588 375 m 1
 621 375 l 1
 586 175 l 1
 553 175 l 1
 588 375 l 1
EndSplineSet
EndChar

StartChar: macron
Encoding: 175 175 111
Width: 510
VWidth: 0
Flags: HW
LayerCount: 2
Fore
SplineSet
193 642 m 1
 199 675 l 1
 549 675 l 1
 543 642 l 1
 193 642 l 1
EndSplineSet
EndChar

StartChar: degree
Encoding: 176 176 112
Width: 278
VWidth: 0
Flags: HW
LayerCount: 2
Fore
SplineSet
126 600 m 0
 138 670 198 720 266 720 c 0
 334 720 376 670 364 600 c 0
 352 530 292 480 224 480 c 0
 156 480 114 530 126 600 c 0
147 600 m 0
 137 541 172 500 227 500 c 0
 282 500 333 541 343 600 c 0
 353 659 317 700 262 700 c 0
 207 700 157 659 147 600 c 0
EndSplineSet
EndChar

StartChar: plusminus
Encoding: 177 177 113
Width: 611
VWidth: 0
Flags: HW
LayerCount: 2
Fore
SplineSet
65 0 m 1
 71 35 l 1
 553 35 l 1
 547 0 l 1
 65 0 l 1
130 367 m 1
 136 403 l 1
 618 403 l 1
 612 367 l 1
 130 367 l 1
396 620 m 1
 433 620 l 1
 350 150 l 1
 313 150 l 1
 396 620 l 1
EndSplineSet
EndChar

StartChar: uni00B2
Encoding: 178 178 114
Width: 336
VWidth: 0
Flags: HW
LayerCount: 2
Fore
SplineSet
78 282 m 1
 309 487 l 2
 342 517 371 547 379 591 c 0
 387 634 368 688 300 688 c 0
 235 688 183 635 169 558 c 1
 147 558 l 1
 163 647 225 709 304 709 c 0
 388 709 410 642 401 590 c 0
 393 543 361 506 324 474 c 2
 129 303 l 1
 362 303 l 1
 359 282 l 1
 78 282 l 1
EndSplineSet
EndChar

StartChar: uni00B3
Encoding: 179 179 115
Width: 309
VWidth: 0
Flags: HW
LayerCount: 2
Fore
SplineSet
228 493 m 1
 231 509 l 1
 285 509 346 544 356 598 c 0
 364 644 341 686 283 686 c 0
 228 686 182 649 173 596 c 1
 151 596 l 1
 162 661 217 706 286 706 c 0
 358 706 388 653 378 598 c 0
 367 535 298 493 228 493 c 1
207 274 m 0
 126 274 86 326 97 391 c 1
 120 391 l 1
 110 335 144 295 211 295 c 0
 275 295 322 333 332 389 c 0
 344 456 281 488 227 488 c 1
 230 503 l 1
 300 503 367 466 353 387 c 0
 341 320 282 274 207 274 c 0
EndSplineSet
EndChar

StartChar: acute
Encoding: 180 180 116
Width: 360
VWidth: 0
Flags: HW
LayerCount: 2
Fore
SplineSet
390 681 m 1
 187 526 l 1
 170 540 l 1
 361 700 l 1
 390 681 l 1
EndSplineSet
EndChar

StartChar: mu
Encoding: 181 181 117
Width: 493
VWidth: 0
Flags: HW
LayerCount: 2
Fore
SplineSet
376 0 m 1
 457 460 l 1
 493 460 l 1
 412 0 l 1
 376 0 l 1
145 161 m 2
 130 75 154 23 235 23 c 0
 318 23 393 95 408 180 c 1
 425 180 l 1
 406 71 316 -10 221 -10 c 0
 126 -10 90 51 109 157 c 2
 162 460 l 1
 198 460 l 1
 145 161 l 2
162 460 m 1
 198 460 l 1
 61 -320 l 1
 25 -320 l 1
 162 460 l 1
EndSplineSet
EndChar

StartChar: paragraph
Encoding: 182 182 118
Width: 494
VWidth: 0
Flags: HW
LayerCount: 2
Fore
SplineSet
406 670 m 1
 411 700 l 1
 547 700 l 1
 542 670 l 1
 406 670 l 1
526 700 m 1
 558 700 l 1
 396 -220 l 1
 364 -220 l 1
 526 700 l 1
411 700 m 1
 443 700 l 1
 281 -220 l 1
 249 -220 l 1
 411 700 l 1
336 270 m 1
 211 270 121 346 146 485 c 0
 171 624 286 700 411 700 c 1
 336 270 l 1
EndSplineSet
EndChar

StartChar: periodcentered
Encoding: 183 183 119
Width: 262
VWidth: 0
Flags: HW
LayerCount: 2
Fore
SplineSet
145 228 m 0
 148 243 162 255 176 255 c 0
 190 255 201 243 198 228 c 0
 195 213 180 201 166 201 c 0
 152 201 142 213 145 228 c 0
EndSplineSet
EndChar

StartChar: uni00B9
Encoding: 185 185 120
Width: 470
VWidth: 0
Flags: HW
LayerCount: 2
Fore
SplineSet
260 646 m 1
 264 670 l 1
 390 698 l 1
 315 274 l 1
 293 274 l 1
 363 671 l 1
 260 646 l 1
EndSplineSet
EndChar

StartChar: cedilla
Encoding: 184 184 121
Width: 350
Flags: HW
LayerCount: 2
Fore
SplineSet
187 22 m 1
 217 22 l 1
 142 -68 l 1
 100 -95 l 1
 187 22 l 1
253 -126 m 1
 226 -126 l 1
 233 -89 208 -72 177 -72 c 0
 154 -72 126 -79 100 -95 c 1
 126 -73 l 1
 155 -57 167 -52 193 -52 c 0
 226 -52 262 -77 253 -126 c 1
253 -126 m 1
 242 -187 184 -220 129 -220 c 0
 92 -220 70 -210 47 -182 c 1
 67 -164 l 1
 88 -185 103 -194 134 -194 c 0
 176 -194 218 -171 226 -126 c 1
 253 -126 l 1
EndSplineSet
EndChar

StartChar: questiondown
Encoding: 191 191 122
Width: 547
VWidth: 0
Flags: HW
LayerCount: 2
Fore
SplineSet
461 685 m 0
 458 670 443 658 429 658 c 0
 415 658 405 670 408 685 c 0
 411 700 425 712 439 712 c 0
 453 712 464 700 461 685 c 0
397 355 m 1
 357 355 l 1
 390 530 l 1
 416 530 l 1
 397 355 l 1
142 187 m 0
 125 91 177 23 286 23 c 0
 369 23 427 64 477 126 c 1
 503 107 l 1
 445 37 382 -10 276 -10 c 0
 151 -10 86 74 106 187 c 0
 125 293 244 380 369 380 c 1
 388 355 l 1
 262 355 158 276 142 187 c 0
EndSplineSet
EndChar

StartChar: multiply
Encoding: 215 215 123
Width: 584
VWidth: 0
Flags: HW
LayerCount: 2
Fore
SplineSet
107 38 m 1
 86 62 l 1
 315 255 l 1
 154 448 l 1
 182 472 l 1
 341 277 l 1
 568 472 l 1
 589 448 l 1
 359 255 l 1
 520 62 l 1
 492 38 l 1
 333 232 l 1
 107 38 l 1
EndSplineSet
EndChar

StartChar: Oslash
Encoding: 216 216 124
Width: 790
VWidth: 0
Flags: HW
LayerCount: 2
Fore
SplineSet
148 350 m 0
 115 165 218 29 395 29 c 0
 572 29 723 165 756 350 c 0
 789 535 685 671 508 671 c 0
 331 671 181 535 148 350 c 0
108 350 m 0
 144 557 317 709 515 709 c 0
 713 709 832 557 796 350 c 0
 760 143 586 -9 388 -9 c 0
 190 -9 72 143 108 350 c 0
834 739 m 1
 858 721 l 1
 75 -39 l 1
 52 -21 l 1
 834 739 l 1
EndSplineSet
EndChar

StartChar: Thorn
Encoding: 222 222 125
Width: 530
VWidth: 0
Flags: HW
LayerCount: 2
Fore
SplineSet
276 140 m 1
 282 175 l 1
 394 175 494 245 513 350 c 0
 533 462 456 525 344 525 c 1
 350 560 l 1
 485 560 574 479 551 350 c 0
 528 221 411 140 276 140 c 1
125 140 m 1
 131 175 l 1
 282 175 l 1
 276 140 l 1
 125 140 l 1
193 525 m 1
 199 560 l 1
 350 560 l 1
 344 525 l 1
 193 525 l 1
203 700 m 1
 240 700 l 1
 117 0 l 1
 80 0 l 1
 203 700 l 1
EndSplineSet
EndChar

StartChar: divide
Encoding: 247 247 126
Width: 623
Flags: HW
LayerCount: 2
Fore
SplineSet
362 450 m 0
 365 465 380 478 394 478 c 0
 408 478 419 465 416 450 c 0
 413 435 399 424 385 424 c 0
 371 424 359 435 362 450 c 0
291 45 m 0
 294 60 309 72 323 72 c 0
 337 72 348 60 345 45 c 0
 342 30 327 18 313 18 c 0
 299 18 288 30 291 45 c 0
101 231 m 1
 107 267 l 1
 607 267 l 1
 601 231 l 1
 101 231 l 1
EndSplineSet
EndChar

StartChar: oslash
Encoding: 248 248 127
Width: 546
VWidth: 0
Flags: HW
LayerCount: 2
Fore
SplineSet
82 230 m 0
 107 369 226 470 359 470 c 0
 492 470 577 369 552 230 c 0
 527 91 407 -10 274 -10 c 0
 141 -10 57 91 82 230 c 0
118 230 m 0
 97 110 168 23 280 23 c 0
 392 23 495 110 516 230 c 0
 537 350 465 437 353 437 c 0
 241 437 139 350 118 230 c 0
538 495 m 1
 560 485 l 1
 77 -39 l 1
 56 -29 l 1
 538 495 l 1
EndSplineSet
EndChar

StartChar: circumflex
Encoding: 710 710 128
Width: 480
VWidth: 0
Flags: HW
LayerCount: 2
Fore
SplineSet
362 692 m 1
 204 571 l 1
 184 590 l 1
 369 730 l 1
 504 590 l 1
 478 571 l 1
 362 692 l 1
EndSplineSet
EndChar

StartChar: ogonek
Encoding: 731 731 129
Width: 253
VWidth: 0
Flags: HW
LayerCount: 2
Fore
SplineSet
176 -157 m 1
 189 -180 l 1
 170 -200 130 -220 87 -220 c 0
 16 -220 -16 -186 -7 -133 c 1
 29 -126 l 1
 22 -168 52 -188 95 -188 c 0
 130 -188 159 -173 176 -157 c 1
29 -126 m 1
 -7 -133 l 1
 4 -68 88 -21 164 15 c 1
 181 0 l 1
 114 -28 38 -76 29 -126 c 1
EndSplineSet
EndChar

StartChar: tilde
Encoding: 732 732 130
Width: 530
VWidth: 0
Flags: HW
LayerCount: 2
Fore
SplineSet
240 641 m 1
 250 677 284 707 329 707 c 0
 388 707 390 660 444 660 c 0
 469 660 486 676 509 708 c 1
 528 691 l 1
 505 654 474 630 437 630 c 0
 382 630 369 677 324 677 c 0
 283 677 266 647 262 626 c 1
 240 641 l 1
EndSplineSet
EndChar

StartChar: ring
Encoding: 730 730 131
Width: 278
VWidth: 0
Flags: HW
LayerCount: 2
Fore
SplineSet
175 785 m 0
 186 845 243 885 295 885 c 0
 347 885 390 845 379 785 c 0
 368 725 312 685 260 685 c 0
 208 685 164 725 175 785 c 0
200 785 m 0
 192 739 224 708 264 708 c 0
 304 708 346 739 354 785 c 0
 362 831 331 862 291 862 c 0
 251 862 208 831 200 785 c 0
EndSplineSet
EndChar

StartChar: dotaccent
Encoding: 729 729 132
Width: 262
VWidth: 0
Flags: HW
LayerCount: 2
Fore
SplineSet
240 765 m 0
 243 780 257 792 271 792 c 0
 285 792 296 780 293 765 c 0
 290 750 275 738 261 738 c 0
 247 738 237 750 240 765 c 0
EndSplineSet
EndChar

StartChar: uni2010
Encoding: 8208 8208 133
Width: 210
VWidth: 0
Flags: HW
LayerCount: 2
Fore
SplineSet
48 242 m 1
 53 275 l 1
 253 275 l 1
 248 242 l 1
 48 242 l 1
EndSplineSet
EndChar

StartChar: endash
Encoding: 8211 8211 134
Width: 740
VWidth: 0
Flags: HW
LayerCount: 2
Fore
SplineSet
113 242 m 1
 118 275 l 1
 718 275 l 1
 713 242 l 1
 113 242 l 1
EndSplineSet
EndChar

StartChar: figuredash
Encoding: 8210 8210 135
Width: 590
VWidth: 0
Flags: HW
LayerCount: 2
Fore
SplineSet
113 242 m 1
 118 275 l 1
 568 275 l 1
 563 242 l 1
 113 242 l 1
EndSplineSet
EndChar

StartChar: emdash
Encoding: 8212 8212 136
Width: 890
VWidth: 0
Flags: HW
LayerCount: 2
Fore
SplineSet
113 242 m 1
 118 275 l 1
 868 275 l 1
 863 242 l 1
 113 242 l 1
EndSplineSet
EndChar

StartChar: minus
Encoding: 8722 8722 137
Width: 590
VWidth: 0
Flags: HW
LayerCount: 2
Fore
SplineSet
113 242 m 1
 118 275 l 1
 568 275 l 1
 563 242 l 1
 113 242 l 1
EndSplineSet
EndChar

StartChar: quoteright
Encoding: 8217 8217 138
Width: 255
VWidth: 0
Flags: HW
LayerCount: 2
Fore
SplineSet
273 700 m 1
 315 700 l 1
 178 470 l 1
 152 470 l 1
 273 700 l 1
EndSplineSet
EndChar

StartChar: quoteleft
Encoding: 8216 8216 139
Width: 243
VWidth: 0
Flags: HW
LayerCount: 2
Fore
SplineSet
189 470 m 1
 147 470 l 1
 283 700 l 1
 310 700 l 1
 189 470 l 1
EndSplineSet
EndChar

StartChar: quotesinglbase
Encoding: 8218 8218 140
Width: 255
VWidth: 0
Flags: HW
LayerCount: 2
Fore
SplineSet
155 80 m 1
 197 80 l 1
 60 -150 l 1
 34 -150 l 1
 155 80 l 1
EndSplineSet
EndChar

StartChar: quotedblleft
Encoding: 8220 8220 141
Width: 417
VWidth: 0
Flags: HW
LayerCount: 2
Fore
SplineSet
201 470 m 1
 159 470 l 1
 296 700 l 1
 322 700 l 1
 201 470 l 1
363 470 m 1
 321 470 l 1
 458 700 l 1
 484 700 l 1
 363 470 l 1
EndSplineSet
EndChar

StartChar: quotedblright
Encoding: 8221 8221 142
Width: 417
VWidth: 0
Flags: HW
LayerCount: 2
Fore
SplineSet
260 700 m 1
 302 700 l 1
 166 470 l 1
 139 470 l 1
 260 700 l 1
422 700 m 1
 464 700 l 1
 327 470 l 1
 301 470 l 1
 422 700 l 1
EndSplineSet
EndChar

StartChar: perthousand
Encoding: 8240 8240 143
Width: 1092
VWidth: 0
Flags: HW
LayerCount: 2
Fore
SplineSet
779 144 m 0
 794 230 866 297 958 297 c 0
 1050 297 1098 230 1083 144 c 0
 1068 58 996 -10 904 -10 c 0
 812 -10 764 58 779 144 c 0
812 144 m 0
 800 77 835 19 909 19 c 0
 983 19 1038 77 1050 144 c 0
 1062 211 1027 267 953 267 c 0
 879 267 824 211 812 144 c 0
133 556 m 0
 148 642 220 710 312 710 c 0
 404 710 451 642 436 556 c 0
 421 470 350 403 258 403 c 0
 166 403 118 470 133 556 c 0
165 556 m 0
 153 489 189 432 263 432 c 0
 337 432 392 489 404 556 c 0
 416 623 381 680 307 680 c 0
 233 680 177 623 165 556 c 0
406 144 m 0
 421 230 492 297 584 297 c 0
 676 297 724 230 709 144 c 0
 694 58 622 -10 530 -10 c 0
 438 -10 391 58 406 144 c 0
438 144 m 0
 426 77 461 19 535 19 c 0
 609 19 665 77 677 144 c 0
 689 211 653 267 579 267 c 0
 505 267 450 211 438 144 c 0
692 700 m 1
 727 700 l 1
 150 0 l 1
 115 0 l 1
 692 700 l 1
EndSplineSet
EndChar

StartChar: guilsinglleft
Encoding: 8249 8249 144
Width: 334
VWidth: 0
Flags: HW
LayerCount: 2
Fore
SplineSet
116 248 m 1
 85 255 l 1
 327 490 l 1
 347 469 l 1
 116 248 l 1
85 255 m 1
 119 266 l 1
 271 41 l 1
 245 20 l 1
 85 255 l 1
EndSplineSet
EndChar

StartChar: guilsinglright
Encoding: 8250 8250 145
Width: 350
VWidth: 0
Flags: HW
LayerCount: 2
Fore
SplineSet
324 262 m 1
 355 255 l 1
 113 20 l 1
 93 41 l 1
 324 262 l 1
355 255 m 1
 321 244 l 1
 169 469 l 1
 195 490 l 1
 355 255 l 1
EndSplineSet
EndChar

StartChar: uni2031
Encoding: 8241 8241 146
Width: 1466
VWidth: 0
Flags: HW
LayerCount: 2
Fore
SplineSet
1153 144 m 0
 1168 230 1240 297 1332 297 c 0
 1424 297 1471 230 1456 144 c 0
 1441 58 1370 -10 1278 -10 c 0
 1186 -10 1138 58 1153 144 c 0
1185 144 m 0
 1173 77 1209 19 1283 19 c 0
 1357 19 1412 77 1424 144 c 0
 1436 211 1401 267 1327 267 c 0
 1253 267 1197 211 1185 144 c 0
779 144 m 0
 794 230 866 297 958 297 c 0
 1050 297 1098 230 1083 144 c 0
 1068 58 996 -10 904 -10 c 0
 812 -10 764 58 779 144 c 0
812 144 m 0
 800 77 835 19 909 19 c 0
 983 19 1038 77 1050 144 c 0
 1062 211 1027 267 953 267 c 0
 879 267 824 211 812 144 c 0
133 556 m 0
 148 642 220 710 312 710 c 0
 404 710 451 642 436 556 c 0
 421 470 350 403 258 403 c 0
 166 403 118 470 133 556 c 0
165 556 m 0
 153 489 189 432 263 432 c 0
 337 432 392 489 404 556 c 0
 416 623 381 680 307 680 c 0
 233 680 177 623 165 556 c 0
406 144 m 0
 421 230 492 297 584 297 c 0
 676 297 724 230 709 144 c 0
 694 58 622 -10 530 -10 c 0
 438 -10 391 58 406 144 c 0
438 144 m 0
 426 77 461 19 535 19 c 0
 609 19 665 77 677 144 c 0
 689 211 653 267 579 267 c 0
 505 267 450 211 438 144 c 0
692 700 m 1
 727 700 l 1
 150 0 l 1
 115 0 l 1
 692 700 l 1
EndSplineSet
EndChar

StartChar: uni203D
Encoding: 8253 8253 147
Width: 557
VWidth: 0
Flags: HW
LayerCount: 2
Fore
SplineSet
529 513 m 0
 546 609 494 677 385 677 c 0
 302 677 244 636 194 574 c 1
 168 593 l 1
 226 663 288 710 394 710 c 0
 519 710 585 626 565 513 c 0
 546 407 433 320 321 320 c 1
 303 345 l 1
 417 345 513 424 529 513 c 0
322 510 m 1
 365 510 l 1
 296 170 l 1
 271 170 l 1
 322 510 l 1
230 15 m 0
 233 30 246 42 260 42 c 0
 274 42 286 30 283 15 c 0
 280 0 265 -12 251 -12 c 0
 237 -12 227 0 230 15 c 0
EndSplineSet
EndChar

StartChar: Euro
Encoding: 8364 8364 148
Width: 656
VWidth: 0
Flags: HW
LayerCount: 2
Fore
SplineSet
129 431 m 1
 133 455 l 1
 634 455 l 1
 630 431 l 1
 129 431 l 1
108 311 m 1
 112 335 l 1
 587 335 l 1
 583 311 l 1
 108 311 l 1
220 350 m 0
 186 160 263 25 412 25 c 0
 469 25 524 43 571 76 c 1
 563 31 l 1
 513 5 460 -10 406 -10 c 0
 232 -10 146 141 183 350 c 0
 220 559 359 710 533 710 c 0
 587 710 636 695 676 669 c 1
 668 624 l 1
 633 657 584 675 527 675 c 0
 372 675 254 540 220 350 c 0
EndSplineSet
EndChar

StartChar: fraction
Encoding: 8260 8260 149
Width: 705
VWidth: 0
Flags: HW
LayerCount: 2
Fore
SplineSet
737 700 m 1
 768 700 l 1
 91 0 l 1
 60 0 l 1
 737 700 l 1
EndSplineSet
EndChar

StartChar: onequarter
Encoding: 188 188 150
Width: 754
VWidth: 0
Flags: HW
LayerCount: 2
Fore
SplineSet
775 700 m 1
 806 700 l 1
 129 0 l 1
 98 0 l 1
 775 700 l 1
138 646 m 1
 142 670 l 1
 268 698 l 1
 193 274 l 1
 171 274 l 1
 241 671 l 1
 138 646 l 1
415 84 m 1
 437 104 l 1
 643 104 l 0
 648 104 l 0
 723 104 l 1
 720 84 l 1
 415 84 l 1
439 84 m 1
 415 84 l 1
 705 420 l 25
 713 420 l 1
 639 0 l 1
 617 0 l 1
 633 93 l 0
 634 96 l 0
 682 366 l 1
 439 84 l 1
EndSplineSet
EndChar

StartChar: onehalf
Encoding: 189 189 151
Width: 819
VWidth: 0
Flags: HW
LayerCount: 2
Fore
SplineSet
775 700 m 1
 806 700 l 1
 129 0 l 1
 98 0 l 1
 775 700 l 1
138 646 m 1
 142 670 l 1
 268 698 l 1
 193 274 l 1
 171 274 l 1
 241 671 l 1
 138 646 l 1
495 2 m 1
 725 206 l 2
 758 236 788 267 796 311 c 0
 804 354 786 408 718 408 c 0
 653 408 600 355 586 278 c 1
 564 278 l 1
 580 367 643 429 722 429 c 0
 806 429 828 361 819 309 c 0
 811 262 778 226 741 194 c 2
 546 23 l 1
 780 23 l 1
 776 2 l 1
 495 2 l 1
EndSplineSet
EndChar

StartChar: threequarters
Encoding: 190 190 152
Width: 820
VWidth: 0
Flags: HW
LayerCount: 2
Fore
SplineSet
842 700 m 1
 873 700 l 1
 196 0 l 1
 165 0 l 1
 842 700 l 1
233 493 m 1
 236 509 l 1
 290 509 351 544 361 598 c 0
 369 644 346 686 288 686 c 0
 233 686 187 649 178 596 c 1
 156 596 l 1
 167 661 222 706 291 706 c 0
 363 706 393 653 383 598 c 0
 372 535 303 493 233 493 c 1
212 274 m 0
 131 274 91 326 102 391 c 1
 125 391 l 1
 115 335 149 295 216 295 c 0
 280 295 327 333 337 389 c 0
 349 456 286 488 232 488 c 1
 235 503 l 1
 305 503 372 466 358 387 c 0
 346 320 287 274 212 274 c 0
482 84 m 1
 504 104 l 1
 710 104 l 0
 715 104 l 0
 790 104 l 1
 787 84 l 1
 482 84 l 1
506 84 m 1
 482 84 l 1
 772 420 l 25
 780 420 l 1
 706 0 l 1
 684 0 l 1
 700 93 l 0
 701 96 l 0
 749 366 l 1
 506 84 l 1
EndSplineSet
EndChar

StartChar: uni2150
Encoding: 8528 8528 153
Width: 842
VWidth: 0
Flags: HW
LayerCount: 2
Fore
SplineSet
725 700 m 1
 756 700 l 1
 79 0 l 1
 48 0 l 1
 725 700 l 1
138 646 m 1
 142 670 l 1
 268 698 l 1
 193 274 l 1
 171 274 l 1
 241 671 l 1
 138 646 l 1
591 399 m 1
 595 420 l 1
 881 420 l 1
 593 0 l 1
 569 0 l 1
 844 399 l 1
 591 399 l 1
EndSplineSet
EndChar

StartChar: uni2151
Encoding: 8529 8529 154
Width: 784
VWidth: 0
Flags: HW
LayerCount: 2
Fore
SplineSet
725 700 m 1
 756 700 l 1
 79 0 l 1
 48 0 l 1
 725 700 l 1
138 646 m 1
 142 670 l 1
 268 698 l 1
 193 274 l 1
 171 274 l 1
 241 671 l 1
 138 646 l 1
773 288 m 0
 785 357 746 408 679 408 c 0
 612 408 557 357 545 288 c 0
 533 222 575 173 635 173 c 0
 708 173 762 226 773 288 c 0
575 2 m 1
 547 2 l 1
 722 197 l 1
 724 196 l 1
 697 169 663 156 625 156 c 0
 557 156 510 215 523 288 c 0
 537 370 601 428 682 428 c 0
 763 428 808 370 794 288 c 0
 788 254 767 218 747 196 c 2
 575 2 l 1
EndSplineSet
EndChar

StartChar: uni2152
Encoding: 8530 8530 155
Width: 1080
VWidth: 0
Flags: HW
LayerCount: 2
Fore
SplineSet
725 700 m 1
 756 700 l 1
 79 0 l 1
 48 0 l 1
 725 700 l 1
138 646 m 1
 142 670 l 1
 268 698 l 1
 193 274 l 1
 171 274 l 1
 241 671 l 1
 138 646 l 1
519 373 m 1
 523 397 l 1
 649 425 l 1
 574 1 l 1
 552 1 l 1
 622 398 l 1
 519 373 l 1
801 210 m 0
 782 103 811 15 885 15 c 0
 959 15 1017 103 1036 210 c 0
 1055 317 1027 405 953 405 c 0
 879 405 820 317 801 210 c 0
778 210 m 0
 799 331 871 426 957 426 c 0
 1043 426 1081 331 1060 210 c 0
 1039 89 967 -6 881 -6 c 0
 795 -6 757 89 778 210 c 0
EndSplineSet
EndChar

StartChar: onethird
Encoding: 8531 8531 156
Width: 755
VWidth: 0
Flags: HW
LayerCount: 2
Fore
SplineSet
725 700 m 1
 756 700 l 1
 79 0 l 1
 48 0 l 1
 725 700 l 1
138 646 m 1
 142 670 l 1
 268 698 l 1
 193 274 l 1
 171 274 l 1
 241 671 l 1
 138 646 l 1
617 213 m 1
 619 229 l 1
 673 229 735 264 745 318 c 0
 753 364 730 406 672 406 c 0
 617 406 571 369 562 316 c 1
 540 316 l 1
 551 381 606 426 675 426 c 0
 747 426 777 373 767 318 c 0
 756 255 687 213 617 213 c 1
596 -6 m 0
 515 -6 475 46 486 111 c 1
 509 111 l 1
 499 55 533 15 600 15 c 0
 664 15 710 53 720 109 c 0
 732 176 670 208 616 208 c 1
 618 223 l 1
 688 223 756 186 742 107 c 0
 730 40 671 -6 596 -6 c 0
EndSplineSet
EndChar

StartChar: twothirds
Encoding: 8532 8532 157
Width: 882
VWidth: 0
Flags: HW
LayerCount: 2
Fore
SplineSet
852 700 m 1
 883 700 l 1
 206 0 l 1
 175 0 l 1
 852 700 l 1
82 282 m 1
 312 487 l 2
 345 517 374 547 382 591 c 0
 390 634 372 688 304 688 c 0
 239 688 186 635 172 558 c 1
 150 558 l 1
 166 647 229 709 308 709 c 0
 392 709 414 642 405 590 c 0
 397 543 365 506 328 474 c 2
 132 303 l 1
 366 303 l 1
 363 282 l 1
 82 282 l 1
744 213 m 1
 746 229 l 1
 800 229 862 264 872 318 c 0
 880 364 857 406 799 406 c 0
 744 406 698 369 689 316 c 1
 667 316 l 1
 678 381 733 426 802 426 c 0
 874 426 904 373 894 318 c 0
 883 255 814 213 744 213 c 1
723 -6 m 0
 642 -6 602 46 613 111 c 1
 636 111 l 1
 626 55 660 15 727 15 c 0
 791 15 837 53 847 109 c 0
 859 176 797 208 743 208 c 1
 745 223 l 1
 815 223 883 186 869 107 c 0
 857 40 798 -6 723 -6 c 0
EndSplineSet
EndChar

StartChar: uni2155
Encoding: 8533 8533 158
Width: 744
VWidth: 0
Flags: HW
LayerCount: 2
Fore
SplineSet
725 700 m 1
 756 700 l 1
 79 0 l 1
 48 0 l 1
 725 700 l 1
138 646 m 1
 142 670 l 1
 268 698 l 1
 193 274 l 1
 171 274 l 1
 241 671 l 1
 138 646 l 1
718 136 m 0
 701 41 631 -8 554 -8 c 0
 485 -8 450 28 435 80 c 1
 456 93 l 1
 469 46 500 13 557 13 c 0
 625 13 681 57 695 136 c 0
 707 204 669 250 609 250 c 0
 561 250 524 232 482 194 c 1
 504 221 l 1
 531 249 575 270 621 270 c 0
 689 270 732 215 718 136 c 0
589 398 m 1
 517 226 l 1
 482 194 l 1
 577 418 l 1
 775 418 l 1
 771 398 l 1
 589 398 l 1
EndSplineSet
EndChar

StartChar: uni2156
Encoding: 8534 8534 159
Width: 871
VWidth: 0
Flags: HW
LayerCount: 2
Fore
SplineSet
852 700 m 1
 883 700 l 1
 206 0 l 1
 175 0 l 1
 852 700 l 1
82 282 m 1
 312 487 l 2
 345 517 374 547 382 591 c 0
 390 634 372 688 304 688 c 0
 239 688 186 635 172 558 c 1
 150 558 l 1
 166 647 229 709 308 709 c 0
 392 709 414 642 405 590 c 0
 397 543 365 506 328 474 c 2
 132 303 l 1
 366 303 l 1
 363 282 l 1
 82 282 l 1
845 136 m 0
 828 41 758 -8 681 -8 c 0
 612 -8 577 28 562 80 c 1
 583 93 l 1
 596 46 627 13 684 13 c 0
 752 13 808 57 822 136 c 0
 834 204 796 250 736 250 c 0
 688 250 651 232 609 194 c 1
 631 221 l 1
 658 249 702 270 748 270 c 0
 816 270 859 215 845 136 c 0
716 398 m 1
 644 226 l 1
 609 194 l 1
 704 418 l 1
 902 418 l 1
 898 398 l 1
 716 398 l 1
EndSplineSet
EndChar

StartChar: uni2157
Encoding: 8535 8535 160
Width: 831
VWidth: 0
Flags: HW
LayerCount: 2
Fore
SplineSet
812 700 m 1
 843 700 l 1
 166 0 l 1
 135 0 l 1
 812 700 l 1
233 493 m 1
 236 509 l 1
 290 509 351 544 361 598 c 0
 369 644 346 686 288 686 c 0
 233 686 187 649 178 596 c 1
 156 596 l 1
 167 661 222 706 291 706 c 0
 363 706 393 653 383 598 c 0
 372 535 303 493 233 493 c 1
212 274 m 0
 131 274 91 326 102 391 c 1
 125 391 l 1
 115 335 149 295 216 295 c 0
 280 295 327 333 337 389 c 0
 349 456 286 488 232 488 c 1
 235 503 l 1
 305 503 372 466 358 387 c 0
 346 320 287 274 212 274 c 0
805 136 m 0
 788 41 718 -8 641 -8 c 0
 572 -8 537 28 522 80 c 1
 543 93 l 1
 556 46 587 13 644 13 c 0
 712 13 768 57 782 136 c 0
 794 204 756 250 696 250 c 0
 648 250 611 232 569 194 c 1
 591 221 l 1
 618 249 662 270 708 270 c 0
 776 270 819 215 805 136 c 0
676 398 m 1
 604 226 l 1
 569 194 l 1
 664 418 l 1
 862 418 l 1
 858 398 l 1
 676 398 l 1
EndSplineSet
EndChar

StartChar: uni2158
Encoding: 8536 8536 161
Width: 866
VWidth: 0
Flags: HW
LayerCount: 2
Fore
SplineSet
847 700 m 1
 878 700 l 1
 201 0 l 1
 170 0 l 1
 847 700 l 1
97 364 m 1
 120 384 l 1
 327 384 l 0
 332 384 l 0
 406 384 l 1
 402 364 l 1
 97 364 l 1
121 364 m 1
 97 364 l 1
 387 700 l 25
 396 700 l 1
 322 280 l 1
 298 280 l 1
 315 373 l 0
 315 376 l 0
 363 646 l 1
 121 364 l 1
840 136 m 0
 823 41 753 -8 676 -8 c 0
 607 -8 572 28 557 80 c 1
 578 93 l 1
 591 46 622 13 679 13 c 0
 747 13 803 57 817 136 c 0
 829 204 791 250 731 250 c 0
 683 250 646 232 604 194 c 1
 626 221 l 1
 653 249 697 270 743 270 c 0
 811 270 854 215 840 136 c 0
711 398 m 1
 639 226 l 1
 604 194 l 1
 699 418 l 1
 897 418 l 1
 893 398 l 1
 711 398 l 1
EndSplineSet
EndChar

StartChar: uni2159
Encoding: 8537 8537 162
Width: 734
VWidth: 0
Flags: HW
LayerCount: 2
Fore
SplineSet
725 700 m 1
 756 700 l 1
 79 0 l 1
 48 0 l 1
 725 700 l 1
138 646 m 1
 142 670 l 1
 268 698 l 1
 193 274 l 1
 171 274 l 1
 241 671 l 1
 138 646 l 1
471 132 m 0
 459 63 497 12 564 12 c 0
 631 12 687 63 699 132 c 0
 711 198 671 247 611 247 c 0
 538 247 482 194 471 132 c 0
669 418 m 1
 697 418 l 1
 521 223 l 1
 520 224 l 1
 547 251 582 264 620 264 c 0
 688 264 733 205 720 132 c 0
 706 50 642 -8 561 -8 c 0
 480 -8 436 50 450 132 c 0
 456 166 477 202 497 224 c 2
 669 418 l 1
EndSplineSet
EndChar

StartChar: uni215A
Encoding: 8538 8538 163
Width: 856
VWidth: 0
Flags: HW
LayerCount: 2
Fore
SplineSet
847 700 m 1
 878 700 l 1
 201 0 l 1
 170 0 l 1
 847 700 l 1
379 416 m 0
 362 321 292 272 215 272 c 0
 146 272 111 308 96 360 c 1
 118 373 l 1
 131 326 162 293 219 293 c 0
 287 293 342 337 356 416 c 0
 368 484 330 530 270 530 c 0
 222 530 186 512 144 474 c 1
 165 501 l 1
 192 529 236 550 282 550 c 0
 350 550 393 495 379 416 c 0
251 678 m 1
 178 506 l 1
 144 474 l 1
 238 698 l 1
 436 698 l 1
 433 678 l 1
 251 678 l 1
593 132 m 0
 581 63 619 12 686 12 c 0
 753 12 809 63 821 132 c 0
 833 198 793 247 733 247 c 0
 660 247 604 194 593 132 c 0
791 418 m 1
 819 418 l 1
 643 223 l 1
 642 224 l 1
 669 251 704 264 742 264 c 0
 810 264 855 205 842 132 c 0
 828 50 764 -8 683 -8 c 0
 602 -8 558 50 572 132 c 0
 578 166 599 202 619 224 c 2
 791 418 l 1
EndSplineSet
EndChar

StartChar: oneeighth
Encoding: 8539 8539 164
Width: 760
VWidth: 0
Flags: HW
LayerCount: 2
Fore
SplineSet
725 700 m 1
 756 700 l 1
 79 0 l 1
 48 0 l 1
 725 700 l 1
138 646 m 1
 142 670 l 1
 268 698 l 1
 193 274 l 1
 171 274 l 1
 241 671 l 1
 138 646 l 1
541 323 m 0
 551 378 606 426 668 426 c 0
 730 426 768 378 758 323 c 0
 747 262 689 218 631 218 c 0
 573 218 530 262 541 323 c 0
563 321 m 0
 554 270 594 233 634 233 c 0
 674 233 727 270 736 321 c 0
 744 369 715 406 665 406 c 0
 615 406 571 369 563 321 c 0
491 112 m 0
 503 181 570 227 633 227 c 0
 696 227 746 181 734 112 c 0
 723 47 667 -6 592 -6 c 0
 517 -6 480 47 491 112 c 0
513 114 m 0
 502 54 536 14 595 14 c 0
 654 14 701 54 712 114 c 0
 722 171 680 212 630 212 c 0
 580 212 523 171 513 114 c 0
EndSplineSet
EndChar

StartChar: threeeighths
Encoding: 8540 8540 165
Width: 847
VWidth: 0
Flags: HW
LayerCount: 2
Fore
SplineSet
812 700 m 1
 843 700 l 1
 166 0 l 1
 135 0 l 1
 812 700 l 1
233 493 m 1
 236 509 l 1
 290 509 351 544 361 598 c 0
 369 644 346 686 288 686 c 0
 233 686 187 649 178 596 c 1
 156 596 l 1
 167 661 222 706 291 706 c 0
 363 706 393 653 383 598 c 0
 372 535 303 493 233 493 c 1
212 274 m 0
 131 274 91 326 102 391 c 1
 125 391 l 1
 115 335 149 295 216 295 c 0
 280 295 327 333 337 389 c 0
 349 456 286 488 232 488 c 1
 235 503 l 1
 305 503 372 466 358 387 c 0
 346 320 287 274 212 274 c 0
628 323 m 0
 638 378 693 426 755 426 c 0
 817 426 855 378 845 323 c 0
 834 262 776 218 718 218 c 0
 660 218 617 262 628 323 c 0
650 321 m 0
 641 270 681 233 721 233 c 0
 761 233 814 270 823 321 c 0
 831 369 802 406 752 406 c 0
 702 406 658 369 650 321 c 0
578 112 m 0
 590 181 657 227 720 227 c 0
 783 227 833 181 821 112 c 0
 810 47 754 -6 679 -6 c 0
 604 -6 567 47 578 112 c 0
600 114 m 0
 589 54 623 14 682 14 c 0
 741 14 788 54 799 114 c 0
 809 171 767 212 717 212 c 0
 667 212 610 171 600 114 c 0
EndSplineSet
EndChar

StartChar: fiveeighths
Encoding: 8541 8541 166
Width: 882
VWidth: 0
Flags: HW
LayerCount: 2
Fore
SplineSet
847 700 m 1
 878 700 l 1
 201 0 l 1
 170 0 l 1
 847 700 l 1
379 416 m 0
 362 321 292 272 215 272 c 0
 146 272 111 308 96 360 c 1
 118 373 l 1
 131 326 162 293 219 293 c 0
 287 293 342 337 356 416 c 0
 368 484 330 530 270 530 c 0
 222 530 186 512 144 474 c 1
 165 501 l 1
 192 529 236 550 282 550 c 0
 350 550 393 495 379 416 c 0
251 678 m 1
 178 506 l 1
 144 474 l 1
 238 698 l 1
 436 698 l 1
 433 678 l 1
 251 678 l 1
663 323 m 0
 673 378 728 426 790 426 c 0
 852 426 890 378 880 323 c 0
 869 262 811 218 753 218 c 0
 695 218 652 262 663 323 c 0
685 321 m 0
 676 270 716 233 756 233 c 0
 796 233 849 270 858 321 c 0
 866 369 837 406 787 406 c 0
 737 406 693 369 685 321 c 0
613 112 m 0
 625 181 692 227 755 227 c 0
 818 227 868 181 856 112 c 0
 845 47 789 -6 714 -6 c 0
 639 -6 602 47 613 112 c 0
635 114 m 0
 624 54 658 14 717 14 c 0
 776 14 823 54 834 114 c 0
 844 171 802 212 752 212 c 0
 702 212 645 171 635 114 c 0
EndSplineSet
EndChar

StartChar: seveneighths
Encoding: 8542 8542 167
Width: 772
VWidth: 0
Flags: HW
LayerCount: 2
Fore
SplineSet
737 700 m 1
 768 700 l 1
 91 0 l 1
 60 0 l 1
 737 700 l 1
153 679 m 1
 156 700 l 1
 442 700 l 1
 154 280 l 1
 130 280 l 1
 406 679 l 1
 153 679 l 1
553 323 m 0
 563 378 618 426 680 426 c 0
 742 426 780 378 770 323 c 0
 759 262 701 218 643 218 c 0
 585 218 542 262 553 323 c 0
575 321 m 0
 566 270 606 233 646 233 c 0
 686 233 739 270 748 321 c 0
 756 369 727 406 677 406 c 0
 627 406 583 369 575 321 c 0
503 112 m 0
 515 181 582 227 645 227 c 0
 708 227 758 181 746 112 c 0
 735 47 679 -6 604 -6 c 0
 529 -6 492 47 503 112 c 0
525 114 m 0
 514 54 548 14 607 14 c 0
 666 14 713 54 724 114 c 0
 734 171 692 212 642 212 c 0
 592 212 535 171 525 114 c 0
EndSplineSet
EndChar

StartChar: uni2074
Encoding: 8308 8308 168
Width: 376
VWidth: 0
Flags: HW
LayerCount: 2
Fore
SplineSet
97 364 m 1
 120 384 l 1
 327 384 l 0
 332 384 l 0
 406 384 l 1
 402 364 l 1
 97 364 l 1
121 364 m 1
 97 364 l 1
 387 700 l 25
 396 700 l 1
 322 280 l 1
 298 280 l 1
 315 373 l 0
 315 376 l 0
 363 646 l 1
 121 364 l 1
EndSplineSet
EndChar

StartChar: uni2075
Encoding: 8309 8309 169
Width: 346
VWidth: 0
Flags: HW
LayerCount: 2
Fore
SplineSet
379 416 m 0
 362 321 292 272 215 272 c 0
 146 272 111 308 96 360 c 1
 118 373 l 1
 131 326 162 293 219 293 c 0
 287 293 342 337 356 416 c 0
 368 484 330 530 270 530 c 0
 222 530 186 512 144 474 c 1
 165 501 l 1
 192 529 236 550 282 550 c 0
 350 550 393 495 379 416 c 0
251 678 m 1
 178 506 l 1
 144 474 l 1
 238 698 l 1
 436 698 l 1
 433 678 l 1
 251 678 l 1
EndSplineSet
EndChar

StartChar: uni2076
Encoding: 8310 8310 170
Width: 336
VWidth: 0
Flags: HW
LayerCount: 2
Fore
SplineSet
133 412 m 0
 121 343 158 292 225 292 c 0
 292 292 349 343 361 412 c 0
 373 478 332 527 272 527 c 0
 199 527 144 474 133 412 c 0
330 698 m 1
 358 698 l 1
 183 503 l 1
 182 504 l 1
 209 531 243 544 281 544 c 0
 349 544 395 485 382 412 c 0
 368 330 303 272 222 272 c 0
 141 272 98 330 112 412 c 0
 118 446 139 482 159 504 c 2
 330 698 l 1
EndSplineSet
EndChar

StartChar: uni2077
Encoding: 8311 8311 171
Width: 352
VWidth: 0
Flags: HW
LayerCount: 2
Fore
SplineSet
153 679 m 1
 156 700 l 1
 442 700 l 1
 154 280 l 1
 130 280 l 1
 406 679 l 1
 153 679 l 1
EndSplineSet
EndChar

StartChar: uni2078
Encoding: 8312 8312 172
Width: 309
VWidth: 0
Flags: HW
LayerCount: 2
Fore
SplineSet
152 603 m 0
 162 658 217 706 279 706 c 0
 341 706 379 658 369 603 c 0
 358 542 301 498 243 498 c 0
 185 498 141 542 152 603 c 0
174 601 m 0
 165 550 205 513 245 513 c 0
 285 513 338 550 347 601 c 0
 355 649 326 686 276 686 c 0
 226 686 182 649 174 601 c 0
102 392 m 0
 114 461 181 507 244 507 c 0
 307 507 357 461 345 392 c 0
 334 327 278 274 203 274 c 0
 128 274 91 327 102 392 c 0
124 394 m 0
 113 334 148 294 207 294 c 0
 266 294 312 334 323 394 c 0
 333 451 292 492 242 492 c 0
 192 492 134 451 124 394 c 0
EndSplineSet
EndChar

StartChar: uni2079
Encoding: 8313 8313 173
Width: 336
VWidth: 0
Flags: HW
LayerCount: 2
Fore
SplineSet
384 568 m 0
 396 637 357 688 290 688 c 0
 223 688 168 637 156 568 c 0
 144 502 186 453 246 453 c 0
 319 453 373 506 384 568 c 0
187 282 m 1
 159 282 l 1
 333 477 l 1
 335 476 l 1
 308 449 274 436 236 436 c 0
 168 436 121 495 134 568 c 0
 148 650 213 708 294 708 c 0
 375 708 419 650 405 568 c 0
 399 534 378 498 358 476 c 2
 187 282 l 1
EndSplineSet
EndChar

StartChar: uni2070
Encoding: 8304 8304 174
Width: 340
VWidth: 0
Flags: HW
LayerCount: 2
Fore
SplineSet
142 490 m 0
 123 383 152 295 226 295 c 0
 300 295 358 383 377 490 c 0
 396 597 369 685 295 685 c 0
 221 685 161 597 142 490 c 0
119 490 m 0
 140 611 212 706 298 706 c 0
 384 706 422 611 401 490 c 0
 380 369 308 274 222 274 c 0
 136 274 98 369 119 490 c 0
EndSplineSet
EndChar

StartChar: uni2080
Encoding: 8320 8320 175
Width: 347
VWidth: 0
Flags: HW
LayerCount: 2
Fore
SplineSet
93 210 m 0
 74 103 103 15 177 15 c 0
 251 15 309 103 328 210 c 0
 347 317 319 405 245 405 c 0
 171 405 112 317 93 210 c 0
70 210 m 0
 91 331 163 426 249 426 c 0
 335 426 373 331 352 210 c 0
 331 89 259 -6 173 -6 c 0
 87 -6 49 89 70 210 c 0
EndSplineSet
EndChar

StartChar: uni2084
Encoding: 8324 8324 176
Width: 376
VWidth: 0
Flags: HW
LayerCount: 2
Fore
SplineSet
48 84 m 1
 70 104 l 1
 277 104 l 0
 282 104 l 0
 356 104 l 1
 353 84 l 1
 48 84 l 1
72 84 m 1
 48 84 l 1
 338 420 l 25
 347 420 l 1
 273 0 l 1
 249 0 l 1
 265 93 l 0
 266 96 l 0
 314 366 l 1
 72 84 l 1
EndSplineSet
EndChar

StartChar: uni2085
Encoding: 8325 8325 177
Width: 346
VWidth: 0
Flags: HW
LayerCount: 2
Fore
SplineSet
330 136 m 0
 313 41 243 -8 166 -8 c 0
 97 -8 62 28 47 80 c 1
 68 93 l 1
 81 46 112 13 169 13 c 0
 237 13 293 57 307 136 c 0
 319 204 281 250 221 250 c 0
 173 250 136 232 94 194 c 1
 116 221 l 1
 143 249 187 270 233 270 c 0
 301 270 344 215 330 136 c 0
201 398 m 1
 129 226 l 1
 94 194 l 1
 189 418 l 1
 387 418 l 1
 383 398 l 1
 201 398 l 1
EndSplineSet
EndChar

StartChar: uni2086
Encoding: 8326 8326 178
Width: 336
VWidth: 0
Flags: HW
LayerCount: 2
Fore
SplineSet
83 132 m 0
 71 63 108 12 175 12 c 0
 242 12 299 63 311 132 c 0
 323 198 282 247 222 247 c 0
 149 247 94 194 83 132 c 0
280 418 m 1
 309 418 l 1
 133 223 l 1
 132 224 l 1
 159 251 194 264 232 264 c 0
 300 264 345 205 332 132 c 0
 318 50 253 -8 172 -8 c 0
 91 -8 47 50 61 132 c 0
 67 166 89 202 109 224 c 2
 280 418 l 1
EndSplineSet
EndChar

StartChar: uni2087
Encoding: 8327 8327 179
Width: 352
VWidth: 0
Flags: HW
LayerCount: 2
Fore
SplineSet
103 399 m 1
 107 420 l 1
 393 420 l 1
 105 0 l 1
 81 0 l 1
 356 399 l 1
 103 399 l 1
EndSplineSet
EndChar

StartChar: uni2088
Encoding: 8328 8328 180
Width: 309
VWidth: 0
Flags: HW
LayerCount: 2
Fore
SplineSet
103 323 m 0
 113 378 168 426 230 426 c 0
 292 426 330 378 320 323 c 0
 309 262 251 218 193 218 c 0
 135 218 92 262 103 323 c 0
125 321 m 0
 116 270 156 233 196 233 c 0
 236 233 289 270 298 321 c 0
 306 369 277 406 227 406 c 0
 177 406 133 369 125 321 c 0
53 112 m 0
 65 181 132 227 195 227 c 0
 258 227 308 181 296 112 c 0
 285 47 229 -6 154 -6 c 0
 79 -6 42 47 53 112 c 0
75 114 m 0
 64 54 98 14 157 14 c 0
 216 14 263 54 274 114 c 0
 284 171 242 212 192 212 c 0
 142 212 85 171 75 114 c 0
EndSplineSet
EndChar

StartChar: uni2089
Encoding: 8329 8329 181
Width: 336
VWidth: 0
Flags: HW
LayerCount: 2
Fore
SplineSet
329 288 m 0
 341 357 302 408 235 408 c 0
 168 408 113 357 101 288 c 0
 89 222 131 173 191 173 c 0
 264 173 318 226 329 288 c 0
131 2 m 1
 103 2 l 1
 278 197 l 1
 280 196 l 1
 253 169 219 156 181 156 c 0
 113 156 66 215 79 288 c 0
 93 370 157 428 238 428 c 0
 319 428 364 370 350 288 c 0
 344 254 323 218 303 196 c 2
 131 2 l 1
EndSplineSet
EndChar

StartChar: uni2081
Encoding: 8321 8321 182
Width: 297
VWidth: 0
Flags: HW
LayerCount: 2
Fore
SplineSet
159 373 m 1
 163 397 l 1
 289 425 l 1
 214 1 l 1
 192 1 l 1
 262 398 l 1
 159 373 l 1
EndSplineSet
EndChar

StartChar: uni2082
Encoding: 8322 8322 183
Width: 336
VWidth: 0
Flags: HW
LayerCount: 2
Fore
SplineSet
28 2 m 1
 260 207 l 2
 293 237 322 267 330 311 c 0
 338 354 319 408 251 408 c 0
 186 408 134 355 120 278 c 1
 98 278 l 1
 114 367 176 429 255 429 c 0
 339 429 361 362 352 310 c 0
 344 263 311 226 274 194 c 2
 80 23 l 1
 313 23 l 1
 309 2 l 1
 28 2 l 1
EndSplineSet
EndChar

StartChar: uni2083
Encoding: 8323 8323 184
Width: 315
VWidth: 0
Flags: HW
LayerCount: 2
Fore
SplineSet
179 213 m 1
 181 229 l 1
 235 229 297 264 307 318 c 0
 315 364 292 406 234 406 c 0
 179 406 133 369 124 316 c 1
 102 316 l 1
 113 381 168 426 237 426 c 0
 309 426 339 373 329 318 c 0
 318 255 249 213 179 213 c 1
158 -6 m 0
 77 -6 37 46 48 111 c 1
 71 111 l 1
 61 55 95 15 162 15 c 0
 226 15 272 53 282 109 c 0
 294 176 232 208 178 208 c 1
 180 223 l 1
 250 223 318 186 304 107 c 0
 292 40 233 -6 158 -6 c 0
EndSplineSet
EndChar

StartChar: Agrave
Encoding: 192 192 185
Width: 621
VWidth: 0
Flags: HW
LayerCount: 2
Fore
SplineSet
178 250 m 1
 195 285 l 1
 527 285 l 1
 532 250 l 1
 178 250 l 1
423 635 m 1
 212 272 l 1
 206 263 l 1
 53 0 l 1
 11 0 l 1
 438 722 l 1
 610 0 l 1
 568 0 l 1
 509 261 l 1
 508 270 l 1
 423 635 l 1
342 937 m 1
 378 956 l 1
 512 796 l 1
 491 782 l 1
 342 937 l 1
EndSplineSet
EndChar

StartChar: Aacute
Encoding: 193 193 186
Width: 621
VWidth: 0
Flags: HW
LayerCount: 2
Fore
SplineSet
178 250 m 1
 195 285 l 1
 527 285 l 1
 532 250 l 1
 178 250 l 1
423 635 m 1
 212 272 l 1
 206 263 l 1
 53 0 l 1
 11 0 l 1
 438 722 l 1
 610 0 l 1
 568 0 l 1
 509 261 l 1
 508 270 l 1
 423 635 l 1
609 937 m 1
 407 782 l 1
 390 796 l 1
 581 956 l 1
 609 937 l 1
EndSplineSet
EndChar

StartChar: Acircumflex
Encoding: 194 194 187
Width: 621
VWidth: 0
Flags: HW
LayerCount: 2
Fore
SplineSet
178 250 m 1
 195 285 l 1
 527 285 l 1
 532 250 l 1
 178 250 l 1
423 635 m 1
 212 272 l 1
 206 263 l 1
 53 0 l 1
 11 0 l 1
 438 722 l 1
 610 0 l 1
 568 0 l 1
 509 261 l 1
 508 270 l 1
 423 635 l 1
468 888 m 1
 308 768 l 1
 290 787 l 1
 474 927 l 1
 610 787 l 1
 583 768 l 1
 468 888 l 1
EndSplineSet
EndChar

StartChar: Atilde
Encoding: 195 195 188
Width: 621
VWidth: 0
Flags: HW
LayerCount: 2
Fore
SplineSet
178 250 m 1
 195 285 l 1
 527 285 l 1
 532 250 l 1
 178 250 l 1
423 635 m 1
 212 272 l 1
 206 263 l 1
 53 0 l 1
 11 0 l 1
 438 722 l 1
 610 0 l 1
 568 0 l 1
 509 261 l 1
 508 270 l 1
 423 635 l 1
312 802 m 1
 322 838 356 868 401 868 c 0
 460 868 463 821 517 821 c 0
 542 821 558 837 581 869 c 1
 601 852 l 1
 578 815 547 792 510 792 c 0
 455 792 442 839 397 839 c 0
 356 839 339 809 335 788 c 1
 312 802 l 1
EndSplineSet
EndChar

StartChar: Adieresis
Encoding: 196 196 189
Width: 621
VWidth: 0
Flags: HW
LayerCount: 2
Fore
SplineSet
178 250 m 1
 195 285 l 1
 527 285 l 1
 532 250 l 1
 178 250 l 1
423 635 m 1
 212 272 l 1
 206 263 l 1
 53 0 l 1
 11 0 l 1
 438 722 l 1
 610 0 l 1
 568 0 l 1
 509 261 l 1
 508 270 l 1
 423 635 l 1
529 822 m 0
 532 837 547 849 561 849 c 0
 575 849 585 837 582 822 c 0
 579 807 565 795 551 795 c 0
 537 795 526 807 529 822 c 0
329 822 m 0
 332 837 347 849 361 849 c 0
 375 849 385 837 382 822 c 0
 379 807 365 795 351 795 c 0
 337 795 326 807 329 822 c 0
EndSplineSet
EndChar

StartChar: Aring
Encoding: 197 197 190
Width: 621
VWidth: 0
Flags: HW
LayerCount: 2
Fore
SplineSet
178 250 m 1
 195 285 l 1
 527 285 l 1
 532 250 l 1
 178 250 l 1
423 635 m 1
 212 272 l 1
 206 263 l 1
 53 0 l 1
 11 0 l 1
 438 722 l 1
 610 0 l 1
 568 0 l 1
 509 261 l 1
 508 270 l 1
 423 635 l 1
351 804 m 0
 362 864 418 904 470 904 c 0
 522 904 566 864 555 804 c 0
 544 744 487 704 435 704 c 0
 383 704 340 744 351 804 c 0
376 804 m 0
 368 758 399 728 439 728 c 0
 479 728 522 758 530 804 c 0
 538 850 506 881 466 881 c 0
 426 881 384 850 376 804 c 0
EndSplineSet
EndChar

StartChar: AE
Encoding: 198 198 191
Width: 918
VWidth: 0
Flags: HW
LayerCount: 2
Fore
SplineSet
256 255 m 1
 262 290 l 1
 555 290 l 1
 549 255 l 1
 256 255 l 1
590 700 m 1
 621 686 l 1
 47 0 l 1
 5 0 l 1
 590 700 l 1
511 0 m 1
 517 35 l 1
 848 35 l 1
 842 0 l 1
 511 0 l 1
633 665 m 1
 590 700 l 1
 965 700 l 1
 959 665 l 1
 633 665 l 1
576 368 m 1
 582 404 l 1
 893 404 l 1
 887 368 l 1
 576 368 l 1
613 700 m 1
 650 700 l 1
 527 0 l 1
 490 0 l 1
 613 700 l 1
EndSplineSet
EndChar

StartChar: Ccedilla
Encoding: 199 199 192
Width: 685
VWidth: 0
Flags: HW
LayerCount: 2
Fore
SplineSet
149 350 m 0
 116 163 219 30 389 30 c 0
 488 30 565 62 630 121 c 1
 621 70 l 1
 553 18 484 -9 382 -9 c 0
 188 -9 71 141 108 350 c 0
 145 559 315 709 509 709 c 0
 611 709 670 682 720 630 c 1
 711 580 l 1
 667 638 598 670 502 670 c 0
 333 670 182 539 149 350 c 0
388 20 m 1
 417 20 l 1
 342 -70 l 1
 301 -97 l 1
 388 20 l 1
452 -128 m 1
 425 -128 l 1
 432 -91 408 -74 377 -74 c 0
 354 -74 327 -81 301 -97 c 1
 326 -75 l 1
 355 -59 366 -54 392 -54 c 0
 425 -54 461 -79 452 -128 c 1
452 -128 m 1
 441 -189 384 -222 329 -222 c 0
 292 -222 270 -212 247 -184 c 1
 266 -166 l 1
 287 -187 302 -196 333 -196 c 0
 375 -196 417 -173 425 -128 c 1
 452 -128 l 1
EndSplineSet
EndChar

StartChar: Egrave
Encoding: 200 200 193
Width: 524
VWidth: 0
Flags: HW
LayerCount: 2
Fore
SplineSet
105 0 m 1
 111 35 l 1
 454 35 l 1
 448 0 l 1
 105 0 l 1
222 665 m 1
 228 700 l 1
 571 700 l 1
 565 665 l 1
 222 665 l 1
170 368 m 1
 176 404 l 1
 499 404 l 1
 493 368 l 1
 170 368 l 1
209 700 m 1
 247 700 l 1
 124 0 l 1
 86 0 l 1
 209 700 l 1
284 923 m 1
 319 943 l 1
 454 783 l 1
 433 769 l 1
 284 923 l 1
EndSplineSet
EndChar

StartChar: Eacute
Encoding: 201 201 194
Width: 524
VWidth: 0
Flags: HW
LayerCount: 2
Fore
SplineSet
105 0 m 1
 111 35 l 1
 454 35 l 1
 448 0 l 1
 105 0 l 1
222 665 m 1
 228 700 l 1
 571 700 l 1
 565 665 l 1
 222 665 l 1
170 368 m 1
 176 404 l 1
 499 404 l 1
 493 368 l 1
 170 368 l 1
209 700 m 1
 247 700 l 1
 124 0 l 1
 86 0 l 1
 209 700 l 1
577 923 m 1
 374 769 l 1
 357 783 l 1
 548 943 l 1
 577 923 l 1
EndSplineSet
EndChar

StartChar: Ecircumflex
Encoding: 202 202 195
Width: 524
VWidth: 0
Flags: HW
LayerCount: 2
Fore
SplineSet
105 0 m 1
 111 35 l 1
 454 35 l 1
 448 0 l 1
 105 0 l 1
222 665 m 1
 228 700 l 1
 571 700 l 1
 565 665 l 1
 222 665 l 1
170 368 m 1
 176 404 l 1
 499 404 l 1
 493 368 l 1
 170 368 l 1
209 700 m 1
 247 700 l 1
 124 0 l 1
 86 0 l 1
 209 700 l 1
428 889 m 1
 269 769 l 1
 250 788 l 1
 435 928 l 1
 570 788 l 1
 544 769 l 1
 428 889 l 1
EndSplineSet
EndChar

StartChar: Edieresis
Encoding: 203 203 196
Width: 524
VWidth: 0
Flags: HW
LayerCount: 2
Fore
SplineSet
105 0 m 1
 111 35 l 1
 454 35 l 1
 448 0 l 1
 105 0 l 1
222 665 m 1
 228 700 l 1
 571 700 l 1
 565 665 l 1
 222 665 l 1
170 368 m 1
 176 404 l 1
 499 404 l 1
 493 368 l 1
 170 368 l 1
209 700 m 1
 247 700 l 1
 124 0 l 1
 86 0 l 1
 209 700 l 1
488 816 m 0
 491 831 505 842 519 842 c 0
 533 842 544 831 541 816 c 0
 538 801 524 789 510 789 c 0
 496 789 485 801 488 816 c 0
288 816 m 0
 291 831 305 842 319 842 c 0
 333 842 344 831 341 816 c 0
 338 801 324 789 310 789 c 0
 296 789 285 801 288 816 c 0
EndSplineSet
EndChar

StartChar: Igrave
Encoding: 204 204 197
Width: 203
VWidth: 0
Flags: HW
LayerCount: 2
Fore
SplineSet
206 700 m 1
 243 700 l 1
 120 0 l 1
 83 0 l 1
 206 700 l 1
118 923 m 1
 154 943 l 1
 288 783 l 1
 267 769 l 1
 118 923 l 1
EndSplineSet
EndChar

StartChar: Iacute
Encoding: 205 205 198
Width: 203
VWidth: 0
Flags: HW
LayerCount: 2
Fore
SplineSet
206 700 m 1
 243 700 l 1
 120 0 l 1
 83 0 l 1
 206 700 l 1
411 923 m 1
 208 769 l 1
 192 783 l 1
 382 943 l 1
 411 923 l 1
EndSplineSet
EndChar

StartChar: Icircumflex
Encoding: 206 206 199
Width: 203
VWidth: 0
Flags: HW
LayerCount: 2
Fore
SplineSet
206 700 m 1
 243 700 l 1
 120 0 l 1
 83 0 l 1
 206 700 l 1
258 889 m 1
 100 769 l 1
 80 788 l 1
 265 928 l 1
 400 788 l 1
 375 769 l 1
 258 889 l 1
EndSplineSet
EndChar

StartChar: Idieresis
Encoding: 207 207 200
Width: 203
VWidth: 0
Flags: HW
LayerCount: 2
Fore
SplineSet
206 700 m 1
 243 700 l 1
 120 0 l 1
 83 0 l 1
 206 700 l 1
299 809 m 0
 302 824 315 835 329 835 c 0
 343 835 355 824 352 809 c 0
 349 794 334 781 320 781 c 0
 306 781 296 794 299 809 c 0
137 809 m 0
 140 824 154 835 168 835 c 0
 182 835 194 824 191 809 c 0
 188 794 173 781 159 781 c 0
 145 781 134 794 137 809 c 0
EndSplineSet
EndChar

StartChar: Ntilde
Encoding: 209 209 201
Width: 704
VWidth: 0
Flags: HW
LayerCount: 2
Fore
SplineSet
184 652 m 1
 188 722 l 1
 630 45 l 1
 627 -22 l 1
 184 652 l 1
717 700 m 1
 754 700 l 1
 627 -22 l 1
 601 38 l 1
 717 700 l 1
188 722 m 1
 214 659 l 1
 98 0 l 1
 61 0 l 1
 188 722 l 1
356 782 m 1
 366 818 400 848 445 848 c 0
 504 848 506 801 560 801 c 0
 585 801 602 817 625 849 c 1
 645 832 l 1
 622 795 590 772 553 772 c 0
 498 772 485 819 440 819 c 0
 399 819 382 789 378 768 c 1
 356 782 l 1
EndSplineSet
EndChar

StartChar: Eth
Encoding: 208 208 202
Width: 680
VWidth: 0
Flags: HW
LayerCount: 2
Fore
SplineSet
223 663 m 1
 229 700 l 1
 387 700 l 2
 591 700 704 559 667 350 c 1
 629 350 l 1
 662 539 565 663 381 663 c 2
 223 663 l 1
264 0 m 2
 106 0 l 1
 113 37 l 1
 271 37 l 2
 455 37 596 161 629 350 c 1
 667 350 l 1
 630 141 468 0 264 0 c 2
209 700 m 1
 247 700 l 1
 124 0 l 1
 86 0 l 1
 209 700 l 1
64 332 m 1
 70 366 l 1
 370 366 l 1
 364 332 l 1
 64 332 l 1
EndSplineSet
EndChar

StartChar: Ograve
Encoding: 210 210 203
Width: 779
VWidth: 0
Flags: HW
LayerCount: 2
Fore
SplineSet
148 350 m 0
 115 165 218 29 395 29 c 0
 572 29 723 165 756 350 c 0
 789 535 685 671 508 671 c 0
 331 671 181 535 148 350 c 0
108 350 m 0
 144 557 317 709 515 709 c 0
 713 709 832 557 796 350 c 0
 760 143 586 -9 388 -9 c 0
 190 -9 72 143 108 350 c 0
423 923 m 1
 458 943 l 1
 593 783 l 1
 572 769 l 1
 423 923 l 1
EndSplineSet
EndChar

StartChar: Oacute
Encoding: 211 211 204
Width: 779
VWidth: 0
Flags: HW
LayerCount: 2
Fore
SplineSet
148 350 m 0
 115 165 218 29 395 29 c 0
 572 29 723 165 756 350 c 0
 789 535 685 671 508 671 c 0
 331 671 181 535 148 350 c 0
108 350 m 0
 144 557 317 709 515 709 c 0
 713 709 832 557 796 350 c 0
 760 143 586 -9 388 -9 c 0
 190 -9 72 143 108 350 c 0
683 923 m 1
 480 769 l 1
 463 783 l 1
 654 943 l 1
 683 923 l 1
EndSplineSet
EndChar

StartChar: Ocircumflex
Encoding: 212 212 205
Width: 779
VWidth: 0
Flags: HW
LayerCount: 2
Fore
SplineSet
148 350 m 0
 115 165 218 29 395 29 c 0
 572 29 723 165 756 350 c 0
 789 535 685 671 508 671 c 0
 331 671 181 535 148 350 c 0
108 350 m 0
 144 557 317 709 515 709 c 0
 713 709 832 557 796 350 c 0
 760 143 586 -9 388 -9 c 0
 190 -9 72 143 108 350 c 0
547 889 m 1
 389 769 l 1
 369 788 l 1
 554 928 l 1
 689 788 l 1
 663 769 l 1
 547 889 l 1
EndSplineSet
EndChar

StartChar: Otilde
Encoding: 213 213 206
Width: 779
VWidth: 0
Flags: HW
LayerCount: 2
Fore
SplineSet
148 350 m 0
 115 165 218 29 395 29 c 0
 572 29 723 165 756 350 c 0
 789 535 685 671 508 671 c 0
 331 671 181 535 148 350 c 0
108 350 m 0
 144 557 317 709 515 709 c 0
 713 709 832 557 796 350 c 0
 760 143 586 -9 388 -9 c 0
 190 -9 72 143 108 350 c 0
390 796 m 1
 400 832 434 862 479 862 c 0
 538 862 541 815 595 815 c 0
 620 815 636 831 659 863 c 1
 679 846 l 1
 656 809 624 785 587 785 c 0
 532 785 520 832 475 832 c 0
 434 832 417 802 413 781 c 1
 390 796 l 1
EndSplineSet
EndChar

StartChar: Odieresis
Encoding: 214 214 207
Width: 779
VWidth: 0
Flags: HW
LayerCount: 2
Fore
SplineSet
148 350 m 0
 115 165 218 29 395 29 c 0
 572 29 723 165 756 350 c 0
 789 535 685 671 508 671 c 0
 331 671 181 535 148 350 c 0
108 350 m 0
 144 557 317 709 515 709 c 0
 713 709 832 557 796 350 c 0
 760 143 586 -9 388 -9 c 0
 190 -9 72 143 108 350 c 0
613 815 m 0
 616 830 630 842 644 842 c 0
 658 842 670 830 667 815 c 0
 664 800 649 788 635 788 c 0
 621 788 610 800 613 815 c 0
400 815 m 0
 403 830 418 842 432 842 c 0
 446 842 457 830 454 815 c 0
 451 800 437 788 423 788 c 0
 409 788 397 800 400 815 c 0
EndSplineSet
EndChar

StartChar: Ugrave
Encoding: 217 217 208
Width: 594
VWidth: 0
Flags: HW
LayerCount: 2
Fore
SplineSet
204 700 m 1
 242 700 l 1
 158 224 l 2
 136 102 189 26 302 26 c 0
 415 26 492 102 514 224 c 2
 598 700 l 1
 636 700 l 1
 552 224 l 2
 527 85 434 -10 295 -10 c 0
 156 -10 95 85 120 224 c 2
 204 700 l 1
327 923 m 1
 362 943 l 1
 496 783 l 1
 475 769 l 1
 327 923 l 1
EndSplineSet
EndChar

StartChar: Uacute
Encoding: 218 218 209
Width: 594
VWidth: 0
Flags: HW
LayerCount: 2
Fore
SplineSet
204 700 m 1
 242 700 l 1
 158 224 l 2
 136 102 189 26 302 26 c 0
 415 26 492 102 514 224 c 2
 598 700 l 1
 636 700 l 1
 552 224 l 2
 527 85 434 -10 295 -10 c 0
 156 -10 95 85 120 224 c 2
 204 700 l 1
593 923 m 1
 391 769 l 1
 374 783 l 1
 564 943 l 1
 593 923 l 1
EndSplineSet
EndChar

StartChar: Ucircumflex
Encoding: 219 219 210
Width: 594
VWidth: 0
Flags: HW
LayerCount: 2
Fore
SplineSet
204 700 m 1
 242 700 l 1
 158 224 l 2
 136 102 189 26 302 26 c 0
 415 26 492 102 514 224 c 2
 598 700 l 1
 636 700 l 1
 552 224 l 2
 527 85 434 -10 295 -10 c 0
 156 -10 95 85 120 224 c 2
 204 700 l 1
454 889 m 1
 296 769 l 1
 276 788 l 1
 461 928 l 1
 596 788 l 1
 570 769 l 1
 454 889 l 1
EndSplineSet
EndChar

StartChar: Udieresis
Encoding: 220 220 211
Width: 594
VWidth: 0
Flags: HW
LayerCount: 2
Fore
SplineSet
204 700 m 1
 242 700 l 1
 158 224 l 2
 136 102 189 26 302 26 c 0
 415 26 492 102 514 224 c 2
 598 700 l 1
 636 700 l 1
 552 224 l 2
 527 85 434 -10 295 -10 c 0
 156 -10 95 85 120 224 c 2
 204 700 l 1
504 796 m 0
 507 811 522 822 536 822 c 0
 550 822 560 811 557 796 c 0
 554 781 541 769 527 769 c 0
 513 769 501 781 504 796 c 0
317 796 m 0
 320 811 334 822 348 822 c 0
 362 822 373 811 370 796 c 0
 367 781 353 769 339 769 c 0
 325 769 314 781 317 796 c 0
EndSplineSet
EndChar

StartChar: Yacute
Encoding: 221 221 212
Width: 526
VWidth: 0
Flags: HW
LayerCount: 2
Fore
SplineSet
295 306 m 1
 333 306 l 1
 279 0 l 1
 241 0 l 1
 295 306 l 1
595 700 m 1
 638 700 l 1
 303 246 l 1
 134 700 l 1
 177 700 l 1
 316 315 l 1
 595 700 l 1
573 923 m 1
 370 769 l 1
 353 783 l 1
 544 943 l 1
 573 923 l 1
EndSplineSet
EndChar

StartChar: agrave
Encoding: 224 224 213
Width: 551
VWidth: 0
Flags: HW
LayerCount: 2
Fore
SplineSet
522 460 m 1
 556 460 l 1
 475 0 l 1
 441 0 l 1
 522 460 l 1
82 230 m 0
 108 378 221 470 343 470 c 0
 463 470 520 360 497 230 c 0
 474 100 378 -10 258 -10 c 0
 136 -10 56 82 82 230 c 0
118 230 m 0
 95 102 164 23 269 23 c 0
 364 23 461 118 481 230 c 0
 501 342 437 437 342 437 c 0
 237 437 141 358 118 230 c 0
267 691 m 1
 302 710 l 1
 436 550 l 1
 415 536 l 1
 267 691 l 1
EndSplineSet
Substitution2: "alt a" agrave.alt
EndChar

StartChar: aacute
Encoding: 225 225 214
Width: 551
VWidth: 0
Flags: HW
LayerCount: 2
Fore
SplineSet
522 460 m 5
 556 460 l 5
 475 0 l 5
 441 0 l 5
 522 460 l 5
82 230 m 4
 108 378 221 470 343 470 c 4
 463 470 520 360 497 230 c 4
 474 100 378 -10 258 -10 c 4
 136 -10 56 82 82 230 c 4
118 230 m 4
 95 102 164 23 269 23 c 4
 364 23 461 118 481 230 c 4
 501 342 437 437 342 437 c 4
 237 437 141 358 118 230 c 4
490 691 m 5
 287 536 l 5
 270 550 l 5
 461 710 l 5
 490 691 l 5
EndSplineSet
Substitution2: "alt a" aacute.alt
EndChar

StartChar: acircumflex
Encoding: 226 226 215
Width: 551
VWidth: 0
Flags: HW
LayerCount: 2
Fore
SplineSet
522 460 m 1
 556 460 l 1
 475 0 l 1
 441 0 l 1
 522 460 l 1
82 230 m 0
 108 378 221 470 343 470 c 0
 463 470 520 360 497 230 c 0
 474 100 378 -10 258 -10 c 0
 136 -10 56 82 82 230 c 0
118 230 m 0
 95 102 164 23 269 23 c 0
 364 23 461 118 481 230 c 0
 501 342 437 437 342 437 c 0
 237 437 141 358 118 230 c 0
384 663 m 1
 226 543 l 1
 206 562 l 1
 391 702 l 1
 526 562 l 1
 500 543 l 1
 384 663 l 1
EndSplineSet
Substitution2: "alt a" acircumflex.alt
EndChar

StartChar: atilde
Encoding: 227 227 216
Width: 551
VWidth: 0
Flags: HW
LayerCount: 2
Fore
SplineSet
522 460 m 1
 556 460 l 1
 475 0 l 1
 441 0 l 1
 522 460 l 1
82 230 m 0
 108 378 221 470 343 470 c 0
 463 470 520 360 497 230 c 0
 474 100 378 -10 258 -10 c 0
 136 -10 56 82 82 230 c 0
118 230 m 0
 95 102 164 23 269 23 c 0
 364 23 461 118 481 230 c 0
 501 342 437 437 342 437 c 0
 237 437 141 358 118 230 c 0
225 557 m 1
 235 593 269 623 314 623 c 0
 373 623 376 576 430 576 c 0
 455 576 471 592 494 624 c 1
 514 607 l 1
 491 570 459 547 422 547 c 0
 367 547 355 594 310 594 c 0
 269 594 252 564 248 543 c 1
 225 557 l 1
EndSplineSet
Substitution2: "alt a" atilde.alt
EndChar

StartChar: adieresis
Encoding: 228 228 217
Width: 551
VWidth: 0
Flags: HW
LayerCount: 2
Fore
SplineSet
522 460 m 5
 556 460 l 5
 475 0 l 5
 441 0 l 5
 522 460 l 5
82 230 m 4
 108 378 221 470 343 470 c 4
 463 470 520 360 497 230 c 4
 474 100 378 -10 258 -10 c 4
 136 -10 56 82 82 230 c 4
118 230 m 4
 95 102 164 23 269 23 c 4
 364 23 461 118 481 230 c 4
 501 342 437 437 342 437 c 4
 237 437 141 358 118 230 c 4
451 589 m 4
 454 604 468 616 482 616 c 4
 496 616 507 604 504 589 c 4
 501 574 486 562 472 562 c 4
 458 562 448 574 451 589 c 4
251 589 m 4
 254 604 268 616 282 616 c 4
 296 616 307 604 304 589 c 4
 301 574 286 562 272 562 c 4
 258 562 248 574 251 589 c 4
EndSplineSet
Substitution2: "alt a" adieresis.alt
EndChar

StartChar: aring
Encoding: 229 229 218
Width: 551
VWidth: 0
Flags: HW
LayerCount: 2
Fore
SplineSet
522 460 m 1
 556 460 l 1
 475 0 l 1
 441 0 l 1
 522 460 l 1
82 230 m 0
 108 378 221 470 343 470 c 0
 463 470 520 360 497 230 c 0
 474 100 378 -10 258 -10 c 0
 136 -10 56 82 82 230 c 0
118 230 m 0
 95 102 164 23 269 23 c 0
 364 23 461 118 481 230 c 0
 501 342 437 437 342 437 c 0
 237 437 141 358 118 230 c 0
276 630 m 0
 287 690 344 730 396 730 c 0
 448 730 491 690 480 630 c 0
 469 570 412 530 360 530 c 0
 308 530 265 570 276 630 c 0
301 630 m 0
 293 584 325 553 365 553 c 0
 405 553 447 584 455 630 c 0
 463 676 432 707 392 707 c 0
 352 707 309 676 301 630 c 0
EndSplineSet
Substitution2: "alt a" aring.alt
EndChar

StartChar: germandbls
Encoding: 223 223 219
Width: 544
VWidth: 0
Flags: HW
LayerCount: 2
Fore
SplineSet
187 606 m 1
 222 606 l 1
 115 0 l 1
 80 0 l 1
 187 606 l 1
316 438 m 1
 321 463 l 1
 431 463 513 508 530 602 c 0
 545 687 513 757 397 757 c 0
 311 757 238 695 222 606 c 1
 187 606 l 1
 206 715 298 790 403 790 c 0
 538 790 585 715 566 606 c 0
 547 500 471 438 316 438 c 1
263 23 m 1
 375 23 482 107 504 229 c 0
 527 358 425 429 315 429 c 1
 319 454 l 1
 474 454 562 358 539 225 c 0
 514 86 392 -10 257 -10 c 1
 263 23 l 1
EndSplineSet
EndChar

StartChar: ae
Encoding: 230 230 220
Width: 825
VWidth: 0
Flags: HW
LayerCount: 2
Fore
SplineSet
95 133 m 0
 84 71 117 22 203 22 c 0
 288 22 366 86 381 172 c 1
 400 153 l 1
 384 64 295 -10 197 -10 c 0
 90 -10 45 50 59 130 c 0
 76 229 168 283 276 283 c 0
 358 283 394 245 406 231 c 1
 402 208 l 1
 378 231 336 254 272 254 c 0
 178 254 108 208 95 133 c 0
161 379 m 1
 147 407 l 1
 185 435 242 470 325 470 c 0
 417 470 450 409 436 330 c 2
 404 149 l 1
 377 149 l 1
 407 320 l 2
 418 383 393 438 317 438 c 0
 245 438 192 403 161 379 c 1
417 221 m 1
 422 252 l 1
 819 252 l 1
 825 221 l 1
 417 221 l 1
794 250 m 2
 815 367 744 438 654 438 c 0
 542 438 450 353 431 244 c 1
 428 233 l 1
 406 108 468 23 571 23 c 0
 670 23 727 69 774 126 c 1
 799 107 l 1
 741 37 680 -10 561 -10 c 0
 442 -10 371 91 396 230 c 0
 399 247 407 263 413 279 c 0
 452 392 543 470 666 470 c 0
 757 470 857 391 831 246 c 0
 830 238 827 229 825 221 c 1
 791 230 l 1
 794 250 l 2
EndSplineSet
EndChar

StartChar: ccedilla
Encoding: 231 231 221
Width: 484
VWidth: 0
Flags: HW
LayerCount: 2
Fore
SplineSet
113 230 m 0
 92 110 163 23 275 23 c 0
 349 23 417 61 444 93 c 1
 437 49 l 1
 406 19 338 -10 269 -10 c 0
 136 -10 52 91 77 230 c 0
 102 369 221 470 354 470 c 0
 423 470 479 440 500 411 c 1
 493 367 l 1
 478 399 422 437 348 437 c 0
 236 437 134 350 113 230 c 0
274 19 m 1
 303 19 l 1
 229 -71 l 1
 188 -98 l 1
 274 19 l 1
339 -129 m 1
 313 -129 l 1
 320 -92 295 -75 264 -75 c 0
 241 -75 214 -82 188 -98 c 1
 213 -76 l 1
 242 -60 254 -55 280 -55 c 0
 313 -55 348 -80 339 -129 c 1
339 -129 m 1
 328 -190 272 -223 217 -223 c 0
 180 -223 156 -213 133 -185 c 1
 154 -167 l 1
 175 -188 190 -197 221 -197 c 0
 263 -197 305 -174 313 -129 c 1
 339 -129 l 1
EndSplineSet
EndChar

StartChar: egrave
Encoding: 232 232 222
Width: 519
VWidth: 0
Flags: HW
LayerCount: 2
Fore
SplineSet
107 221 m 1
 112 252 l 1
 511 252 l 1
 515 221 l 1
 107 221 l 1
484 252 m 2
 503 359 441 438 341 438 c 0
 243 438 143 365 121 242 c 1
 118 231 l 1
 96 109 156 23 265 23 c 0
 364 23 424 76 464 126 c 1
 489 107 l 1
 443 51 379 -10 256 -10 c 0
 131 -10 57 92 82 231 c 0
 86 254 92 277 102 298 c 0
 144 400 238 470 347 470 c 0
 464 470 545 379 522 247 c 0
 521 239 517 229 515 221 c 1
 481 230 l 1
 484 252 l 2
242 692 m 1
 277 711 l 1
 412 551 l 1
 390 537 l 1
 242 692 l 1
EndSplineSet
EndChar

StartChar: eacute
Encoding: 233 233 223
Width: 519
VWidth: 0
Flags: HW
LayerCount: 2
Fore
SplineSet
107 221 m 1
 112 252 l 1
 511 252 l 1
 515 221 l 1
 107 221 l 1
484 252 m 2
 503 359 441 438 341 438 c 0
 243 438 143 365 121 242 c 1
 118 231 l 1
 96 109 156 23 265 23 c 0
 364 23 424 76 464 126 c 1
 489 107 l 1
 443 51 379 -10 256 -10 c 0
 131 -10 57 92 82 231 c 0
 86 254 92 277 102 298 c 0
 144 400 238 470 347 470 c 0
 464 470 545 379 522 247 c 0
 521 239 517 229 515 221 c 1
 481 230 l 1
 484 252 l 2
530 692 m 1
 328 537 l 1
 311 551 l 1
 501 711 l 1
 530 692 l 1
EndSplineSet
EndChar

StartChar: ecircumflex
Encoding: 234 234 224
Width: 519
VWidth: 0
Flags: HW
LayerCount: 2
Fore
SplineSet
107 221 m 1
 112 252 l 1
 511 252 l 1
 515 221 l 1
 107 221 l 1
484 252 m 2
 503 359 441 438 341 438 c 0
 243 438 143 365 121 242 c 1
 118 231 l 1
 96 109 156 23 265 23 c 0
 364 23 424 76 464 126 c 1
 489 107 l 1
 443 51 379 -10 256 -10 c 0
 131 -10 57 92 82 231 c 0
 86 254 92 277 102 298 c 0
 144 400 238 470 347 470 c 0
 464 470 545 379 522 247 c 0
 521 239 517 229 515 221 c 1
 481 230 l 1
 484 252 l 2
381 663 m 1
 223 543 l 1
 203 562 l 1
 388 702 l 1
 523 562 l 1
 498 543 l 1
 381 663 l 1
EndSplineSet
EndChar

StartChar: edieresis
Encoding: 235 235 225
Width: 519
VWidth: 0
Flags: HW
LayerCount: 2
Fore
SplineSet
107 221 m 1
 112 252 l 1
 511 252 l 1
 515 221 l 1
 107 221 l 1
484 252 m 2
 503 359 441 438 341 438 c 0
 243 438 143 365 121 242 c 1
 118 231 l 1
 96 109 156 23 265 23 c 0
 364 23 424 76 464 126 c 1
 489 107 l 1
 443 51 379 -10 256 -10 c 0
 131 -10 57 92 82 231 c 0
 86 254 92 277 102 298 c 0
 144 400 238 470 347 470 c 0
 464 470 545 379 522 247 c 0
 521 239 517 229 515 221 c 1
 481 230 l 1
 484 252 l 2
437 569 m 0
 440 584 455 597 469 597 c 0
 483 597 494 584 491 569 c 0
 488 554 474 543 460 543 c 0
 446 543 434 554 437 569 c 0
237 569 m 0
 240 584 255 597 269 597 c 0
 283 597 294 584 291 569 c 0
 288 554 274 543 260 543 c 0
 246 543 234 554 237 569 c 0
EndSplineSet
EndChar

StartChar: igrave
Encoding: 236 236 226
Width: 215
VWidth: 0
Flags: HW
LayerCount: 2
Fore
SplineSet
171 460 m 1
 206 460 l 1
 125 0 l 1
 90 0 l 1
 171 460 l 1
73 692 m 1
 108 711 l 1
 243 551 l 1
 221 537 l 1
 73 692 l 1
EndSplineSet
EndChar

StartChar: dotlessi
Encoding: 305 305 227
Width: 215
VWidth: 0
Flags: HW
LayerCount: 2
Fore
SplineSet
171 460 m 1
 206 460 l 1
 125 0 l 1
 90 0 l 1
 171 460 l 1
EndSplineSet
EndChar

StartChar: kgreenlandic
Encoding: 312 312 228
Width: 396
VWidth: 0
Flags: HW
LayerCount: 2
Fore
SplineSet
157 460 m 1
 193 460 l 1
 112 0 l 1
 76 0 l 1
 157 460 l 1
406 460 m 1
 453 460 l 1
 193 270 l 1
 390 0 l 1
 345 0 l 1
 147 270 l 1
 406 460 l 1
EndSplineSet
EndChar

StartChar: iacute
Encoding: 237 237 229
Width: 215
VWidth: 0
Flags: HW
LayerCount: 2
Fore
SplineSet
171 460 m 1
 206 460 l 1
 125 0 l 1
 90 0 l 1
 171 460 l 1
386 692 m 1
 184 537 l 1
 167 551 l 1
 357 711 l 1
 386 692 l 1
EndSplineSet
EndChar

StartChar: icircumflex
Encoding: 238 238 230
Width: 215
VWidth: 0
Flags: HW
LayerCount: 2
Fore
SplineSet
171 460 m 1
 206 460 l 1
 125 0 l 1
 90 0 l 1
 171 460 l 1
223 654 m 1
 64 534 l 1
 46 553 l 1
 230 693 l 1
 366 553 l 1
 339 534 l 1
 223 654 l 1
EndSplineSet
EndChar

StartChar: idieresis
Encoding: 239 239 231
Width: 215
VWidth: 0
Flags: HW
LayerCount: 2
Fore
SplineSet
171 460 m 1
 206 460 l 1
 125 0 l 1
 90 0 l 1
 171 460 l 1
268 567 m 0
 271 582 286 595 300 595 c 0
 314 595 324 582 321 567 c 0
 318 552 304 541 290 541 c 0
 276 541 265 552 268 567 c 0
94 567 m 0
 97 582 111 595 125 595 c 0
 139 595 150 582 147 567 c 0
 144 552 129 541 115 541 c 0
 101 541 91 552 94 567 c 0
EndSplineSet
EndChar

StartChar: ntilde
Encoding: 241 241 232
Width: 493
VWidth: 0
Flags: HW
LayerCount: 2
Fore
SplineSet
198 460 m 1
 117 0 l 1
 81 0 l 1
 162 460 l 1
 198 460 l 1
430 306 m 2
 444 385 420 437 339 437 c 0
 256 437 181 365 166 280 c 1
 149 280 l 1
 168 389 258 470 353 470 c 0
 448 470 484 409 466 309 c 2
 412 0 l 1
 376 0 l 1
 430 306 l 2
205 557 m 1
 215 593 249 623 294 623 c 0
 353 623 356 576 410 576 c 0
 435 576 451 592 474 624 c 1
 493 607 l 1
 470 570 439 547 402 547 c 0
 347 547 335 594 290 594 c 0
 249 594 232 564 228 543 c 1
 205 557 l 1
EndSplineSet
EndChar

StartChar: ograve
Encoding: 242 242 233
Width: 552
VWidth: 0
Flags: HW
LayerCount: 2
Fore
SplineSet
82 230 m 0
 107 369 226 470 359 470 c 0
 492 470 577 369 552 230 c 0
 527 91 407 -10 274 -10 c 0
 141 -10 57 91 82 230 c 0
118 230 m 0
 97 110 168 23 280 23 c 0
 392 23 495 110 516 230 c 0
 537 350 465 437 353 437 c 0
 241 437 139 350 118 230 c 0
254 692 m 1
 289 711 l 1
 424 551 l 1
 403 537 l 1
 254 692 l 1
EndSplineSet
EndChar

StartChar: oacute
Encoding: 243 243 234
Width: 552
VWidth: 0
Flags: HW
LayerCount: 2
Fore
SplineSet
82 230 m 0
 107 369 226 470 359 470 c 0
 492 470 577 369 552 230 c 0
 527 91 407 -10 274 -10 c 0
 141 -10 57 91 82 230 c 0
118 230 m 0
 97 110 168 23 280 23 c 0
 392 23 495 110 516 230 c 0
 537 350 465 437 353 437 c 0
 241 437 139 350 118 230 c 0
543 692 m 1
 340 537 l 1
 323 551 l 1
 514 711 l 1
 543 692 l 1
EndSplineSet
EndChar

StartChar: ocircumflex
Encoding: 244 244 235
Width: 552
VWidth: 0
Flags: HW
LayerCount: 2
Fore
SplineSet
82 230 m 0
 107 369 226 470 359 470 c 0
 492 470 577 369 552 230 c 0
 527 91 407 -10 274 -10 c 0
 141 -10 57 91 82 230 c 0
118 230 m 0
 97 110 168 23 280 23 c 0
 392 23 495 110 516 230 c 0
 537 350 465 437 353 437 c 0
 241 437 139 350 118 230 c 0
394 671 m 1
 236 550 l 1
 216 569 l 1
 401 709 l 1
 536 569 l 1
 511 550 l 1
 394 671 l 1
EndSplineSet
EndChar

StartChar: otilde
Encoding: 245 245 236
Width: 552
VWidth: 0
Flags: HW
LayerCount: 2
Fore
SplineSet
82 230 m 0
 107 369 226 470 359 470 c 0
 492 470 577 369 552 230 c 0
 527 91 407 -10 274 -10 c 0
 141 -10 57 91 82 230 c 0
118 230 m 0
 97 110 168 23 280 23 c 0
 392 23 495 110 516 230 c 0
 537 350 465 437 353 437 c 0
 241 437 139 350 118 230 c 0
234 557 m 1
 244 593 278 623 323 623 c 0
 382 623 385 576 439 576 c 0
 464 576 480 592 503 624 c 1
 523 607 l 1
 500 570 469 547 432 547 c 0
 377 547 364 594 319 594 c 0
 278 594 261 564 257 543 c 1
 234 557 l 1
EndSplineSet
EndChar

StartChar: odieresis
Encoding: 246 246 237
Width: 552
VWidth: 0
Flags: HW
LayerCount: 2
Fore
SplineSet
82 230 m 0
 107 369 226 470 359 470 c 0
 492 470 577 369 552 230 c 0
 527 91 407 -10 274 -10 c 0
 141 -10 57 91 82 230 c 0
118 230 m 0
 97 110 168 23 280 23 c 0
 392 23 495 110 516 230 c 0
 537 350 465 437 353 437 c 0
 241 437 139 350 118 230 c 0
452 580 m 0
 455 595 469 607 483 607 c 0
 497 607 508 595 505 580 c 0
 502 565 488 554 474 554 c 0
 460 554 449 565 452 580 c 0
252 580 m 0
 255 595 269 607 283 607 c 0
 297 607 308 595 305 580 c 0
 302 565 288 554 274 554 c 0
 260 554 249 565 252 580 c 0
EndSplineSet
EndChar

StartChar: ugrave
Encoding: 249 249 238
Width: 493
VWidth: 0
Flags: HW
LayerCount: 2
Fore
SplineSet
376 0 m 1
 457 460 l 1
 493 460 l 1
 412 0 l 1
 376 0 l 1
145 161 m 2
 130 75 154 23 235 23 c 0
 318 23 393 95 408 180 c 1
 425 180 l 1
 406 71 316 -10 221 -10 c 0
 126 -10 90 51 109 157 c 2
 162 460 l 1
 198 460 l 1
 145 161 l 2
227 698 m 1
 263 718 l 1
 397 558 l 1
 375 544 l 1
 227 698 l 1
EndSplineSet
EndChar

StartChar: uacute
Encoding: 250 250 239
Width: 493
VWidth: 0
Flags: HW
LayerCount: 2
Fore
SplineSet
376 0 m 1
 457 460 l 1
 493 460 l 1
 412 0 l 1
 376 0 l 1
145 161 m 2
 130 75 154 23 235 23 c 0
 318 23 393 95 408 180 c 1
 425 180 l 1
 406 71 316 -10 221 -10 c 0
 126 -10 90 51 109 157 c 2
 162 460 l 1
 198 460 l 1
 145 161 l 2
512 698 m 1
 309 544 l 1
 293 558 l 1
 484 718 l 1
 512 698 l 1
EndSplineSet
EndChar

StartChar: ucircumflex
Encoding: 251 251 240
Width: 493
VWidth: 0
Flags: HW
LayerCount: 2
Fore
SplineSet
376 0 m 1
 457 460 l 1
 493 460 l 1
 412 0 l 1
 376 0 l 1
145 161 m 2
 130 75 154 23 235 23 c 0
 318 23 393 95 408 180 c 1
 425 180 l 1
 406 71 316 -10 221 -10 c 0
 126 -10 90 51 109 157 c 2
 162 460 l 1
 198 460 l 1
 145 161 l 2
363 664 m 1
 205 544 l 1
 185 563 l 1
 370 703 l 1
 505 563 l 1
 480 544 l 1
 363 664 l 1
EndSplineSet
EndChar

StartChar: udieresis
Encoding: 252 252 241
Width: 493
VWidth: 0
Flags: HW
LayerCount: 2
Fore
SplineSet
376 0 m 1
 457 460 l 1
 493 460 l 1
 412 0 l 1
 376 0 l 1
145 161 m 2
 130 75 154 23 235 23 c 0
 318 23 393 95 408 180 c 1
 425 180 l 1
 406 71 316 -10 221 -10 c 0
 126 -10 90 51 109 157 c 2
 162 460 l 1
 198 460 l 1
 145 161 l 2
409 577 m 0
 412 592 426 604 440 604 c 0
 454 604 466 592 463 577 c 0
 460 562 444 550 430 550 c 0
 416 550 406 562 409 577 c 0
234 577 m 0
 237 592 252 604 266 604 c 0
 280 604 291 592 288 577 c 0
 285 562 270 550 256 550 c 0
 242 550 231 562 234 577 c 0
EndSplineSet
EndChar

StartChar: yacute
Encoding: 253 253 242
Width: 430
VWidth: 0
Flags: HW
LayerCount: 2
Fore
SplineSet
505 460 m 1
 85 -220 l 1
 46 -220 l 1
 204 36 l 1
 87 460 l 1
 129 460 l 1
 237 49 l 1
 218 50 l 1
 466 460 l 1
 505 460 l 1
483 692 m 1
 281 537 l 1
 264 551 l 1
 454 711 l 1
 483 692 l 1
EndSplineSet
EndChar

StartChar: thorn
Encoding: 254 254 243
Width: 551
VWidth: 0
Flags: HW
LayerCount: 2
Fore
SplineSet
186 420 m 1
 44 -220 l 1
 101 140 l 1
 243 780 l 1
 186 420 l 1
551 230 m 0
 525 82 411 -10 289 -10 c 0
 169 -10 113 100 136 230 c 0
 159 360 254 470 374 470 c 0
 496 470 577 378 551 230 c 0
516 230 m 0
 539 358 468 437 363 437 c 0
 268 437 173 342 153 230 c 0
 133 118 195 23 290 23 c 0
 395 23 493 102 516 230 c 0
EndSplineSet
EndChar

StartChar: ydieresis
Encoding: 255 255 244
Width: 430
VWidth: 0
Flags: HW
LayerCount: 2
Fore
SplineSet
505 460 m 1
 85 -220 l 1
 46 -220 l 1
 204 36 l 1
 87 460 l 1
 129 460 l 1
 237 49 l 1
 218 50 l 1
 466 460 l 1
 505 460 l 1
376 569 m 0
 379 584 393 597 407 597 c 0
 421 597 432 584 429 569 c 0
 426 554 412 543 398 543 c 0
 384 543 373 554 376 569 c 0
201 569 m 0
 204 584 219 597 233 597 c 0
 247 597 258 584 255 569 c 0
 252 554 238 543 224 543 c 0
 210 543 198 554 201 569 c 0
EndSplineSet
EndChar

StartChar: Amacron
Encoding: 256 256 245
Width: 621
VWidth: 0
Flags: HW
LayerCount: 2
Fore
SplineSet
178 250 m 1
 195 285 l 1
 527 285 l 1
 532 250 l 1
 178 250 l 1
423 635 m 1
 212 272 l 1
 206 263 l 1
 53 0 l 1
 11 0 l 1
 438 722 l 1
 610 0 l 1
 568 0 l 1
 509 261 l 1
 508 270 l 1
 423 635 l 1
276 795 m 1
 282 828 l 1
 632 828 l 1
 626 795 l 1
 276 795 l 1
EndSplineSet
EndChar

StartChar: amacron
Encoding: 257 257 246
Width: 551
VWidth: 0
Flags: HW
LayerCount: 2
Fore
SplineSet
522 460 m 1
 556 460 l 1
 475 0 l 1
 441 0 l 1
 522 460 l 1
82 230 m 0
 108 378 221 470 343 470 c 0
 463 470 520 360 497 230 c 0
 474 100 378 -10 258 -10 c 0
 136 -10 56 82 82 230 c 0
118 230 m 0
 95 102 164 23 269 23 c 0
 364 23 461 118 481 230 c 0
 501 342 437 437 342 437 c 0
 237 437 141 358 118 230 c 0
184 543 m 1
 190 576 l 1
 540 576 l 1
 534 543 l 1
 184 543 l 1
EndSplineSet
Substitution2: "alt a" amacron.alt
EndChar

StartChar: breve
Encoding: 728 728 247
Width: 546
VWidth: 0
Flags: HW
LayerCount: 2
Fore
SplineSet
265 850 m 1
 297 850 l 1
 288 798 319 740 403 740 c 0
 487 740 540 798 549 850 c 1
 581 850 l 1
 569 781 503 710 398 710 c 0
 293 710 253 781 265 850 c 1
EndSplineSet
EndChar

StartChar: Abreve
Encoding: 258 258 248
Width: 621
VWidth: 0
Flags: HW
LayerCount: 2
Fore
SplineSet
178 250 m 5
 195 285 l 5
 527 285 l 5
 532 250 l 5
 178 250 l 5
423 635 m 5
 212 272 l 5
 206 263 l 5
 53 0 l 5
 11 0 l 5
 438 722 l 5
 610 0 l 5
 568 0 l 5
 509 261 l 5
 508 270 l 5
 423 635 l 5
317 929 m 5
 349 929 l 5
 340 877 371 818 455 818 c 4
 539 818 592 877 601 929 c 5
 633 929 l 5
 621 860 555 789 450 789 c 4
 345 789 305 860 317 929 c 5
EndSplineSet
EndChar

StartChar: abreve
Encoding: 259 259 249
Width: 551
VWidth: 0
Flags: HW
LayerCount: 2
Fore
SplineSet
522 460 m 5
 556 460 l 5
 475 0 l 5
 441 0 l 5
 522 460 l 5
82 230 m 4
 108 378 221 470 343 470 c 4
 463 470 520 360 497 230 c 4
 474 100 378 -10 258 -10 c 4
 136 -10 56 82 82 230 c 4
118 230 m 4
 95 102 164 23 269 23 c 4
 364 23 461 118 481 230 c 4
 501 342 437 437 342 437 c 4
 237 437 141 358 118 230 c 4
222 683 m 5
 254 683 l 5
 245 631 277 573 361 573 c 4
 445 573 497 631 506 683 c 5
 538 683 l 5
 526 614 461 543 356 543 c 4
 251 543 210 614 222 683 c 5
EndSplineSet
Substitution2: "alt a" abreve.alt
EndChar

StartChar: Aogonek
Encoding: 260 260 250
Width: 621
VWidth: 0
Flags: HW
LayerCount: 2
Fore
SplineSet
178 250 m 1
 195 285 l 1
 527 285 l 1
 532 250 l 1
 178 250 l 1
423 635 m 1
 212 272 l 1
 206 263 l 1
 53 0 l 1
 11 0 l 1
 438 722 l 1
 610 0 l 1
 568 0 l 1
 509 261 l 1
 508 270 l 1
 423 635 l 1
602 -157 m 1
 614 -180 l 1
 595 -200 556 -220 513 -220 c 0
 442 -220 410 -186 419 -133 c 1
 455 -126 l 1
 448 -168 478 -188 521 -188 c 0
 556 -188 585 -173 602 -157 c 1
455 -126 m 1
 419 -133 l 1
 430 -68 515 -21 591 15 c 1
 607 0 l 1
 540 -28 464 -76 455 -126 c 1
EndSplineSet
EndChar

StartChar: aogonek
Encoding: 261 261 251
Width: 550
VWidth: 0
Flags: HW
LayerCount: 2
Fore
SplineSet
522 460 m 1
 556 460 l 1
 475 0 l 1
 441 0 l 1
 522 460 l 1
82 230 m 0
 108 378 221 470 343 470 c 0
 463 470 520 360 497 230 c 0
 474 100 378 -10 258 -10 c 0
 136 -10 56 82 82 230 c 0
118 230 m 0
 95 102 164 23 269 23 c 0
 364 23 461 118 481 230 c 0
 501 342 437 437 342 437 c 0
 237 437 141 358 118 230 c 0
471 -157 m 1
 483 -180 l 1
 464 -200 425 -220 382 -220 c 0
 311 -220 279 -186 288 -133 c 1
 324 -126 l 1
 317 -168 347 -188 390 -188 c 0
 425 -188 454 -173 471 -157 c 1
324 -126 m 1
 288 -133 l 1
 299 -68 383 -21 459 15 c 1
 475 0 l 1
 408 -28 333 -76 324 -126 c 1
EndSplineSet
Substitution2: "alt a" aogonek.alt
EndChar

StartChar: Cacute
Encoding: 262 262 252
Width: 685
VWidth: 0
Flags: HW
LayerCount: 2
Fore
SplineSet
149 350 m 0
 116 163 219 30 389 30 c 0
 488 30 565 62 630 121 c 1
 621 70 l 1
 553 18 484 -9 382 -9 c 0
 188 -9 71 141 108 350 c 0
 145 559 315 709 509 709 c 0
 611 709 670 682 720 630 c 1
 711 580 l 1
 667 638 598 670 502 670 c 0
 333 670 182 539 149 350 c 0
680 923 m 1
 477 769 l 1
 460 783 l 1
 651 943 l 1
 680 923 l 1
EndSplineSet
EndChar

StartChar: cacute
Encoding: 263 263 253
Width: 484
VWidth: 0
Flags: HW
LayerCount: 2
Fore
SplineSet
113 230 m 0
 92 110 163 23 275 23 c 0
 349 23 417 61 444 93 c 1
 437 49 l 1
 406 19 338 -10 269 -10 c 0
 136 -10 52 91 77 230 c 0
 102 369 221 470 354 470 c 0
 423 470 479 440 500 411 c 1
 493 367 l 1
 478 399 422 437 348 437 c 0
 236 437 134 350 113 230 c 0
533 691 m 1
 331 536 l 1
 313 550 l 1
 504 710 l 1
 533 691 l 1
EndSplineSet
EndChar

StartChar: Ccircumflex
Encoding: 264 264 254
Width: 685
VWidth: 0
Flags: HW
LayerCount: 2
Fore
SplineSet
149 350 m 0
 116 163 219 30 389 30 c 0
 488 30 565 62 630 121 c 1
 621 70 l 1
 553 18 484 -9 382 -9 c 0
 188 -9 71 141 108 350 c 0
 145 559 315 709 509 709 c 0
 611 709 670 682 720 630 c 1
 711 580 l 1
 667 638 598 670 502 670 c 0
 333 670 182 539 149 350 c 0
541 889 m 1
 382 769 l 1
 363 788 l 1
 548 928 l 1
 683 788 l 1
 657 769 l 1
 541 889 l 1
EndSplineSet
EndChar

StartChar: ccircumflex
Encoding: 265 265 255
Width: 484
VWidth: 0
Flags: HW
LayerCount: 2
Fore
SplineSet
113 230 m 0
 92 110 163 23 275 23 c 0
 349 23 417 61 444 93 c 1
 437 49 l 1
 406 19 338 -10 269 -10 c 0
 136 -10 52 91 77 230 c 0
 102 369 221 470 354 470 c 0
 423 470 479 440 500 411 c 1
 493 367 l 1
 478 399 422 437 348 437 c 0
 236 437 134 350 113 230 c 0
386 651 m 1
 227 530 l 1
 208 549 l 1
 392 689 l 1
 528 549 l 1
 502 530 l 1
 386 651 l 1
EndSplineSet
EndChar

StartChar: Cdotaccent
Encoding: 266 266 256
Width: 685
VWidth: 0
Flags: HW
LayerCount: 2
Fore
SplineSet
149 350 m 0
 116 163 219 30 389 30 c 0
 488 30 565 62 630 121 c 1
 621 70 l 1
 553 18 484 -9 382 -9 c 0
 188 -9 71 141 108 350 c 0
 145 559 315 709 509 709 c 0
 611 709 670 682 720 630 c 1
 711 580 l 1
 667 638 598 670 502 670 c 0
 333 670 182 539 149 350 c 0
498 802 m 0
 501 817 516 829 530 829 c 0
 544 829 554 817 551 802 c 0
 548 787 535 775 521 775 c 0
 507 775 495 787 498 802 c 0
EndSplineSet
EndChar

StartChar: cdotaccent
Encoding: 267 267 257
Width: 484
VWidth: 0
Flags: HW
LayerCount: 2
Fore
SplineSet
113 230 m 0
 92 110 163 23 275 23 c 0
 349 23 417 61 444 93 c 1
 437 49 l 1
 406 19 338 -10 269 -10 c 0
 136 -10 52 91 77 230 c 0
 102 369 221 470 354 470 c 0
 423 470 479 440 500 411 c 1
 493 367 l 1
 478 399 422 437 348 437 c 0
 236 437 134 350 113 230 c 0
344 563 m 0
 347 578 361 590 375 590 c 0
 389 590 400 578 397 563 c 0
 394 548 380 536 366 536 c 0
 352 536 341 548 344 563 c 0
EndSplineSet
EndChar

StartChar: Ccaron
Encoding: 268 268 258
Width: 685
VWidth: 0
Flags: HW
LayerCount: 2
Fore
SplineSet
149 350 m 0
 116 163 219 30 389 30 c 0
 488 30 565 62 630 121 c 1
 621 70 l 1
 553 18 484 -9 382 -9 c 0
 188 -9 71 141 108 350 c 0
 145 559 315 709 509 709 c 0
 611 709 670 682 720 630 c 1
 711 580 l 1
 667 638 598 670 502 670 c 0
 333 670 182 539 149 350 c 0
527 813 m 1
 686 934 l 1
 705 915 l 1
 521 775 l 1
 385 915 l 1
 412 934 l 1
 527 813 l 1
EndSplineSet
EndChar

StartChar: ccaron
Encoding: 269 269 259
Width: 484
VWidth: 0
Flags: HW
LayerCount: 2
Fore
SplineSet
113 230 m 0
 92 110 163 23 275 23 c 0
 349 23 417 61 444 93 c 1
 437 49 l 1
 406 19 338 -10 269 -10 c 0
 136 -10 52 91 77 230 c 0
 102 369 221 470 354 470 c 0
 423 470 479 440 500 411 c 1
 493 367 l 1
 478 399 422 437 348 437 c 0
 236 437 134 350 113 230 c 0
373 581 m 1
 532 702 l 1
 551 683 l 1
 367 543 l 1
 231 683 l 1
 258 702 l 1
 373 581 l 1
EndSplineSet
EndChar

StartChar: Dcaron
Encoding: 270 270 260
Width: 651
VWidth: 0
Flags: HW
LayerCount: 2
Fore
SplineSet
223 663 m 1
 229 700 l 1
 387 700 l 2
 591 700 704 559 667 350 c 1
 629 350 l 1
 662 539 566 663 381 663 c 2
 223 663 l 1
264 0 m 2
 106 0 l 1
 113 37 l 1
 271 37 l 2
 456 37 596 161 629 350 c 1
 667 350 l 1
 630 141 468 0 264 0 c 2
209 700 m 1
 247 700 l 1
 124 0 l 1
 86 0 l 1
 209 700 l 1
410 813 m 1
 569 934 l 1
 588 915 l 1
 404 775 l 1
 268 915 l 1
 295 934 l 1
 410 813 l 1
EndSplineSet
EndChar

StartChar: dcaron
Encoding: 271 271 261
Width: 570
VWidth: 0
Flags: HW
LayerCount: 2
Fore
SplineSet
578 780 m 1
 613 780 l 1
 475 0 l 1
 440 0 l 1
 578 780 l 1
82 230 m 0
 108 378 221 470 343 470 c 0
 463 470 520 360 497 230 c 0
 474 100 378 -10 258 -10 c 0
 136 -10 56 82 82 230 c 0
118 230 m 0
 95 102 164 23 269 23 c 0
 364 23 461 118 481 230 c 0
 501 342 437 437 342 437 c 0
 237 437 141 358 118 230 c 0
778 770 m 1
 810 756 l 1
 656 506 l 1
 634 515 l 1
 778 770 l 1
EndSplineSet
EndChar

StartChar: Dcroat
Encoding: 272 272 262
Width: 680
VWidth: 0
Flags: HW
LayerCount: 2
Fore
SplineSet
223 663 m 1
 229 700 l 1
 387 700 l 2
 591 700 704 559 667 350 c 1
 629 350 l 1
 662 539 565 663 381 663 c 2
 223 663 l 1
264 0 m 2
 106 0 l 1
 113 37 l 1
 271 37 l 2
 455 37 596 161 629 350 c 1
 667 350 l 1
 630 141 468 0 264 0 c 2
209 700 m 1
 247 700 l 1
 124 0 l 1
 86 0 l 1
 209 700 l 1
64 332 m 1
 70 366 l 1
 370 366 l 1
 364 332 l 1
 64 332 l 1
EndSplineSet
EndChar

StartChar: dcroat
Encoding: 273 273 263
Width: 551
VWidth: 0
Flags: HW
LayerCount: 2
Fore
SplineSet
406 632 m 1
 412 665 l 1
 712 665 l 1
 706 632 l 1
 406 632 l 1
578 780 m 1
 613 780 l 1
 475 0 l 1
 440 0 l 1
 578 780 l 1
82 230 m 0
 108 379 221 470 343 470 c 0
 458 470 521 366 497 230 c 0
 473 94 373 -10 258 -10 c 0
 136 -10 56 81 82 230 c 0
118 230 m 0
 95 102 165 23 269 23 c 0
 368 23 462 124 481 230 c 0
 500 336 441 437 342 437 c 0
 238 437 141 358 118 230 c 0
EndSplineSet
EndChar

StartChar: Emacron
Encoding: 274 274 264
Width: 524
VWidth: 0
Flags: HW
LayerCount: 2
Fore
SplineSet
105 0 m 1
 111 35 l 1
 454 35 l 1
 448 0 l 1
 105 0 l 1
222 665 m 1
 228 700 l 1
 571 700 l 1
 565 665 l 1
 222 665 l 1
170 368 m 1
 176 404 l 1
 499 404 l 1
 493 368 l 1
 170 368 l 1
209 700 m 1
 247 700 l 1
 124 0 l 1
 86 0 l 1
 209 700 l 1
248 812 m 1
 254 845 l 1
 604 845 l 1
 598 812 l 1
 248 812 l 1
EndSplineSet
EndChar

StartChar: emacron
Encoding: 275 275 265
Width: 519
VWidth: 0
Flags: HW
LayerCount: 2
Fore
SplineSet
107 221 m 1
 112 252 l 1
 511 252 l 1
 515 221 l 1
 107 221 l 1
484 252 m 2
 503 359 441 438 341 438 c 0
 243 438 143 365 121 242 c 1
 118 231 l 1
 96 109 156 23 265 23 c 0
 364 23 424 76 464 126 c 1
 489 107 l 1
 443 51 379 -10 256 -10 c 0
 131 -10 57 92 82 231 c 0
 86 254 92 277 102 298 c 0
 144 400 238 470 347 470 c 0
 464 470 545 379 522 247 c 0
 521 239 517 229 515 221 c 1
 481 230 l 1
 484 252 l 2
189 572 m 1
 195 605 l 1
 545 605 l 1
 539 572 l 1
 189 572 l 1
EndSplineSet
EndChar

StartChar: Ebreve
Encoding: 276 276 266
Width: 524
VWidth: 0
Flags: HW
LayerCount: 2
Fore
SplineSet
105 0 m 1
 111 35 l 1
 454 35 l 1
 448 0 l 1
 105 0 l 1
222 665 m 1
 228 700 l 1
 571 700 l 1
 565 665 l 1
 222 665 l 1
170 368 m 1
 176 404 l 1
 499 404 l 1
 493 368 l 1
 170 368 l 1
209 700 m 1
 247 700 l 1
 124 0 l 1
 86 0 l 1
 209 700 l 1
276 909 m 1
 308 909 l 1
 299 857 331 798 415 798 c 0
 499 798 550 857 559 909 c 1
 592 909 l 1
 580 840 515 769 410 769 c 0
 305 769 264 840 276 909 c 1
EndSplineSet
EndChar

StartChar: ebreve
Encoding: 277 277 267
Width: 519
VWidth: 0
Flags: HW
LayerCount: 2
Fore
SplineSet
107 221 m 1
 112 252 l 1
 511 252 l 1
 515 221 l 1
 107 221 l 1
484 252 m 2
 503 359 441 438 341 438 c 0
 243 438 143 365 121 242 c 1
 118 231 l 1
 96 109 156 23 265 23 c 0
 364 23 424 76 464 126 c 1
 489 107 l 1
 443 51 379 -10 256 -10 c 0
 131 -10 57 92 82 231 c 0
 86 254 92 277 102 298 c 0
 144 400 238 470 347 470 c 0
 464 470 545 379 522 247 c 0
 521 239 517 229 515 221 c 1
 481 230 l 1
 484 252 l 2
226 683 m 1
 258 683 l 1
 249 631 281 573 365 573 c 0
 449 573 501 631 510 683 c 1
 542 683 l 1
 530 614 465 543 360 543 c 0
 255 543 214 614 226 683 c 1
EndSplineSet
EndChar

StartChar: Edotaccent
Encoding: 278 278 268
Width: 524
VWidth: 0
Flags: HW
LayerCount: 2
Fore
SplineSet
105 0 m 1
 111 35 l 1
 454 35 l 1
 448 0 l 1
 105 0 l 1
222 665 m 1
 228 700 l 1
 571 700 l 1
 565 665 l 1
 222 665 l 1
170 368 m 1
 176 404 l 1
 499 404 l 1
 493 368 l 1
 170 368 l 1
209 700 m 1
 247 700 l 1
 124 0 l 1
 86 0 l 1
 209 700 l 1
381 796 m 0
 384 811 398 822 412 822 c 0
 426 822 437 811 434 796 c 0
 431 781 417 769 403 769 c 0
 389 769 378 781 381 796 c 0
EndSplineSet
EndChar

StartChar: edotaccent
Encoding: 279 279 269
Width: 519
VWidth: 0
Flags: HW
LayerCount: 2
Fore
SplineSet
107 221 m 1
 112 252 l 1
 511 252 l 1
 515 221 l 1
 107 221 l 1
484 252 m 2
 503 359 441 438 341 438 c 0
 243 438 143 365 121 242 c 1
 118 231 l 1
 96 109 156 23 265 23 c 0
 364 23 424 76 464 126 c 1
 489 107 l 1
 443 51 379 -10 256 -10 c 0
 131 -10 57 92 82 231 c 0
 86 254 92 277 102 298 c 0
 144 400 238 470 347 470 c 0
 464 470 545 379 522 247 c 0
 521 239 517 229 515 221 c 1
 481 230 l 1
 484 252 l 2
337 569 m 0
 340 584 355 597 369 597 c 0
 383 597 394 584 391 569 c 0
 388 554 374 543 360 543 c 0
 346 543 334 554 337 569 c 0
EndSplineSet
EndChar

StartChar: Eogonek
Encoding: 280 280 270
Width: 524
VWidth: 0
Flags: HW
LayerCount: 2
Fore
SplineSet
105 0 m 1
 111 35 l 1
 454 35 l 1
 448 0 l 1
 105 0 l 1
222 665 m 1
 228 700 l 1
 571 700 l 1
 565 665 l 1
 222 665 l 1
170 368 m 1
 176 404 l 1
 499 404 l 1
 493 368 l 1
 170 368 l 1
209 700 m 1
 247 700 l 1
 124 0 l 1
 86 0 l 1
 209 700 l 1
441 -158 m 1
 453 -181 l 1
 434 -201 395 -221 352 -221 c 0
 281 -221 249 -186 258 -133 c 1
 294 -126 l 1
 287 -168 317 -189 360 -189 c 0
 395 -189 424 -174 441 -158 c 1
294 -126 m 1
 258 -133 l 1
 269 -68 353 -21 429 15 c 1
 446 -1 l 1
 379 -29 303 -76 294 -126 c 1
EndSplineSet
EndChar

StartChar: eogonek
Encoding: 281 281 271
Width: 519
VWidth: 0
Flags: HW
LayerCount: 2
Fore
SplineSet
107 221 m 1
 112 252 l 1
 511 252 l 1
 515 221 l 1
 107 221 l 1
484 252 m 2
 503 359 441 438 341 438 c 0
 243 438 143 365 121 242 c 1
 118 231 l 1
 96 109 156 23 265 23 c 0
 364 23 424 76 464 126 c 1
 489 107 l 1
 443 51 379 -10 256 -10 c 0
 131 -10 57 92 82 231 c 0
 86 254 92 277 102 298 c 0
 144 400 238 470 347 470 c 0
 464 470 545 379 522 247 c 0
 521 239 517 229 515 221 c 1
 481 230 l 1
 484 252 l 2
270 -165 m 1
 281 -187 l 1
 262 -207 223 -227 180 -227 c 0
 109 -227 76 -192 85 -139 c 1
 122 -132 l 1
 115 -174 145 -195 188 -195 c 0
 223 -195 253 -181 270 -165 c 1
122 -132 m 1
 85 -139 l 1
 96 -74 180 -28 256 8 c 1
 274 -8 l 1
 207 -36 131 -82 122 -132 c 1
EndSplineSet
EndChar

StartChar: Ecaron
Encoding: 282 282 272
Width: 524
VWidth: 0
Flags: HW
LayerCount: 2
Fore
SplineSet
105 0 m 1
 111 35 l 1
 454 35 l 1
 448 0 l 1
 105 0 l 1
222 665 m 1
 228 700 l 1
 571 700 l 1
 565 665 l 1
 222 665 l 1
170 368 m 1
 176 404 l 1
 499 404 l 1
 493 368 l 1
 170 368 l 1
209 700 m 1
 247 700 l 1
 124 0 l 1
 86 0 l 1
 209 700 l 1
409 807 m 1
 568 928 l 1
 587 909 l 1
 403 769 l 1
 267 909 l 1
 294 928 l 1
 409 807 l 1
EndSplineSet
EndChar

StartChar: ecaron
Encoding: 283 283 273
Width: 519
VWidth: 0
Flags: HW
LayerCount: 2
Fore
SplineSet
107 221 m 1
 112 252 l 1
 511 252 l 1
 515 221 l 1
 107 221 l 1
484 252 m 2
 503 359 441 438 341 438 c 0
 243 438 143 365 121 242 c 1
 118 231 l 1
 96 109 156 23 265 23 c 0
 364 23 424 76 464 126 c 1
 489 107 l 1
 443 51 379 -10 256 -10 c 0
 131 -10 57 92 82 231 c 0
 86 254 92 277 102 298 c 0
 144 400 238 470 347 470 c 0
 464 470 545 379 522 247 c 0
 521 239 517 229 515 221 c 1
 481 230 l 1
 484 252 l 2
366 581 m 1
 525 702 l 1
 544 683 l 1
 360 543 l 1
 224 683 l 1
 251 702 l 1
 366 581 l 1
EndSplineSet
EndChar

StartChar: Gcircumflex
Encoding: 284 284 274
Width: 768
VWidth: 0
Flags: HW
LayerCount: 2
Fore
SplineSet
470 310 m 1
 476 345 l 1
 778 345 l 1
 746 310 l 1
 470 310 l 1
778 345 m 1
 745 157 591 -9 390 -9 c 0
 192 -9 71 141 108 350 c 0
 145 559 319 709 517 709 c 0
 646 709 729 649 773 558 c 1
 741 534 l 1
 707 614 627 671 510 671 c 0
 335 671 181 539 148 350 c 0
 115 163 221 29 397 29 c 0
 578 29 711 178 740 342 c 1
 778 345 l 1
549 889 m 1
 390 769 l 1
 371 788 l 1
 556 928 l 1
 691 788 l 1
 665 769 l 1
 549 889 l 1
EndSplineSet
EndChar

StartChar: gcircumflex
Encoding: 285 285 275
Width: 551
VWidth: 0
Flags: HW
LayerCount: 2
Fore
SplineSet
497 230 m 1
 481 230 l 1
 502 349 430 437 347 437 c 0
 233 437 140 355 118 230 c 1
 82 230 l 1
 108 379 221 470 346 470 c 0
 448 470 523 379 497 230 c 1
481 230 m 1
 497 230 l 1
 471 81 363 -10 261 -10 c 0
 136 -10 56 81 82 230 c 1
 118 230 l 1
 96 105 160 23 274 23 c 0
 357 23 460 111 481 230 c 1
49 -30 m 1
 85 -30 l 1
 68 -128 123 -197 224 -197 c 0
 318 -197 417 -131 442 10 c 2
 521 460 l 1
 556 460 l 1
 477 10 l 2
 449 -149 333 -230 218 -230 c 0
 96 -230 28 -149 49 -30 c 1
375 651 m 1
 215 530 l 1
 197 549 l 1
 381 689 l 1
 517 549 l 1
 490 530 l 1
 375 651 l 1
EndSplineSet
EndChar

StartChar: Gbreve
Encoding: 286 286 276
Width: 768
VWidth: 0
Flags: HW
LayerCount: 2
Fore
SplineSet
470 310 m 1
 476 345 l 1
 778 345 l 1
 746 310 l 1
 470 310 l 1
778 345 m 1
 745 157 591 -9 390 -9 c 0
 192 -9 71 141 108 350 c 0
 145 559 319 709 517 709 c 0
 646 709 729 649 773 558 c 1
 741 534 l 1
 707 614 627 671 510 671 c 0
 335 671 181 539 148 350 c 0
 115 163 221 29 397 29 c 0
 578 29 711 178 740 342 c 1
 778 345 l 1
396 921 m 1
 428 921 l 1
 419 869 451 811 535 811 c 0
 619 811 671 869 680 921 c 1
 712 921 l 1
 700 852 635 781 530 781 c 0
 425 781 384 852 396 921 c 1
EndSplineSet
EndChar

StartChar: gbreve
Encoding: 287 287 277
Width: 551
VWidth: 0
Flags: HW
LayerCount: 2
Fore
SplineSet
497 230 m 1
 481 230 l 1
 502 349 430 437 347 437 c 0
 233 437 140 355 118 230 c 1
 82 230 l 1
 108 379 221 470 346 470 c 0
 448 470 523 379 497 230 c 1
481 230 m 1
 497 230 l 1
 471 81 363 -10 261 -10 c 0
 136 -10 56 81 82 230 c 1
 118 230 l 1
 96 105 160 23 274 23 c 0
 357 23 460 111 481 230 c 1
49 -30 m 1
 85 -30 l 1
 68 -128 123 -197 224 -197 c 0
 318 -197 417 -131 442 10 c 2
 521 460 l 1
 556 460 l 1
 477 10 l 2
 449 -149 333 -230 218 -230 c 0
 96 -230 28 -149 49 -30 c 1
222 683 m 1
 254 683 l 1
 245 631 277 573 361 573 c 0
 445 573 497 631 506 683 c 1
 538 683 l 1
 526 614 461 543 356 543 c 0
 251 543 210 614 222 683 c 1
EndSplineSet
EndChar

StartChar: Gdotaccent
Encoding: 288 288 278
Width: 768
VWidth: 0
Flags: HW
LayerCount: 2
Fore
SplineSet
470 310 m 1
 476 345 l 1
 778 345 l 1
 746 310 l 1
 470 310 l 1
778 345 m 1
 745 157 591 -9 390 -9 c 0
 192 -9 71 141 108 350 c 0
 145 559 319 709 517 709 c 0
 646 709 729 649 773 558 c 1
 741 534 l 1
 707 614 627 671 510 671 c 0
 335 671 181 539 148 350 c 0
 115 163 221 29 397 29 c 0
 578 29 711 178 740 342 c 1
 778 345 l 1
505 796 m 0
 508 811 523 822 537 822 c 0
 551 822 561 811 558 796 c 0
 555 781 542 769 528 769 c 0
 514 769 502 781 505 796 c 0
EndSplineSet
EndChar

StartChar: gdotaccent
Encoding: 289 289 279
Width: 551
VWidth: 0
Flags: HW
LayerCount: 2
Fore
SplineSet
497 230 m 1
 481 230 l 1
 502 349 430 437 347 437 c 0
 233 437 140 355 118 230 c 1
 82 230 l 1
 108 379 221 470 346 470 c 0
 448 470 523 379 497 230 c 1
481 230 m 1
 497 230 l 1
 471 81 363 -10 261 -10 c 0
 136 -10 56 81 82 230 c 1
 118 230 l 1
 96 105 160 23 274 23 c 0
 357 23 460 111 481 230 c 1
49 -30 m 1
 85 -30 l 1
 68 -128 123 -197 224 -197 c 0
 318 -197 417 -131 442 10 c 2
 521 460 l 1
 556 460 l 1
 477 10 l 2
 449 -149 333 -230 218 -230 c 0
 96 -230 28 -149 49 -30 c 1
331 557 m 0
 334 572 349 584 363 584 c 0
 377 584 387 572 384 557 c 0
 381 542 367 530 353 530 c 0
 339 530 328 542 331 557 c 0
EndSplineSet
EndChar

StartChar: uni0122
Encoding: 290 290 280
Width: 768
VWidth: 0
Flags: HW
LayerCount: 2
Fore
SplineSet
470 310 m 1
 476 345 l 1
 778 345 l 1
 746 310 l 1
 470 310 l 1
778 345 m 1
 745 157 591 -9 390 -9 c 0
 192 -9 71 141 108 350 c 0
 145 559 319 709 517 709 c 0
 646 709 729 649 773 558 c 1
 741 534 l 1
 707 614 627 671 510 671 c 0
 335 671 181 539 148 350 c 0
 115 163 221 29 397 29 c 0
 578 29 711 178 740 342 c 1
 778 345 l 1
411 -69 m 1
 444 -83 l 1
 290 -333 l 1
 267 -324 l 1
 411 -69 l 1
EndSplineSet
EndChar

StartChar: Hcircumflex
Encoding: 292 292 281
Width: 671
VWidth: 0
Flags: HW
LayerCount: 2
Fore
SplineSet
169 364 m 1
 175 399 l 1
 642 399 l 1
 636 364 l 1
 169 364 l 1
670 700 m 1
 708 700 l 1
 585 0 l 1
 547 0 l 1
 670 700 l 1
209 700 m 1
 247 700 l 1
 124 0 l 1
 86 0 l 1
 209 700 l 1
493 889 m 1
 334 769 l 1
 315 788 l 1
 500 928 l 1
 635 788 l 1
 609 769 l 1
 493 889 l 1
EndSplineSet
EndChar

StartChar: hcircumflex
Encoding: 293 293 282
Width: 493
VWidth: 0
Flags: HW
LayerCount: 2
Fore
SplineSet
255 780 m 1
 117 0 l 1
 81 0 l 1
 219 780 l 1
 255 780 l 1
430 306 m 2
 444 385 420 437 339 437 c 0
 256 437 181 365 166 280 c 1
 149 280 l 1
 168 389 258 470 353 470 c 0
 448 470 484 409 466 309 c 2
 412 0 l 1
 376 0 l 1
 430 306 l 2
275 961 m 1
 117 840 l 1
 97 859 l 1
 282 999 l 1
 417 859 l 1
 391 840 l 1
 275 961 l 1
EndSplineSet
EndChar

StartChar: Itilde
Encoding: 296 296 283
Width: 203
VWidth: 0
Flags: HW
LayerCount: 2
Fore
SplineSet
206 700 m 1
 243 700 l 1
 120 0 l 1
 83 0 l 1
 206 700 l 1
114 823 m 1
 124 859 158 889 203 889 c 0
 262 889 264 842 318 842 c 0
 343 842 360 858 383 890 c 1
 402 873 l 1
 379 836 348 812 311 812 c 0
 256 812 243 859 198 859 c 0
 157 859 140 829 136 808 c 1
 114 823 l 1
EndSplineSet
EndChar

StartChar: itilde
Encoding: 297 297 284
Width: 215
VWidth: 0
Flags: HW
LayerCount: 2
Fore
SplineSet
171 460 m 1
 206 460 l 1
 125 0 l 1
 90 0 l 1
 171 460 l 1
79 583 m 1
 89 619 122 649 167 649 c 0
 226 649 229 602 283 602 c 0
 308 602 325 618 348 650 c 1
 367 633 l 1
 344 596 313 572 276 572 c 0
 221 572 208 619 163 619 c 0
 122 619 105 589 101 568 c 1
 79 583 l 1
EndSplineSet
EndChar

StartChar: Imacron
Encoding: 298 298 285
Width: 203
VWidth: 0
Flags: HW
LayerCount: 2
Fore
SplineSet
206 700 m 1
 243 700 l 1
 120 0 l 1
 83 0 l 1
 206 700 l 1
91 812 m 1
 97 845 l 1
 447 845 l 1
 441 812 l 1
 91 812 l 1
EndSplineSet
EndChar

StartChar: imacron
Encoding: 299 299 286
Width: 215
VWidth: 0
Flags: HW
LayerCount: 2
Fore
SplineSet
171 460 m 1
 206 460 l 1
 125 0 l 1
 90 0 l 1
 171 460 l 1
56 572 m 1
 62 605 l 1
 412 605 l 1
 406 572 l 1
 56 572 l 1
EndSplineSet
EndChar

StartChar: Ibreve
Encoding: 300 300 287
Width: 203
VWidth: 0
Flags: HW
LayerCount: 2
Fore
SplineSet
206 700 m 1
 243 700 l 1
 120 0 l 1
 83 0 l 1
 206 700 l 1
103 910 m 1
 135 910 l 1
 126 858 158 800 242 800 c 0
 326 800 377 858 386 910 c 1
 419 910 l 1
 407 841 342 770 237 770 c 0
 132 770 91 841 103 910 c 1
EndSplineSet
EndChar

StartChar: ibreve
Encoding: 301 301 288
Width: 215
VWidth: 0
Flags: HW
LayerCount: 2
Fore
SplineSet
171 460 m 1
 206 460 l 1
 125 0 l 1
 90 0 l 1
 171 460 l 1
68 670 m 1
 100 670 l 1
 91 618 123 560 207 560 c 0
 291 560 342 618 351 670 c 1
 384 670 l 1
 372 601 306 530 201 530 c 0
 96 530 56 601 68 670 c 1
EndSplineSet
EndChar

StartChar: Iogonek
Encoding: 302 302 289
Width: 203
VWidth: 0
Flags: HW
LayerCount: 2
Fore
SplineSet
206 700 m 1
 243 700 l 1
 120 0 l 1
 83 0 l 1
 206 700 l 1
114 -163 m 1
 127 -186 l 1
 108 -206 69 -226 26 -226 c 0
 -45 -226 -79 -192 -70 -139 c 1
 -32 -132 l 1
 -39 -174 -10 -194 33 -194 c 0
 68 -194 97 -179 114 -163 c 1
-32 -132 m 1
 -70 -139 l 1
 -59 -74 27 -27 103 9 c 1
 119 -6 l 1
 52 -34 -23 -82 -32 -132 c 1
EndSplineSet
EndChar

StartChar: iogonek
Encoding: 303 303 290
Width: 215
VWidth: 0
Flags: HW
LayerCount: 2
Fore
SplineSet
201 679 m 0
 203 693 217 705 232 705 c 0
 247 705 256 693 254 679 c 0
 252 665 238 653 223 653 c 0
 208 653 199 665 201 679 c 0
171 460 m 1
 206 460 l 1
 125 0 l 1
 90 0 l 1
 171 460 l 1
120 -163 m 1
 133 -186 l 1
 114 -206 74 -226 31 -226 c 0
 -40 -226 -73 -192 -64 -139 c 1
 -27 -132 l 1
 -34 -174 -4 -194 39 -194 c 0
 74 -194 103 -179 120 -163 c 1
-27 -132 m 1
 -64 -139 l 1
 -53 -74 32 -27 108 9 c 1
 125 -6 l 1
 58 -34 -18 -82 -27 -132 c 1
EndSplineSet
EndChar

StartChar: Idotaccent
Encoding: 304 304 291
Width: 203
VWidth: 0
Flags: HW
LayerCount: 2
Fore
SplineSet
206 700 m 1
 243 700 l 1
 120 0 l 1
 83 0 l 1
 206 700 l 1
216 800 m 0
 219 815 233 827 247 827 c 0
 261 827 273 815 270 800 c 0
 267 785 251 773 237 773 c 0
 223 773 213 785 216 800 c 0
EndSplineSet
EndChar

StartChar: uni0136
Encoding: 310 310 292
Width: 493
VWidth: 0
Flags: HW
LayerCount: 2
Fore
SplineSet
206 700 m 1
 244 700 l 1
 121 0 l 1
 83 0 l 1
 206 700 l 1
542 700 m 1
 591 700 l 1
 223 372 l 1
 483 0 l 1
 434 0 l 1
 175 371 l 1
 542 700 l 1
329 -70 m 1
 362 -84 l 1
 208 -334 l 1
 185 -325 l 1
 329 -70 l 1
EndSplineSet
EndChar

StartChar: uni0137
Encoding: 311 311 293
Width: 396
VWidth: 0
Flags: HW
LayerCount: 2
Fore
SplineSet
214 780 m 1
 250 780 l 1
 112 0 l 1
 76 0 l 1
 214 780 l 1
406 460 m 1
 453 460 l 1
 193 270 l 1
 390 0 l 1
 345 0 l 1
 147 270 l 1
 406 460 l 1
264 -70 m 1
 297 -84 l 1
 143 -334 l 1
 120 -325 l 1
 264 -70 l 1
EndSplineSet
EndChar

StartChar: Lacute
Encoding: 313 313 294
Width: 437
VWidth: 0
Flags: HW
LayerCount: 2
Fore
SplineSet
108 0 m 1
 114 35 l 1
 427 35 l 1
 421 0 l 1
 108 0 l 1
209 700 m 1
 246 700 l 1
 123 0 l 1
 86 0 l 1
 209 700 l 1
576 923 m 1
 373 769 l 1
 356 783 l 1
 547 943 l 1
 576 923 l 1
EndSplineSet
EndChar

StartChar: lacute
Encoding: 314 314 295
Width: 198
VWidth: 0
Flags: HW
LayerCount: 2
Fore
SplineSet
219 780 m 1
 255 780 l 1
 117 0 l 1
 81 0 l 1
 219 780 l 1
433 995 m 1
 230 840 l 1
 214 854 l 1
 405 1014 l 1
 433 995 l 1
EndSplineSet
EndChar

StartChar: uni013B
Encoding: 315 315 296
Width: 437
VWidth: 0
Flags: HW
LayerCount: 2
Fore
SplineSet
108 0 m 1
 114 35 l 1
 427 35 l 1
 421 0 l 1
 108 0 l 1
209 700 m 1
 246 700 l 1
 123 0 l 1
 86 0 l 1
 209 700 l 1
261 -60 m 1
 295 -74 l 1
 141 -324 l 1
 117 -315 l 1
 261 -60 l 1
EndSplineSet
EndChar

StartChar: uni013C
Encoding: 316 316 297
Width: 198
VWidth: 0
Flags: HW
LayerCount: 2
Fore
SplineSet
219 780 m 1
 255 780 l 1
 117 0 l 1
 81 0 l 1
 219 780 l 1
107 -60 m 1
 141 -74 l 1
 -13 -324 l 1
 -37 -315 l 1
 107 -60 l 1
EndSplineSet
EndChar

StartChar: Lcaron
Encoding: 317 317 298
Width: 450
VWidth: 0
Flags: HW
LayerCount: 2
Fore
SplineSet
108 0 m 1
 114 35 l 1
 427 35 l 1
 421 0 l 1
 108 0 l 1
209 700 m 1
 246 700 l 1
 123 0 l 1
 86 0 l 1
 209 700 l 1
458 700 m 1
 492 686 l 1
 338 436 l 1
 314 445 l 1
 458 700 l 1
EndSplineSet
EndChar

StartChar: lcaron
Encoding: 318 318 299
Width: 230
VWidth: 0
Flags: HW
LayerCount: 2
Fore
SplineSet
219 780 m 1
 255 780 l 1
 117 0 l 1
 81 0 l 1
 219 780 l 1
446 770 m 1
 479 756 l 1
 325 506 l 1
 302 515 l 1
 446 770 l 1
EndSplineSet
EndChar

StartChar: Ldot
Encoding: 319 319 300
Width: 437
VWidth: 0
Flags: HW
LayerCount: 2
Fore
SplineSet
108 0 m 1
 114 35 l 1
 427 35 l 1
 421 0 l 1
 108 0 l 1
209 700 m 1
 246 700 l 1
 123 0 l 1
 86 0 l 1
 209 700 l 1
346 403 m 0
 349 418 363 430 377 430 c 0
 391 430 402 418 399 403 c 0
 396 388 381 376 367 376 c 0
 353 376 343 388 346 403 c 0
EndSplineSet
EndChar

StartChar: ldot
Encoding: 320 320 301
Width: 370
VWidth: 0
Flags: HW
LayerCount: 2
Fore
SplineSet
219 780 m 1
 255 780 l 1
 117 0 l 1
 81 0 l 1
 219 780 l 1
296 403 m 0
 299 418 313 430 327 430 c 0
 341 430 352 418 349 403 c 0
 346 388 331 376 317 376 c 0
 303 376 293 388 296 403 c 0
EndSplineSet
EndChar

StartChar: eth
Encoding: 240 240 302
Width: 550
VWidth: 0
Flags: HW
LayerCount: 2
Fore
SplineSet
504 224 m 0
 522 326 463 416 341 416 c 0
 242 416 144 333 125 224 c 0
 105 109 167 24 279 24 c 0
 395 24 484 113 504 224 c 0
343 700 m 1
 516 378 l 2
 536 341 549 281 539 224 c 0
 515 86 408 -10 273 -10 c 0
 138 -10 65 86 89 224 c 0
 111 347 221 444 335 444 c 0
 399 444 447 422 476 377 c 1
 474 375 l 1
 297 700 l 1
 343 700 l 1
247 555 m 1
 252 585 l 1
 532 585 l 1
 527 555 l 1
 247 555 l 1
EndSplineSet
EndChar

StartChar: racute
Encoding: 341 341 303
Width: 308
VWidth: 0
Flags: HW
LayerCount: 2
Fore
SplineSet
198 460 m 1
 117 0 l 1
 81 0 l 1
 162 460 l 1
 198 460 l 1
351 415 m 1
 334 428 318 437 296 437 c 0
 223 437 181 365 166 280 c 1
 149 280 l 1
 168 389 231 470 309 470 c 0
 336 470 360 461 376 444 c 1
 351 415 l 1
444 685 m 1
 240 530 l 1
 224 544 l 1
 415 704 l 1
 444 685 l 1
EndSplineSet
EndChar

StartChar: rcaron
Encoding: 345 345 304
Width: 308
VWidth: 0
Flags: HW
LayerCount: 2
Fore
SplineSet
198 460 m 1
 117 0 l 1
 81 0 l 1
 162 460 l 1
 198 460 l 1
351 415 m 1
 334 428 318 437 296 437 c 0
 223 437 181 365 166 280 c 1
 149 280 l 1
 168 389 231 470 309 470 c 0
 336 470 360 461 376 444 c 1
 351 415 l 1
290 568 m 1
 447 689 l 1
 468 670 l 1
 283 530 l 1
 148 670 l 1
 174 689 l 1
 290 568 l 1
EndSplineSet
EndChar

StartChar: Rcaron
Encoding: 344 344 305
Width: 501
VWidth: 0
Flags: HW
LayerCount: 2
Fore
SplineSet
259 327 m 1
 301 327 l 1
 475 0 l 1
 429 0 l 1
 259 327 l 1
209 700 m 1
 247 700 l 1
 124 0 l 1
 86 0 l 1
 209 700 l 1
222 666 m 1
 228 700 l 1
 351 700 l 2
 486 700 576 630 553 501 c 0
 530 372 416 302 281 302 c 2
 158 302 l 1
 164 335 l 1
 287 335 l 2
 404 335 497 391 516 501 c 0
 535 611 461 666 345 666 c 2
 222 666 l 1
380 807 m 1
 539 928 l 1
 558 909 l 1
 374 769 l 1
 238 909 l 1
 265 928 l 1
 380 807 l 1
EndSplineSet
EndChar

StartChar: uni0213
Encoding: 531 531 306
Width: 308
VWidth: 0
Flags: HW
LayerCount: 2
Fore
SplineSet
198 460 m 1
 117 0 l 1
 81 0 l 1
 162 460 l 1
 198 460 l 1
351 415 m 1
 334 428 318 437 296 437 c 0
 223 437 181 365 166 280 c 1
 149 280 l 1
 168 389 231 470 309 470 c 0
 336 470 360 461 376 444 c 1
 351 415 l 1
128 543 m 1
 160 543 l 1
 169 595 221 653 305 653 c 0
 389 653 421 595 412 543 c 1
 444 543 l 1
 456 612 415 683 310 683 c 0
 205 683 140 612 128 543 c 1
EndSplineSet
EndChar

StartChar: uni0212
Encoding: 530 530 307
Width: 501
VWidth: 0
Flags: HW
LayerCount: 2
Fore
SplineSet
259 327 m 1
 301 327 l 1
 475 0 l 1
 429 0 l 1
 259 327 l 1
209 700 m 1
 247 700 l 1
 124 0 l 1
 86 0 l 1
 209 700 l 1
222 666 m 1
 228 700 l 1
 351 700 l 2
 486 700 576 630 553 501 c 0
 530 372 416 302 281 302 c 2
 158 302 l 1
 164 335 l 1
 287 335 l 2
 404 335 497 391 516 501 c 0
 535 611 461 666 345 666 c 2
 222 666 l 1
242 769 m 1
 274 769 l 1
 283 821 335 879 419 879 c 0
 503 879 535 821 526 769 c 1
 558 769 l 1
 570 838 529 909 424 909 c 0
 319 909 254 838 242 769 c 1
EndSplineSet
EndChar

StartChar: OE
Encoding: 338 338 308
Width: 963
VWidth: 0
Flags: HW
LayerCount: 2
Fore
SplineSet
598 369 m 1
 604 404 l 1
 937 404 l 1
 931 369 l 1
 598 369 l 1
636 686 m 1
 673 686 l 1
 554 14 l 1
 517 14 l 1
 636 686 l 1
893 35 m 1
 887 0 l 1
 390 0 l 2
 187 0 65 141 102 350 c 0
 139 559 309 700 513 700 c 2
 1009 700 l 1
 1003 665 l 1
 656 665 l 1
 639 665 l 1
 507 665 l 2
 327 665 172 535 139 350 c 0
 106 165 217 35 396 35 c 2
 525 35 l 1
 549 35 l 1
 893 35 l 1
EndSplineSet
EndChar

StartChar: oe
Encoding: 339 339 309
Width: 916
VWidth: 0
Flags: HW
LayerCount: 2
Fore
SplineSet
882 250 m 2
 899 349 847 438 738 438 c 0
 626 438 536 347 517 242 c 1
 515 231 l 1
 493 106 556 23 665 23 c 0
 750 23 814 66 861 126 c 1
 886 107 l 1
 828 37 758 -10 659 -10 c 0
 528 -10 462 97 485 230 c 0
 488 247 491 263 497 279 c 0
 536 392 634 470 747 470 c 0
 857 470 941 378 918 246 c 0
 917 238 915 229 913 221 c 1
 878 230 l 1
 882 250 l 2
504 221 m 1
 509 252 l 1
 910 252 l 1
 913 221 l 1
 504 221 l 1
82 230 m 0
 108 379 221 470 340 470 c 0
 452 470 528 379 502 230 c 0
 476 81 367 -10 255 -10 c 0
 136 -10 56 81 82 230 c 0
118 230 m 0
 95 102 162 23 266 23 c 0
 355 23 455 105 477 230 c 0
 499 355 428 437 339 437 c 0
 235 437 141 358 118 230 c 0
EndSplineSet
EndChar

StartChar: a.alt
Encoding: 65536 -1 310
Width: 453
VWidth: 0
Flags: HW
LayerCount: 2
Fore
SplineSet
96 135 m 0
 82 54 134 22 202 22 c 0
 288 22 365 81 380 167 c 1
 387 149 l 1
 371 60 289 -10 189 -10 c 0
 107 -10 42 34 59 131 c 0
 77 232 175 283 273 283 c 0
 355 283 390 248 406 231 c 1
 402 208 l 1
 375 234 333 254 269 254 c 0
 187 254 110 214 96 135 c 0
161 379 m 1
 147 407 l 1
 186 436 244 470 321 470 c 0
 416 470 460 413 444 324 c 2
 387 0 l 1
 351 0 l 1
 408 324 l 2
 421 396 386 438 315 438 c 0
 249 438 198 407 161 379 c 1
EndSplineSet
EndChar

StartChar: Jcircumflex
Encoding: 308 308 312
Width: 212
VWidth: 0
Flags: HW
LayerCount: 2
Fore
SplineSet
-130 -139 m 1
 -114 -162 -81 -184 -39 -184 c 0
 29 -184 64 -148 81 -50 c 2
 213 700 l 1
 249 700 l 1
 115 -60 l 2
 96 -169 47 -220 -47 -220 c 0
 -100 -220 -144 -187 -155 -167 c 1
 -130 -139 l 1
281 912 m 1
 122 791 l 1
 103 810 l 1
 288 950 l 1
 423 810 l 1
 396 791 l 1
 281 912 l 1
EndSplineSet
EndChar

StartChar: jcircumflex
Encoding: 309 309 313
Width: 205
VWidth: 0
Flags: HW
LayerCount: 2
Fore
SplineSet
-94 -146 m 1
 -83 -167 -62 -185 -33 -185 c 0
 29 -185 56 -131 67 -71 c 2
 161 460 l 1
 196 460 l 1
 102 -74 l 2
 87 -157 43 -220 -41 -220 c 0
 -84 -220 -108 -195 -119 -175 c 1
 -94 -146 l 1
238 672 m 1
 80 551 l 1
 61 570 l 1
 245 710 l 1
 381 570 l 1
 354 551 l 1
 238 672 l 1
EndSplineSet
EndChar

StartChar: Nacute
Encoding: 323 323 314
Width: 704
VWidth: 0
Flags: HW
LayerCount: 2
Fore
SplineSet
184 652 m 1
 188 722 l 1
 630 45 l 1
 627 -22 l 1
 184 652 l 1
717 700 m 1
 754 700 l 1
 627 -22 l 1
 601 38 l 1
 717 700 l 1
188 722 m 1
 214 659 l 1
 98 0 l 1
 61 0 l 1
 188 722 l 1
643 913 m 1
 441 759 l 1
 424 773 l 1
 615 933 l 1
 643 913 l 1
EndSplineSet
EndChar

StartChar: nacute
Encoding: 324 324 315
Width: 493
VWidth: 0
Flags: HW
LayerCount: 2
Fore
SplineSet
198 460 m 1
 117 0 l 1
 81 0 l 1
 162 460 l 1
 198 460 l 1
430 306 m 2
 444 385 420 437 339 437 c 0
 256 437 181 365 166 280 c 1
 149 280 l 1
 168 389 258 470 353 470 c 0
 448 470 484 409 466 309 c 2
 412 0 l 1
 376 0 l 1
 430 306 l 2
508 691 m 1
 306 536 l 1
 289 550 l 1
 480 710 l 1
 508 691 l 1
EndSplineSet
EndChar

StartChar: uni0145
Encoding: 325 325 316
Width: 704
VWidth: 0
Flags: HW
LayerCount: 2
Fore
SplineSet
184 652 m 1
 188 722 l 1
 630 45 l 1
 627 -22 l 1
 184 652 l 1
717 700 m 1
 754 700 l 1
 627 -22 l 1
 601 38 l 1
 717 700 l 1
188 722 m 1
 214 659 l 1
 98 0 l 1
 61 0 l 1
 188 722 l 1
355 -41 m 1
 389 -55 l 1
 235 -305 l 1
 211 -297 l 1
 355 -41 l 1
EndSplineSet
EndChar

StartChar: uni0146
Encoding: 326 326 317
Width: 493
VWidth: 0
Flags: HW
LayerCount: 2
Fore
SplineSet
198 460 m 1
 117 0 l 1
 81 0 l 1
 162 460 l 1
 198 460 l 1
430 306 m 2
 444 385 420 437 339 437 c 0
 256 437 181 365 166 280 c 1
 149 280 l 1
 168 389 258 470 353 470 c 0
 448 470 484 409 466 309 c 2
 412 0 l 1
 376 0 l 1
 430 306 l 2
250 -47 m 1
 284 -61 l 1
 130 -311 l 1
 107 -303 l 1
 250 -47 l 1
EndSplineSet
EndChar

StartChar: Ncaron
Encoding: 327 327 318
Width: 704
VWidth: 0
Flags: HW
LayerCount: 2
Fore
SplineSet
184 652 m 1
 188 722 l 1
 630 45 l 1
 627 -22 l 1
 184 652 l 1
717 700 m 1
 754 700 l 1
 627 -22 l 1
 601 38 l 1
 717 700 l 1
188 722 m 1
 214 659 l 1
 98 0 l 1
 61 0 l 1
 188 722 l 1
506 814 m 1
 664 935 l 1
 684 916 l 1
 499 776 l 1
 364 916 l 1
 390 935 l 1
 506 814 l 1
EndSplineSet
EndChar

StartChar: ncaron
Encoding: 328 328 319
Width: 493
VWidth: 0
Flags: HW
LayerCount: 2
Fore
SplineSet
198 460 m 1
 117 0 l 1
 81 0 l 1
 162 460 l 1
 198 460 l 1
430 306 m 2
 444 385 420 437 339 437 c 0
 256 437 181 365 166 280 c 1
 149 280 l 1
 168 389 258 470 353 470 c 0
 448 470 484 409 466 309 c 2
 412 0 l 1
 376 0 l 1
 430 306 l 2
346 568 m 1
 504 689 l 1
 524 670 l 1
 339 530 l 1
 204 670 l 1
 231 689 l 1
 346 568 l 1
EndSplineSet
EndChar

StartChar: Omacron
Encoding: 332 332 320
Width: 779
VWidth: 0
Flags: HW
LayerCount: 2
Fore
SplineSet
148 350 m 0
 115 165 218 29 395 29 c 0
 572 29 723 165 756 350 c 0
 789 535 685 671 508 671 c 0
 331 671 181 535 148 350 c 0
108 350 m 0
 144 557 317 709 515 709 c 0
 713 709 832 557 796 350 c 0
 760 143 586 -9 388 -9 c 0
 190 -9 72 143 108 350 c 0
353 781 m 1
 359 815 l 1
 709 815 l 1
 703 781 l 1
 353 781 l 1
EndSplineSet
EndChar

StartChar: omacron
Encoding: 333 333 321
Width: 552
VWidth: 0
Flags: HW
LayerCount: 2
Fore
SplineSet
82 230 m 0
 107 369 226 470 359 470 c 0
 492 470 577 369 552 230 c 0
 527 91 407 -10 274 -10 c 0
 141 -10 57 91 82 230 c 0
118 230 m 0
 97 110 168 23 280 23 c 0
 392 23 495 110 516 230 c 0
 537 350 465 437 353 437 c 0
 241 437 139 350 118 230 c 0
197 543 m 1
 203 576 l 1
 553 576 l 1
 547 543 l 1
 197 543 l 1
EndSplineSet
EndChar

StartChar: Obreve
Encoding: 334 334 322
Width: 779
VWidth: 0
Flags: HW
LayerCount: 2
Fore
SplineSet
148 350 m 0
 115 165 218 29 395 29 c 0
 572 29 723 165 756 350 c 0
 789 535 685 671 508 671 c 0
 331 671 181 535 148 350 c 0
108 350 m 0
 144 557 317 709 515 709 c 0
 713 709 832 557 796 350 c 0
 760 143 586 -9 388 -9 c 0
 190 -9 72 143 108 350 c 0
392 909 m 1
 424 909 l 1
 415 857 447 798 531 798 c 0
 615 798 667 857 676 909 c 1
 708 909 l 1
 696 840 631 769 526 769 c 0
 421 769 380 840 392 909 c 1
EndSplineSet
EndChar

StartChar: obreve
Encoding: 335 335 323
Width: 552
VWidth: 0
Flags: HW
LayerCount: 2
Fore
SplineSet
82 230 m 0
 107 369 226 470 359 470 c 0
 492 470 577 369 552 230 c 0
 527 91 407 -10 274 -10 c 0
 141 -10 57 91 82 230 c 0
118 230 m 0
 97 110 168 23 280 23 c 0
 392 23 495 110 516 230 c 0
 537 350 465 437 353 437 c 0
 241 437 139 350 118 230 c 0
236 670 m 1
 268 670 l 1
 259 618 291 560 375 560 c 0
 459 560 511 618 520 670 c 1
 552 670 l 1
 540 601 474 530 369 530 c 0
 264 530 224 601 236 670 c 1
EndSplineSet
EndChar

StartChar: Racute
Encoding: 340 340 324
Width: 501
VWidth: 0
Flags: HW
LayerCount: 2
Fore
SplineSet
259 327 m 1
 301 327 l 1
 475 0 l 1
 429 0 l 1
 259 327 l 1
209 700 m 1
 247 700 l 1
 124 0 l 1
 86 0 l 1
 209 700 l 1
222 666 m 1
 228 700 l 1
 351 700 l 2
 486 700 576 630 553 501 c 0
 530 372 416 302 281 302 c 2
 158 302 l 1
 164 335 l 1
 287 335 l 2
 404 335 497 391 516 501 c 0
 535 611 461 666 345 666 c 2
 222 666 l 1
541 923 m 1
 339 769 l 1
 321 783 l 1
 512 943 l 1
 541 923 l 1
EndSplineSet
EndChar

StartChar: uni0156
Encoding: 342 342 325
Width: 501
VWidth: 0
Flags: HW
LayerCount: 2
Fore
SplineSet
259 327 m 1
 301 327 l 1
 475 0 l 1
 429 0 l 1
 259 327 l 1
209 700 m 1
 247 700 l 1
 124 0 l 1
 86 0 l 1
 209 700 l 1
222 666 m 1
 228 700 l 1
 351 700 l 2
 486 700 576 630 553 501 c 0
 530 372 416 302 281 302 c 2
 158 302 l 1
 164 335 l 1
 287 335 l 2
 404 335 497 391 516 501 c 0
 535 611 461 666 345 666 c 2
 222 666 l 1
269 -60 m 1
 303 -74 l 1
 149 -324 l 1
 126 -315 l 1
 269 -60 l 1
EndSplineSet
EndChar

StartChar: uni0157
Encoding: 343 343 326
Width: 308
VWidth: 0
Flags: HW
LayerCount: 2
Fore
SplineSet
198 460 m 1
 117 0 l 1
 81 0 l 1
 162 460 l 1
 198 460 l 1
351 415 m 1
 334 428 318 437 296 437 c 0
 223 437 181 365 166 280 c 1
 149 280 l 1
 168 389 231 470 309 470 c 0
 336 470 360 461 376 444 c 1
 351 415 l 1
94 -60 m 1
 128 -74 l 1
 -26 -324 l 1
 -50 -315 l 1
 94 -60 l 1
EndSplineSet
EndChar

StartChar: Scedilla
Encoding: 350 350 327
Width: 509
VWidth: 0
Flags: HW
LayerCount: 2
Fore
SplineSet
108 207 m 1
 124 116 165 27 274 27 c 0
 386 27 441 90 457 178 c 0
 474 276 395 322 323 351 c 0
 252 379 154 433 174 545 c 0
 192 645 286 709 387 709 c 0
 500 709 548 625 557 554 c 1
 523 536 l 1
 511 600 477 672 381 672 c 0
 298 672 227 619 213 542 c 0
 197 453 280 410 359 378 c 0
 433 349 517 295 497 180 c 0
 478 74 405 -9 266 -9 c 0
 145 -9 89 85 73 189 c 1
 108 207 l 1
272 21 m 1
 300 21 l 1
 226 -69 l 1
 184 -96 l 1
 272 21 l 1
337 -127 m 1
 310 -127 l 1
 317 -90 292 -73 261 -73 c 0
 238 -73 210 -80 184 -96 c 1
 209 -74 l 1
 238 -58 251 -53 277 -53 c 0
 310 -53 346 -78 337 -127 c 1
337 -127 m 1
 326 -188 268 -221 213 -221 c 0
 176 -221 154 -211 131 -183 c 1
 150 -165 l 1
 171 -186 187 -195 218 -195 c 0
 260 -195 302 -172 310 -127 c 1
 337 -127 l 1
EndSplineSet
EndChar

StartChar: scedilla
Encoding: 351 351 328
Width: 403
VWidth: 0
Flags: HW
LayerCount: 2
Fore
SplineSet
92 152 m 1
 93 86 123 23 206 23 c 0
 270 23 321 58 332 119 c 0
 343 179 292 204 233 225 c 0
 168 247 110 272 125 355 c 0
 138 428 209 469 282 469 c 0
 360 469 402 423 411 372 c 1
 378 355 l 1
 366 397 335 435 276 435 c 0
 220 435 169 409 159 354 c 0
 148 289 204 271 263 250 c 0
 324 228 381 192 369 122 c 0
 354 36 284 -10 198 -10 c 0
 100 -10 60 61 59 136 c 1
 92 152 l 1
203 19 m 1
 233 19 l 1
 157 -71 l 1
 118 -98 l 1
 203 19 l 1
269 -128 m 1
 242 -128 l 1
 249 -91 225 -75 194 -75 c 0
 171 -75 144 -82 118 -98 c 1
 143 -75 l 1
 172 -59 183 -54 209 -54 c 0
 242 -54 278 -79 269 -128 c 1
269 -128 m 1
 258 -189 201 -222 146 -222 c 0
 109 -222 87 -212 64 -184 c 1
 83 -166 l 1
 104 -187 119 -196 150 -196 c 0
 192 -196 234 -173 242 -128 c 1
 269 -128 l 1
EndSplineSet
EndChar

StartChar: Zcaron
Encoding: 381 381 329
Width: 538
VWidth: 0
Flags: HW
LayerCount: 2
Fore
SplineSet
155 664 m 1
 161 700 l 1
 645 700 l 1
 90 36 l 1
 514 36 l 1
 508 0 l 1
 18 0 l 1
 573 664 l 1
 155 664 l 1
422 807 m 1
 581 928 l 1
 600 909 l 1
 416 769 l 1
 280 909 l 1
 307 928 l 1
 422 807 l 1
EndSplineSet
EndChar

StartChar: zcaron
Encoding: 382 382 330
Width: 440
VWidth: 0
Flags: HW
LayerCount: 2
Fore
SplineSet
63 33 m 1
 421 33 l 1
 415 0 l 1
 18 0 l 1
 63 33 l 1
123 460 m 1
 497 460 l 1
 456 427 l 1
 117 427 l 1
 123 460 l 1
457 460 m 1
 497 460 l 1
 59 0 l 1
 18 0 l 1
 457 460 l 1
345 568 m 1
 503 689 l 1
 523 670 l 1
 338 530 l 1
 203 670 l 1
 229 689 l 1
 345 568 l 1
EndSplineSet
EndChar

StartChar: Ydieresis
Encoding: 376 376 331
Width: 526
VWidth: 0
Flags: HW
LayerCount: 2
Fore
SplineSet
295 306 m 1
 333 306 l 1
 279 0 l 1
 241 0 l 1
 295 306 l 1
595 700 m 1
 638 700 l 1
 302 246 l 1
 134 700 l 1
 177 700 l 1
 315 315 l 1
 595 700 l 1
470 796 m 0
 473 811 488 822 502 822 c 0
 516 822 527 811 524 796 c 0
 521 781 507 769 493 769 c 0
 479 769 467 781 470 796 c 0
282 796 m 0
 285 811 301 822 315 822 c 0
 329 822 340 811 337 796 c 0
 334 781 320 769 306 769 c 0
 292 769 279 781 282 796 c 0
EndSplineSet
EndChar

StartChar: Scaron
Encoding: 352 352 332
Width: 509
VWidth: 0
Flags: HW
LayerCount: 2
Fore
SplineSet
108 207 m 1
 124 116 165 27 274 27 c 0
 386 27 441 90 457 178 c 0
 474 276 395 322 323 351 c 0
 252 379 154 433 174 545 c 0
 192 645 286 709 387 709 c 0
 500 709 548 625 557 554 c 1
 523 536 l 1
 511 600 477 672 381 672 c 0
 298 672 227 619 213 542 c 0
 197 453 280 410 359 378 c 0
 433 349 517 295 497 180 c 0
 478 74 405 -9 266 -9 c 0
 145 -9 89 85 73 189 c 1
 108 207 l 1
405 813 m 1
 564 934 l 1
 583 915 l 1
 399 775 l 1
 263 915 l 1
 290 934 l 1
 405 813 l 1
EndSplineSet
EndChar

StartChar: scaron
Encoding: 353 353 333
Width: 403
VWidth: 0
Flags: HW
LayerCount: 2
Fore
SplineSet
92 152 m 1
 93 86 123 23 206 23 c 0
 270 23 321 58 332 119 c 0
 343 179 292 204 233 225 c 0
 168 247 110 272 125 355 c 0
 138 428 209 469 282 469 c 0
 360 469 402 423 411 372 c 1
 378 355 l 1
 366 397 335 435 276 435 c 0
 220 435 169 409 159 354 c 0
 148 289 204 271 263 250 c 0
 324 228 381 192 369 122 c 0
 354 36 284 -10 198 -10 c 0
 100 -10 60 61 59 136 c 1
 92 152 l 1
299 568 m 1
 457 689 l 1
 477 670 l 1
 292 530 l 1
 157 670 l 1
 183 689 l 1
 299 568 l 1
EndSplineSet
EndChar

StartChar: Lslash
Encoding: 321 321 334
Width: 402
VWidth: 0
Flags: HW
LayerCount: 2
Fore
SplineSet
61 370 m 1
 55 395 l 1
 355 565 l 1
 361 540 l 1
 61 370 l 1
100 0 m 1
 106 35 l 1
 398 35 l 1
 392 0 l 1
 100 0 l 1
203 700 m 1
 240 700 l 1
 117 0 l 1
 80 0 l 1
 203 700 l 1
EndSplineSet
EndChar

StartChar: lslash
Encoding: 322 322 335
Width: 185
VWidth: 0
Flags: HW
LayerCount: 2
Fore
SplineSet
62 370 m 1
 55 395 l 1
 286 545 l 1
 294 520 l 1
 62 370 l 1
213 780 m 1
 248 780 l 1
 110 0 l 1
 75 0 l 1
 213 780 l 1
EndSplineSet
EndChar

StartChar: uni0218
Encoding: 536 536 336
Width: 509
VWidth: 0
Flags: HW
LayerCount: 2
Fore
SplineSet
108 207 m 1
 124 116 165 27 274 27 c 0
 386 27 441 90 457 178 c 0
 474 276 395 322 323 351 c 0
 252 379 154 433 174 545 c 0
 192 645 286 709 387 709 c 0
 500 709 548 625 557 554 c 1
 523 536 l 1
 511 600 477 672 381 672 c 0
 298 672 227 619 213 542 c 0
 197 453 280 410 359 378 c 0
 433 349 517 295 497 180 c 0
 478 74 405 -9 266 -9 c 0
 145 -9 89 85 73 189 c 1
 108 207 l 1
287 -69 m 1
 320 -83 l 1
 166 -333 l 1
 143 -324 l 1
 287 -69 l 1
EndSplineSet
EndChar

StartChar: uni0219
Encoding: 537 537 337
Width: 403
VWidth: 0
Flags: HW
LayerCount: 2
Fore
SplineSet
92 152 m 1
 93 86 123 23 206 23 c 0
 270 23 321 58 332 119 c 0
 343 179 292 204 233 225 c 0
 168 247 110 272 125 355 c 0
 138 428 209 469 282 469 c 0
 360 469 402 423 411 372 c 1
 378 355 l 1
 366 397 335 435 276 435 c 0
 220 435 169 409 159 354 c 0
 148 289 204 271 263 250 c 0
 324 228 381 192 369 122 c 0
 354 36 284 -10 198 -10 c 0
 100 -10 60 61 59 136 c 1
 92 152 l 1
220 -70 m 1
 253 -84 l 1
 99 -334 l 1
 76 -325 l 1
 220 -70 l 1
EndSplineSet
EndChar

StartChar: pi
Encoding: 960 960 338
Width: 495
VWidth: 0
Flags: HW
LayerCount: 2
Fore
SplineSet
168 443 m 1
 203 443 l 1
 125 0 l 1
 90 0 l 1
 168 443 l 1
111 460 m 1
 536 460 l 1
 530 427 l 1
 105 427 l 1
 111 460 l 1
418 443 m 1
 453 443 l 1
 398 128 l 2
 383 43 390 26 433 26 c 1
 426 -9 l 1
 361 -9 342 12 361 121 c 2
 418 443 l 1
EndSplineSet
EndChar

StartChar: trademark
Encoding: 8482 8482 339
Width: 665
VWidth: 0
Flags: HW
LayerCount: 2
Fore
SplineSet
156 682 m 1
 159 700 l 1
 365 700 l 1
 362 682 l 1
 268 682 l 1
 210 350 l 1
 191 350 l 1
 249 682 l 1
 156 682 l 1
697 657 m 1
 719 711 l 1
 694 350 l 1
 676 350 l 1
 697 657 l 1
439 711 m 1
 442 657 l 1
 356 350 l 1
 336 350 l 1
 439 711 l 1
719 711 m 1
 709 668 l 1
 524 395 l 1
 434 668 l 1
 439 711 l 1
 530 432 l 1
 719 711 l 1
EndSplineSet
EndChar

StartChar: uni2219
Encoding: 8729 8729 340
Width: 274
VWidth: 0
Flags: HW
LayerCount: 2
Fore
SplineSet
188 437 m 0
 191 452 205 464 219 464 c 0
 233 464 244 452 241 437 c 0
 238 422 223 410 209 410 c 0
 195 410 185 422 188 437 c 0
EndSplineSet
EndChar

StartChar: agrave.alt
Encoding: 65537 -1 341
Width: 453
VWidth: 0
Flags: HW
LayerCount: 2
Fore
SplineSet
96 135 m 4
 82 54 134 22 202 22 c 4
 288 22 365 81 380 167 c 5
 387 149 l 5
 371 60 289 -10 189 -10 c 4
 107 -10 42 34 59 131 c 4
 77 232 175 283 273 283 c 4
 355 283 390 248 406 231 c 5
 402 208 l 5
 375 234 333 254 269 254 c 4
 187 254 110 214 96 135 c 4
161 379 m 5
 147 407 l 5
 186 436 244 470 321 470 c 4
 416 470 460 413 444 324 c 6
 387 0 l 5
 351 0 l 5
 408 324 l 6
 421 396 386 438 315 438 c 4
 249 438 198 407 161 379 c 5
217 697 m 5
 252 717 l 5
 387 557 l 5
 365 543 l 5
 217 697 l 5
EndSplineSet
EndChar

StartChar: aacute.alt
Encoding: 65538 -1 342
Width: 453
VWidth: 0
Flags: HW
LayerCount: 2
Fore
SplineSet
96 135 m 0
 82 54 134 22 202 22 c 0
 288 22 365 81 380 167 c 1
 387 149 l 1
 371 60 289 -10 189 -10 c 0
 107 -10 42 34 59 131 c 0
 77 232 175 283 273 283 c 0
 355 283 390 248 406 231 c 1
 402 208 l 1
 375 234 333 254 269 254 c 0
 187 254 110 214 96 135 c 0
161 379 m 1
 147 407 l 1
 186 436 244 470 321 470 c 0
 416 470 460 413 444 324 c 2
 387 0 l 1
 351 0 l 1
 408 324 l 2
 421 396 386 438 315 438 c 0
 249 438 198 407 161 379 c 1
493 697 m 1
 291 543 l 1
 273 557 l 1
 464 717 l 1
 493 697 l 1
EndSplineSet
EndChar

StartChar: acircumflex.alt
Encoding: 65539 -1 343
Width: 453
VWidth: 0
Flags: HW
LayerCount: 2
Fore
SplineSet
96 135 m 4
 82 54 134 22 202 22 c 4
 288 22 365 81 380 167 c 5
 387 149 l 5
 371 60 289 -10 189 -10 c 4
 107 -10 42 34 59 131 c 4
 77 232 175 283 273 283 c 4
 355 283 390 248 406 231 c 5
 402 208 l 5
 375 234 333 254 269 254 c 4
 187 254 110 214 96 135 c 4
161 379 m 5
 147 407 l 5
 186 436 244 470 321 470 c 4
 416 470 460 413 444 324 c 6
 387 0 l 5
 351 0 l 5
 408 324 l 6
 421 396 386 438 315 438 c 4
 249 438 198 407 161 379 c 5
354 657 m 5
 196 536 l 5
 176 555 l 5
 361 695 l 5
 496 555 l 5
 471 536 l 5
 354 657 l 5
EndSplineSet
EndChar

StartChar: atilde.alt
Encoding: 65540 -1 344
Width: 453
VWidth: 0
Flags: HW
LayerCount: 2
Fore
SplineSet
96 135 m 4
 82 54 134 22 202 22 c 4
 288 22 365 81 380 167 c 5
 387 149 l 5
 371 60 289 -10 189 -10 c 4
 107 -10 42 34 59 131 c 4
 77 232 175 283 273 283 c 4
 355 283 390 248 406 231 c 5
 402 208 l 5
 375 234 333 254 269 254 c 4
 187 254 110 214 96 135 c 4
161 379 m 5
 147 407 l 5
 186 436 244 470 321 470 c 4
 416 470 460 413 444 324 c 6
 387 0 l 5
 351 0 l 5
 408 324 l 6
 421 396 386 438 315 438 c 4
 249 438 198 407 161 379 c 5
195 576 m 5
 205 612 238 643 283 643 c 4
 342 643 345 596 399 596 c 4
 424 596 441 612 464 644 c 5
 481 626 l 5
 458 589 428 566 391 566 c 4
 336 566 323 613 278 613 c 4
 237 613 220 583 216 562 c 5
 195 576 l 5
EndSplineSet
EndChar

StartChar: adieresis.alt
Encoding: 65541 -1 345
Width: 453
VWidth: 0
Flags: HW
LayerCount: 2
Fore
SplineSet
96 135 m 0
 82 54 134 22 202 22 c 0
 288 22 365 81 380 167 c 1
 387 149 l 1
 371 60 289 -10 189 -10 c 0
 107 -10 42 34 59 131 c 0
 77 232 175 283 273 283 c 0
 355 283 390 248 406 231 c 1
 402 208 l 1
 375 234 333 254 269 254 c 0
 187 254 110 214 96 135 c 0
161 379 m 1
 147 407 l 1
 186 436 244 470 321 470 c 0
 416 470 460 413 444 324 c 2
 387 0 l 1
 351 0 l 1
 408 324 l 2
 421 396 386 438 315 438 c 0
 249 438 198 407 161 379 c 1
393 569 m 0
 396 584 410 597 424 597 c 0
 438 597 449 584 446 569 c 0
 443 554 429 543 415 543 c 0
 401 543 390 554 393 569 c 0
218 569 m 0
 221 584 236 597 250 597 c 0
 264 597 274 584 271 569 c 0
 268 554 255 543 241 543 c 0
 227 543 215 554 218 569 c 0
EndSplineSet
EndChar

StartChar: aring.alt
Encoding: 65542 -1 346
Width: 453
VWidth: 0
Flags: HW
LayerCount: 2
Fore
SplineSet
96 135 m 4
 82 54 134 22 202 22 c 4
 288 22 365 81 380 167 c 5
 387 149 l 5
 371 60 289 -10 189 -10 c 4
 107 -10 42 34 59 131 c 4
 77 232 175 283 273 283 c 4
 355 283 390 248 406 231 c 5
 402 208 l 5
 375 234 333 254 269 254 c 4
 187 254 110 214 96 135 c 4
161 379 m 5
 147 407 l 5
 186 436 244 470 321 470 c 4
 416 470 460 413 444 324 c 6
 387 0 l 5
 351 0 l 5
 408 324 l 6
 421 396 386 438 315 438 c 4
 249 438 198 407 161 379 c 5
247 630 m 4
 258 690 315 730 367 730 c 4
 419 730 462 690 451 630 c 4
 440 570 383 530 331 530 c 4
 279 530 236 570 247 630 c 4
272 630 m 4
 264 584 296 553 336 553 c 4
 376 553 418 584 426 630 c 4
 434 676 403 707 363 707 c 4
 323 707 280 676 272 630 c 4
EndSplineSet
EndChar

StartChar: amacron.alt
Encoding: 65543 -1 347
Width: 453
VWidth: 0
Flags: HW
LayerCount: 2
Fore
SplineSet
96 135 m 0
 82 54 134 22 202 22 c 0
 288 22 365 81 380 167 c 1
 387 149 l 1
 371 60 289 -10 189 -10 c 0
 107 -10 42 34 59 131 c 0
 77 232 175 283 273 283 c 0
 355 283 390 248 406 231 c 1
 402 208 l 1
 375 234 333 254 269 254 c 0
 187 254 110 214 96 135 c 0
161 379 m 1
 147 407 l 1
 186 436 244 470 321 470 c 0
 416 470 460 413 444 324 c 2
 387 0 l 1
 351 0 l 1
 408 324 l 2
 421 396 386 438 315 438 c 0
 249 438 198 407 161 379 c 1
160 550 m 1
 166 583 l 1
 516 583 l 1
 510 550 l 1
 160 550 l 1
EndSplineSet
EndChar

StartChar: abreve.alt
Encoding: 65544 -1 348
Width: 453
VWidth: 0
Flags: HW
LayerCount: 2
Fore
SplineSet
96 135 m 0
 82 54 134 22 202 22 c 0
 288 22 365 81 380 167 c 1
 387 149 l 1
 371 60 289 -10 189 -10 c 0
 107 -10 42 34 59 131 c 0
 77 232 175 283 273 283 c 0
 355 283 390 248 406 231 c 1
 402 208 l 1
 375 234 333 254 269 254 c 0
 187 254 110 214 96 135 c 0
161 379 m 1
 147 407 l 1
 186 436 244 470 321 470 c 0
 416 470 460 413 444 324 c 2
 387 0 l 1
 351 0 l 1
 408 324 l 2
 421 396 386 438 315 438 c 0
 249 438 198 407 161 379 c 1
193 676 m 1
 225 676 l 1
 216 624 248 566 332 566 c 0
 416 566 468 624 477 676 c 1
 509 676 l 1
 497 607 432 536 327 536 c 0
 222 536 181 607 193 676 c 1
EndSplineSet
EndChar

StartChar: aogonek.alt
Encoding: 65545 -1 349
Width: 453
VWidth: 0
Flags: HW
LayerCount: 2
Fore
SplineSet
96 135 m 4
 82 54 134 22 202 22 c 4
 288 22 365 81 380 167 c 5
 387 149 l 5
 371 60 289 -10 189 -10 c 4
 107 -10 42 34 59 131 c 4
 77 232 175 283 273 283 c 4
 355 283 390 248 406 231 c 5
 402 208 l 5
 375 234 333 254 269 254 c 4
 187 254 110 214 96 135 c 4
161 379 m 5
 147 407 l 5
 186 436 244 470 321 470 c 4
 416 470 460 413 444 324 c 6
 387 0 l 5
 351 0 l 5
 408 324 l 6
 421 396 386 438 315 438 c 4
 249 438 198 407 161 379 c 5
382 -157 m 5
 394 -180 l 5
 375 -200 336 -220 293 -220 c 4
 222 -220 190 -186 199 -133 c 5
 235 -126 l 5
 228 -168 258 -188 301 -188 c 4
 336 -188 365 -173 382 -157 c 5
235 -126 m 5
 199 -133 l 5
 210 -68 295 -21 371 15 c 5
 387 0 l 5
 320 -28 244 -76 235 -126 c 5
EndSplineSet
EndChar

StartChar: dagger
Encoding: 8224 8224 350
Width: 525
VWidth: 0
Flags: HW
LayerCount: 2
Fore
SplineSet
185 540 m 1
 530 540 l 1
 524 507 l 1
 179 507 l 1
 185 540 l 1
368 700 m 1
 403 700 l 1
 254 -150 l 1
 219 -150 l 1
 368 700 l 1
EndSplineSet
EndChar

StartChar: daggerdbl
Encoding: 8225 8225 351
Width: 525
VWidth: 0
Flags: HW
LayerCount: 2
Fore
SplineSet
111 120 m 1
 456 120 l 1
 450 87 l 1
 105 87 l 1
 111 120 l 1
185 540 m 1
 530 540 l 1
 524 507 l 1
 179 507 l 1
 185 540 l 1
368 700 m 1
 403 700 l 1
 254 -150 l 1
 219 -150 l 1
 368 700 l 1
EndSplineSet
EndChar

StartChar: ellipsis
Encoding: 8230 8230 352
Width: 843
VWidth: 0
Flags: HW
LayerCount: 2
Fore
SplineSet
114 15 m 0
 117 30 131 42 145 42 c 0
 159 42 171 30 168 15 c 0
 165 0 150 -12 136 -12 c 0
 122 -12 111 0 114 15 c 0
398 15 m 0
 401 30 415 42 429 42 c 0
 443 42 455 30 452 15 c 0
 449 0 434 -12 420 -12 c 0
 406 -12 395 0 398 15 c 0
682 15 m 0
 685 30 699 42 713 42 c 0
 727 42 739 30 736 15 c 0
 733 0 718 -12 704 -12 c 0
 690 -12 679 0 682 15 c 0
EndSplineSet
EndChar

StartChar: uniFF10
Encoding: 65296 65296 353
Width: 560
VWidth: 0
Flags: HW
LayerCount: 2
Fore
SplineSet
145 350 m 0
 113 171 160 25 284 25 c 0
 408 25 507 171 539 350 c 0
 571 529 523 675 399 675 c 0
 275 675 177 529 145 350 c 0
108 350 m 0
 144 553 261 710 405 710 c 0
 549 710 613 553 577 350 c 0
 541 147 422 -10 278 -10 c 0
 134 -10 72 147 108 350 c 0
EndSplineSet
EndChar

StartChar: uniFF11
Encoding: 65297 65297 354
Width: 560
VWidth: 0
Flags: HW
LayerCount: 2
Fore
SplineSet
256 621 m 1
 263 660 l 1
 474 707 l 1
 349 0 l 1
 312 0 l 1
 429 661 l 1
 256 621 l 1
EndSplineSet
EndChar

StartChar: uniFF12
Encoding: 65298 65298 355
Width: 560
VWidth: 0
Flags: HW
LayerCount: 2
Fore
SplineSet
37 0 m 1
 421 341 l 2
 478 391 526 440 539 514 c 0
 552 586 521 676 407 676 c 0
 298 676 211 588 188 460 c 1
 152 460 l 1
 178 609 281 711 413 711 c 0
 554 711 592 600 576 512 c 0
 562 434 509 374 447 320 c 2
 121 35 l 1
 511 35 l 1
 505 0 l 1
 37 0 l 1
EndSplineSet
EndChar

StartChar: uniFF13
Encoding: 65299 65299 356
Width: 560
VWidth: 0
Flags: HW
LayerCount: 2
Fore
SplineSet
319 356 m 1
 323 381 l 1
 413 381 517 439 533 529 c 0
 547 606 506 676 409 676 c 0
 316 676 242 613 227 526 c 1
 192 526 l 1
 211 635 300 710 415 710 c 0
 535 710 586 623 570 530 c 0
 551 425 435 356 319 356 c 1
284 -10 m 0
 149 -10 83 76 102 185 c 1
 139 185 l 1
 123 93 178 25 290 25 c 0
 396 25 476 90 492 182 c 0
 512 293 407 347 317 347 c 1
 322 372 l 1
 438 372 552 312 529 179 c 0
 509 66 409 -10 284 -10 c 0
EndSplineSet
EndChar

StartChar: uniFF14
Encoding: 65300 65300 357
Width: 560
VWidth: 0
Flags: HW
LayerCount: 2
Fore
SplineSet
47 140 m 1
 84 173 l 1
 428 173 l 0
 436 173 l 0
 560 173 l 1
 554 140 l 1
 47 140 l 1
87 140 m 1
 47 140 l 1
 529 700 l 25
 543 700 l 1
 420 0 l 1
 382 0 l 1
 409 154 l 0
 410 161 l 0
 490 610 l 1
 87 140 l 1
EndSplineSet
EndChar

StartChar: uniFF15
Encoding: 65301 65301 358
Width: 560
VWidth: 0
Flags: HW
LayerCount: 2
Fore
SplineSet
544 230 m 0
 516 71 397 -10 268 -10 c 0
 152 -10 96 51 71 137 c 1
 106 158 l 1
 126 80 179 25 274 25 c 0
 387 25 483 99 506 230 c 0
 526 342 461 419 361 419 c 0
 281 419 219 390 150 327 c 1
 186 371 l 1
 230 418 301 453 379 453 c 0
 493 453 567 363 544 230 c 0
329 667 m 1
 208 380 l 1
 150 327 l 1
 307 700 l 1
 637 700 l 1
 632 667 l 1
 329 667 l 1
EndSplineSet
EndChar

StartChar: uniFF16
Encoding: 65302 65302 359
Width: 560
VWidth: 0
Flags: HW
LayerCount: 2
Fore
SplineSet
130 224 m 0
 110 109 172 24 284 24 c 0
 396 24 489 109 509 224 c 0
 528 333 460 416 360 416 c 0
 238 416 148 326 130 224 c 0
458 700 m 1
 504 700 l 1
 214 375 l 1
 211 377 l 1
 256 422 313 444 377 444 c 0
 491 444 567 347 545 224 c 0
 521 86 413 -10 278 -10 c 0
 143 -10 70 86 94 224 c 0
 104 281 140 341 174 378 c 2
 458 700 l 1
EndSplineSet
EndChar

StartChar: uniFF17
Encoding: 65303 65303 360
Width: 560
VWidth: 0
Flags: HW
LayerCount: 2
Fore
SplineSet
171 665 m 1
 177 700 l 1
 655 700 l 1
 174 0 l 1
 135 0 l 1
 592 665 l 1
 171 665 l 1
EndSplineSet
EndChar

StartChar: uniFF18
Encoding: 65304 65304 361
Width: 560
VWidth: 0
Flags: HW
LayerCount: 2
Fore
SplineSet
195 537 m 0
 211 630 301 710 405 710 c 0
 509 710 572 630 556 537 c 0
 538 434 440 363 344 363 c 0
 248 363 177 434 195 537 c 0
230 534 m 0
 215 449 282 388 348 388 c 0
 414 388 504 449 519 534 c 0
 533 613 483 677 399 677 c 0
 315 677 244 613 230 534 c 0
111 187 m 0
 131 303 242 379 347 379 c 0
 452 379 535 303 515 187 c 0
 496 78 403 -10 278 -10 c 0
 153 -10 92 78 111 187 c 0
148 190 m 0
 131 91 185 23 284 23 c 0
 383 23 464 91 481 190 c 0
 498 285 425 354 342 354 c 0
 259 354 165 285 148 190 c 0
EndSplineSet
EndChar

StartChar: uniFF19
Encoding: 65305 65305 362
Width: 560
VWidth: 0
Flags: HW
LayerCount: 2
Fore
SplineSet
554 476 m 0
 574 591 511 676 399 676 c 0
 287 676 195 591 175 476 c 0
 156 367 224 284 324 284 c 0
 446 284 536 374 554 476 c 0
226 0 m 1
 179 0 l 1
 470 325 l 1
 472 323 l 1
 427 278 371 256 307 256 c 0
 193 256 117 353 139 476 c 0
 163 614 270 710 405 710 c 0
 540 710 614 614 590 476 c 0
 580 419 545 359 511 322 c 2
 226 0 l 1
EndSplineSet
EndChar

StartChar: caron
Encoding: 711 711 363
Width: 480
VWidth: 0
Flags: HW
LayerCount: 2
Fore
SplineSet
347 608 m 1
 506 729 l 1
 525 710 l 1
 341 570 l 1
 205 710 l 1
 232 729 l 1
 347 608 l 1
EndSplineSet
EndChar

StartChar: napostrophe
Encoding: 329 329 364
Width: 622
VWidth: 0
Flags: HW
LayerCount: 2
Fore
SplineSet
295 460 m 1
 214 0 l 1
 179 0 l 1
 260 460 l 1
 295 460 l 1
528 306 m 2
 542 385 518 437 437 437 c 0
 354 437 278 365 263 280 c 1
 246 280 l 1
 265 389 355 470 450 470 c 0
 545 470 581 409 563 309 c 2
 509 0 l 1
 474 0 l 1
 528 306 l 2
280 700 m 1
 322 700 l 1
 186 470 l 1
 159 470 l 1
 280 700 l 1
EndSplineSet
EndChar

StartChar: IJ
Encoding: 306 306 365
Width: 490
VWidth: 0
Flags: HW
LayerCount: 2
Fore
SplineSet
120 -139 m 1
 136 -162 169 -184 211 -184 c 0
 279 -184 314 -148 331 -50 c 2
 463 700 l 1
 499 700 l 1
 365 -60 l 2
 346 -169 297 -220 203 -220 c 0
 150 -220 106 -187 95 -167 c 1
 120 -139 l 1
206 700 m 1
 243 700 l 1
 120 0 l 1
 83 0 l 1
 206 700 l 1
EndSplineSet
EndChar

StartChar: ij
Encoding: 307 307 366
Width: 510
VWidth: 0
Flags: HW
LayerCount: 2
Fore
SplineSet
451 679 m 0
 453 693 467 705 482 705 c 0
 497 705 506 693 504 679 c 0
 502 665 488 653 473 653 c 0
 458 653 449 665 451 679 c 0
166 -146 m 1
 177 -167 198 -185 227 -185 c 0
 289 -185 316 -131 327 -71 c 2
 421 460 l 1
 456 460 l 1
 362 -74 l 2
 347 -157 303 -220 219 -220 c 0
 176 -220 152 -195 141 -175 c 1
 166 -146 l 1
201 679 m 0
 203 693 217 705 232 705 c 0
 247 705 256 693 254 679 c 0
 252 665 238 653 223 653 c 0
 208 653 199 665 201 679 c 0
171 460 m 1
 206 460 l 1
 125 0 l 1
 90 0 l 1
 171 460 l 1
EndSplineSet
EndChar

StartChar: uni0237
Encoding: 567 567 367
Width: 205
VWidth: 0
Flags: HW
LayerCount: 2
Fore
SplineSet
-94 -146 m 1
 -83 -167 -62 -185 -33 -185 c 0
 29 -185 56 -131 67 -71 c 2
 161 460 l 1
 196 460 l 1
 102 -74 l 2
 87 -157 43 -220 -41 -220 c 0
 -84 -220 -108 -195 -119 -175 c 1
 -94 -146 l 1
EndSplineSet
EndChar

StartChar: Sacute
Encoding: 346 346 368
Width: 509
VWidth: 0
Flags: HW
LayerCount: 2
Fore
SplineSet
108 207 m 1
 124 116 165 27 274 27 c 0
 386 27 441 90 457 178 c 0
 474 276 395 322 323 351 c 0
 252 379 154 433 174 545 c 0
 192 645 286 709 387 709 c 0
 500 709 548 625 557 554 c 1
 523 536 l 1
 511 600 477 672 381 672 c 0
 298 672 227 619 213 542 c 0
 197 453 280 410 359 378 c 0
 433 349 517 295 497 180 c 0
 478 74 405 -9 266 -9 c 0
 145 -9 89 85 73 189 c 1
 108 207 l 1
589 923 m 1
 387 769 l 1
 369 783 l 1
 560 943 l 1
 589 923 l 1
EndSplineSet
EndChar

StartChar: sacute
Encoding: 347 347 369
Width: 403
VWidth: 0
Flags: HW
LayerCount: 2
Fore
SplineSet
92 152 m 1
 93 86 123 23 206 23 c 0
 270 23 321 58 332 119 c 0
 343 179 292 204 233 225 c 0
 168 247 110 272 125 355 c 0
 138 428 209 469 282 469 c 0
 360 469 402 423 411 372 c 1
 378 355 l 1
 366 397 335 435 276 435 c 0
 220 435 169 409 159 354 c 0
 148 289 204 271 263 250 c 0
 324 228 381 192 369 122 c 0
 354 36 284 -10 198 -10 c 0
 100 -10 60 61 59 136 c 1
 92 152 l 1
484 685 m 1
 281 530 l 1
 264 544 l 1
 455 704 l 1
 484 685 l 1
EndSplineSet
EndChar

StartChar: Scircumflex
Encoding: 348 348 370
Width: 509
VWidth: 0
Flags: HW
LayerCount: 2
Fore
SplineSet
108 207 m 1
 124 116 165 27 274 27 c 0
 386 27 441 90 457 178 c 0
 474 276 395 322 323 351 c 0
 252 379 154 433 174 545 c 0
 192 645 286 709 387 709 c 0
 500 709 548 625 557 554 c 1
 523 536 l 1
 511 600 477 672 381 672 c 0
 298 672 227 619 213 542 c 0
 197 453 280 410 359 378 c 0
 433 349 517 295 497 180 c 0
 478 74 405 -9 266 -9 c 0
 145 -9 89 85 73 189 c 1
 108 207 l 1
419 889 m 1
 261 769 l 1
 241 788 l 1
 426 928 l 1
 561 788 l 1
 535 769 l 1
 419 889 l 1
EndSplineSet
EndChar

StartChar: scircumflex
Encoding: 349 349 371
Width: 403
VWidth: 0
Flags: HW
LayerCount: 2
Fore
SplineSet
92 152 m 1
 93 86 123 23 206 23 c 0
 270 23 321 58 332 119 c 0
 343 179 292 204 233 225 c 0
 168 247 110 272 125 355 c 0
 138 428 209 469 282 469 c 0
 360 469 402 423 411 372 c 1
 378 355 l 1
 366 397 335 435 276 435 c 0
 220 435 169 409 159 354 c 0
 148 289 204 271 263 250 c 0
 324 228 381 192 369 122 c 0
 354 36 284 -10 198 -10 c 0
 100 -10 60 61 59 136 c 1
 92 152 l 1
314 651 m 1
 154 530 l 1
 136 549 l 1
 320 689 l 1
 456 549 l 1
 430 530 l 1
 314 651 l 1
EndSplineSet
EndChar
